<?xml version="1.0" standalone="no"?>
<!DOCTYPE svg PUBLIC "-//W3C//DTD SVG 1.1//EN" "http://www.w3.org/Graphics/SVG/1.1/DTD/svg11.dtd" >
<svg xmlns="http://www.w3.org/2000/svg" xmlns:xlink="http://www.w3.org/1999/xlink" version="1.1">
<metadata>
Created by FontForge 20161013 at Mon Nov 25 03:55:42 2013
 By ,,,
Copyright (c) 2012 by Toni Hurme. All rights reserved.
</metadata>
<defs>
<font id="HurmeGeometricSans1-Thin" horiz-adv-x="607" >
  <font-face 
    font-family="Hurme Geometric Sans 1"
    font-weight="100"
    font-stretch="normal"
    units-per-em="1000"
    panose-1="2 11 3 0 2 0 0 0 0 0"
    ascent="776"
    descent="-224"
    x-height="504"
    cap-height="697"
    bbox="-53 -208 1081 1000"
    underline-thickness="20"
    underline-position="-230"
    unicode-range="U+000D-FB04"
  />
<missing-glyph horiz-adv-x="712" 
d="M712 0h-712v697h712v-697zM21 677v-657h670v657h-670zM127 103l-15 16l229 229l-229 230l15 16l229 -230l229 230l15 -16l-229 -230l229 -229l-15 -16l-229 229z" />
    <glyph glyph-name="ff" unicode="ff" horiz-adv-x="537" 
d="M127 0h-21v484h-74v20h74v53q0 149 126 149q28 0 39 -4v-19q-15 3 -41 3q-103 0 -103 -127v-55h223v53q0 149 126 149q28 0 39 -4v-19q-15 3 -41 3q-103 0 -103 -127v-55h131v-20h-131v-484h-21v484h-223v-484z" />
    <glyph glyph-name="fi" unicode="fi" horiz-adv-x="435" 
d="M127 0h-21v484h-74v20h74v53q0 82 40 119q32 30 88 30q32 0 44 -4v-19q-18 3 -46 3q-105 0 -105 -127v-55h244v-504h-21v484h-223v-484z" />
    <glyph glyph-name="fl" unicode="fl" horiz-adv-x="450" 
d="M127 0h-21v484h-74v20h74v53q0 81 39 119q31 30 87 30q28 0 39 -4v-19q-15 3 -41 3q-103 0 -103 -127v-55h131v-20h-131v-484zM386 0h-21v697h21v-697z" />
    <glyph glyph-name="ffi" unicode="ffi" horiz-adv-x="679" 
d="M127 0h-21v484h-74v20h74v53q0 149 126 149q28 0 39 -4v-19q-15 3 -41 3q-103 0 -103 -127v-55h223v53q0 82 40 119q32 30 88 30q32 0 44 -4v-19q-18 3 -46 3q-105 0 -105 -127v-55h244v-504h-21v484h-223v-484h-21v484h-223v-484z" />
    <glyph glyph-name="ffl" unicode="ffl" horiz-adv-x="694" 
d="M127 0h-21v484h-74v20h74v53q0 149 126 149q28 0 39 -4v-19q-15 3 -41 3q-103 0 -103 -127v-55h223v53q0 149 126 149q28 0 39 -4v-19q-15 3 -41 3q-103 0 -103 -127v-55h131v-20h-131v-484h-21v484h-223v-484zM630 0h-21v697h21v-697z" />
    <glyph glyph-name="fj" unicode="fj" horiz-adv-x="435" 
d="M127 0h-21v484h-74v20h74v53q0 82 40 119q32 30 88 30q32 0 44 -4v-19q-18 3 -46 3q-105 0 -105 -127v-55h244v-567q0 -140 -116 -140q-23 0 -45 5v20q25 -5 47 -5q93 0 93 120v547h-223v-484z" />
    <glyph glyph-name="ffj" unicode="ffj" horiz-adv-x="679" 
d="M127 0h-21v484h-74v20h74v53q0 149 126 149q28 0 39 -4v-19q-15 3 -41 3q-103 0 -103 -127v-55h223v53q0 82 40 119q32 30 88 30q32 0 44 -4v-19q-18 3 -46 3q-105 0 -105 -127v-55h244v-567q0 -140 -116 -140q-23 0 -45 5v20q25 -5 47 -5q93 0 93 120v547h-223v-484h-21
v484h-223v-484z" />
    <glyph glyph-name=".notdef" horiz-adv-x="712" 
d="M712 0h-712v697h712v-697zM21 677v-657h670v657h-670zM127 103l-15 16l229 229l-229 230l15 16l229 -230l229 230l15 -16l-229 -230l229 -229l-15 -16l-229 229z" />
    <glyph glyph-name=".null" horiz-adv-x="0" 
 />
    <glyph glyph-name="nonmarkingreturn" horiz-adv-x="333" 
 />
    <glyph glyph-name="NULL" horiz-adv-x="0" 
 />
    <glyph glyph-name="NULL" horiz-adv-x="0" 
 />
    <glyph glyph-name="CR.001" unicode="&#xd;" horiz-adv-x="0" 
 />
    <glyph glyph-name="space" unicode=" " horiz-adv-x="412" 
 />
    <glyph glyph-name="exclam" unicode="!" horiz-adv-x="202" 
d="M111 155h-18l-4 542h26zM83 16q0 12 12 17.5t20 -4.5q10 -8 4.5 -20t-17.5 -12q-19 0 -19 19z" />
    <glyph glyph-name="quotedbl" unicode="&#x22;" horiz-adv-x="204" 
d="M148 445h-15l-5 252h25zM72 445h-15l-5 252h25z" />
    <glyph glyph-name="numbersign" unicode="#" horiz-adv-x="514" 
d="M120 141h-20l27 104h-91v18h96l42 165h-93v18h98l25 102h20l-26 -102h168l25 102h20l-26 -102h94v-18h-98l-42 -165h96v-18h-101l-27 -104h-20l27 104h-167zM194 428l-42 -165h167l42 165h-167z" />
    <glyph glyph-name="dollar" unicode="$" horiz-adv-x="514" 
d="M32 146l20 9q23 -66 73 -104t119 -41v358q-85 39 -122 78q-37 40 -37 111q0 64 45 106q46 43 114 44v100h21v-100q103 -7 150 -91l-18 -10q-41 74 -132 81v-305q102 -45 148 -91q44 -44 44 -124q0 -81 -51.5 -128.5t-140.5 -48.5v-97h-21v97q-75 3 -130.5 43.5
t-81.5 112.5zM244 391v296q-61 -2 -99.5 -38t-38.5 -92q0 -63 33 -98q31 -33 105 -68zM265 359v-349q80 1 125.5 44t45.5 113t-39 109q-36 39 -132 83z" />
    <glyph glyph-name="percent" unicode="%" horiz-adv-x="707" 
d="M310 436q-46 -45 -110 -45t-110 45q-46 46 -46 111t46 110q46 46 110 46t110 -46q46 -45 46 -110t-46 -111zM141 0h-25l451 697h25zM200 683q-56 0 -96 -40q-39 -41 -39 -96t39 -96q40 -40 96 -40t95 40q40 40 40 96t-40 96t-95 40zM396 40q-45 46 -45 110t45 110
q46 46 111 46t110 -46q46 -46 46 -110t-46 -110q-45 -46 -110 -46t-111 46zM507 286q-56 0 -96 -40q-39 -40 -39 -96t39 -96q40 -40 96 -40t95 40q40 40 40 96t-40 96t-95 40z" />
    <glyph glyph-name="ampersand" unicode="&#x26;" horiz-adv-x="723" 
d="M51 216q0 153 167 218q-31 55 -31 113q0 70 43 113q43 45 112 45q66 0 109 -42q43 -40 43 -104q0 -79 -62 -114h264v-20h-143v-68q0 -129 -41 -220l135 -137h-28l-117 117q-77 -125 -220 -125q-104 0 -168 61q-63 62 -63 163zM338 313l157 -161q37 78 37 205v68h-162v15
q39 1 71 35q32 35 32 82q0 57 -36.5 92.5t-95.5 35.5q-53 0 -93 -37q-40 -36 -40 -101q0 -101 130 -234zM72 216q0 -93 56.5 -148.5t153.5 -55.5q139 0 203 121q-21 23 -81 83l-74 76q-68 70 -101 123q-157 -57 -157 -199z" />
    <glyph glyph-name="quotesingle" unicode="'" horiz-adv-x="128" 
d="M72 445h-15l-5 252h25z" />
    <glyph glyph-name="parenleft" unicode="(" horiz-adv-x="256" 
d="M287 -144l-12 -12q-220 193 -220 465q0 275 220 465l12 -12q-209 -188 -209 -453t209 -453z" />
    <glyph glyph-name="parenright" unicode=")" horiz-adv-x="256" 
d="M-17 -156l-12 12q209 188 209 453t-209 453l12 12q220 -190 220 -465q0 -272 -220 -465z" />
    <glyph glyph-name="asterisk" unicode="*" horiz-adv-x="435" 
d="M218 536l-84 -108l-14 10l86 107l-130 45l6 16l128 -47l-1 138h18l-1 -138l128 47l6 -16l-130 -45l86 -107l-14 -10z" />
    <glyph glyph-name="plus" unicode="+" horiz-adv-x="400" 
d="M210 190h-21v149h-139v20h139v147h21v-147h139v-20h-139v-149z" />
    <glyph glyph-name="comma" unicode="," horiz-adv-x="184" 
d="M119 111l-112 -239h-17l99 239h30z" />
    <glyph glyph-name="hyphen" unicode="-" horiz-adv-x="310" 
d="M262 252h-213v20h213v-20z" />
    <glyph glyph-name="period" unicode="." horiz-adv-x="151" 
d="M57 16q0 12 12 17.5t20 -4.5q10 -8 4.5 -20t-17.5 -12q-19 0 -19 19z" />
    <glyph glyph-name="slash" unicode="/" horiz-adv-x="388" 
d="M31 -136h-22l313 859h23z" />
    <glyph glyph-name="zero" unicode="0" horiz-adv-x="553" 
d="M51 194q-3 32 -3 155t3 154q9 93 73 148q65 56 152 56t152 -56t74 -148q3 -31 3 -154t-3 -155q-9 -90 -73 -147q-65 -57 -153 -57t-152 57t-73 147zM72 195q8 -80 65 -133q58 -52 139 -52t139 52t66 133q3 31 3 154q0 121 -3 153q-7 80 -66 132q-59 53 -139 53t-139 -53
q-58 -53 -65 -132q-3 -32 -3 -153q0 -123 3 -154z" />
    <glyph glyph-name="one" unicode="1" horiz-adv-x="260" 
d="M163 0h-21v677h-112v20h133v-697z" />
    <glyph glyph-name="two" unicode="2" horiz-adv-x="491" 
d="M449 0h-433l340 388q33 37 45 67.5t12 68.5q0 67 -50 115q-49 48 -118 48t-119 -50q-49 -49 -49 -118h-21q0 78 55 133t134 55q77 0 133 -54t56 -130q0 -40 -11.5 -72.5t-45.5 -71.5l-315 -359h387v-20z" />
    <glyph glyph-name="three" unicode="3" horiz-adv-x="546" 
d="M19 142l18 6q23 -62 83 -100q61 -38 136 -38q97 0 158 58q62 59 62 151q0 87 -59 144q-58 58 -149 58q-68 0 -108 -22l260 278h-336v20h383l-245 -261q25 5 54 5q95 0 158 -63t63 -159q0 -103 -68 -166q-67 -63 -173 -63q-83 0 -149 42q-66 43 -88 110z" />
    <glyph glyph-name="four" unicode="4" horiz-adv-x="552" 
d="M442 179h-398l253 518h24l-242 -497h363v179h22v-379h-22v179z" />
    <glyph glyph-name="five" unicode="5" horiz-adv-x="544" 
d="M33 135l18 8q26 -60 82 -96.5t124 -36.5q92 0 154 62q63 63 63 155q0 93 -61 154q-60 62 -151 62q-110 0 -180 -88l61 342h298v-20h-280l-50 -268q60 54 151 54q97 0 165 -68t68 -168q0 -102 -69 -170q-67 -67 -169 -67q-76 0 -136.5 39.5t-87.5 105.5z" />
    <glyph glyph-name="six" unicode="6" horiz-adv-x="561" 
d="M48 226q0 57 25 106l23 42q7 11 33 49l31 45l155 229h26l-195 -287q50 50 138 50q97 0 164 -67q68 -68 68 -167q0 -101 -68 -169q-67 -67 -166 -67q-100 0 -167 67t-67 169zM71 225q0 -93 60 -154q61 -61 151 -61t152 62q61 61 61 153q0 90 -61 151q-62 62 -152 62
t-151 -61q-60 -61 -60 -152z" />
    <glyph glyph-name="seven" unicode="7" horiz-adv-x="535" 
d="M177 0h-24l325 677h-442v20h476z" />
    <glyph glyph-name="eight" unicode="8" horiz-adv-x="525" 
d="M44 200q0 73 44 129q45 55 116 72q-48 15 -77.5 56t-29.5 91q0 66 47 113q47 46 118 46t117 -46q48 -47 48 -113q0 -51 -29.5 -91.5t-78.5 -55.5q71 -17 116 -72t45 -129q0 -88 -64 -149q-62 -61 -154 -61q-91 0 -155 61q-63 61 -63 149zM406 548q0 58 -42 99
q-40 40 -102 40t-103 -40q-41 -41 -41 -99t42 -99q41 -40 102 -40t102 40q42 41 42 99zM122 335q-57 -55 -57 -135t57 -135q56 -55 140 -55t140 55q57 55 57 135t-57 135q-56 55 -140 55t-140 -55z" />
    <glyph glyph-name="nine" unicode="9" horiz-adv-x="558" 
d="M243 0h-26l192 280q-49 -40 -130 -40q-97 0 -165 66q-67 67 -67 166q0 100 67 167q68 68 166 68q97 0 165 -68q67 -67 67 -166q0 -70 -50 -153zM280 260q91 0 151 63t60 150q0 91 -61 152q-62 62 -150 62q-89 0 -151 -62q-61 -61 -61 -152t61 -152t151 -61z" />
    <glyph glyph-name="colon" unicode=":" horiz-adv-x="152" 
d="M76 371q-19 0 -19 19q0 12 12 17.5t20 -4.5q10 -8 4.5 -20t-17.5 -12zM76 95q-19 0 -19 19q0 12 12 17.5t20 -4.5q10 -8 4.5 -20t-17.5 -12z" />
    <glyph glyph-name="semicolon" unicode=";" horiz-adv-x="168" 
d="M96 371q-19 0 -19 19q0 12 12 17.5t20 -4.5q10 -8 4.5 -20t-17.5 -12zM112 111l-104 -223h-19l93 223h30z" />
    <glyph glyph-name="less" unicode="&#x3c;" horiz-adv-x="402" 
d="M351 153l-316 203l316 203v-23l-282 -180l282 -180v-23z" />
    <glyph glyph-name="equal" unicode="=" horiz-adv-x="442" 
d="M392 403h-342v20h342v-20zM392 286h-342v20h342v-20z" />
    <glyph glyph-name="greater" unicode="&#x3e;" horiz-adv-x="404" 
d="M368 356l-316 -203v23l282 180l-282 180v23z" />
    <glyph glyph-name="question" unicode="?" horiz-adv-x="385" 
d="M209 152q-57 0 -88.5 28t-31.5 78q0 61 70 116q27 20 47 33q42 30 47 34q74 63 68 133q0 18 -10 40q-11 29 -42 49.5t-86 20.5q-73 0 -132 -58v26q55 52 132 52q100 0 133 -55q26 -42 26 -75q0 -69 -37 -109q-25 -26 -35 -35q-14 -11 -47 -35q-29 -20 -47 -34
q-66 -51 -66 -103q0 -41 25.5 -63.5t73.5 -22.5q39 0 61 16v-21q-21 -15 -61 -15zM169 16q0 12 12 17.5t20 -4.5q10 -8 4.5 -20t-17.5 -12q-19 0 -19 19z" />
    <glyph glyph-name="at" unicode="@" horiz-adv-x="805" 
d="M46 292q0 142 102 249t255 107q143 0 250 -98t107 -241q0 -100 -31 -149.5t-87 -49.5q-39 0 -62.5 25.5t-28.5 70.5q-16 -45 -56.5 -71t-92.5 -26q-73 0 -123 50q-50 52 -50 126t50 126q51 51 123 51q50 0 90 -26t56 -69v86h21v-216q0 -48 17.5 -77.5t55.5 -29.5
q97 0 97 179q0 132 -99 225q-98 94 -237 94t-238 -99q-98 -98 -98 -237t98 -239q100 -98 238 -98q90 0 167 44l9 -17q-83 -47 -176 -47q-146 0 -252 104q-105 103 -105 253zM402 129q63 0 105 43.5t42 112.5t-42 113t-105 44q-65 0 -108 -46q-44 -46 -44 -111t44 -111
q44 -45 108 -45z" />
    <glyph glyph-name="A" unicode="A" horiz-adv-x="640" 
d="M58 0h-23l285 709l285 -709h-23l-85 211h-354zM320 653l-169 -422h338z" />
    <glyph glyph-name="B" unicode="B" horiz-adv-x="583" 
d="M329 0h-229v697h202q72 0 119 -47q48 -46 48 -119q0 -54 -27.5 -95t-74.5 -57q68 -11 110 -63t42 -126q0 -80 -55 -135t-135 -55zM121 677v-291h180q64 0 105 41q42 41 42 103q0 64 -41 105q-40 42 -106 42h-180zM121 366v-346h207q71 0 120 49t49 121q0 77 -49 126
q-50 50 -127 50h-200z" />
    <glyph glyph-name="C" unicode="C" horiz-adv-x="706" 
d="M415 707q123 0 221 -72v-25q-94 77 -221 77q-145 0 -242 -97q-96 -98 -96 -242t96 -242q97 -96 242 -96q127 0 221 77v-25q-98 -72 -221 -72q-153 0 -257 102q-103 103 -103 256t103 256t257 103z" />
    <glyph glyph-name="D" unicode="D" horiz-adv-x="714" 
d="M297 0h-197v697h196q164 0 262 -96t98 -253q0 -158 -98 -253t-261 -95zM121 677v-657h174q156 0 248 89q91 90 91 239q0 150 -92 239q-92 90 -248 90h-173z" />
    <glyph glyph-name="E" unicode="E" horiz-adv-x="536" 
d="M472 0h-372v697h365v-20h-344v-298h325v-20h-325v-339h351v-20z" />
    <glyph glyph-name="F" unicode="F" horiz-adv-x="478" 
d="M121 0h-21v697h320v-20h-299v-299h274v-20h-274v-358z" />
    <glyph glyph-name="G" unicode="G" horiz-adv-x="734" 
d="M55 348q0 154 102 256q103 103 254 103q105 0 194 -51v-23q-87 54 -194 54q-143 0 -239 -97q-95 -98 -95 -242t95 -242q96 -96 239 -96q139 0 234 84v248h-247v20h268v-277q-107 -95 -255 -95q-152 0 -254 102q-102 104 -102 256z" />
    <glyph glyph-name="H" unicode="H" horiz-adv-x="687" 
d="M121 0h-21v697h21v-317h445v317h21v-697h-21v360h-445v-360z" />
    <glyph glyph-name="I" unicode="I" horiz-adv-x="229" 
d="M125 0h-21v697h21v-697z" />
    <glyph glyph-name="J" unicode="J" horiz-adv-x="327" 
d="M24 0v22q26 -10 62 -10q68 0 95 37.5t27 123.5v524h21v-523q0 -98 -31 -140.5t-112 -42.5q-30 0 -62 9z" />
    <glyph glyph-name="K" unicode="K" horiz-adv-x="563" 
d="M121 0h-21v697h21v-328l360 328h30l-368 -335l377 -362h-31l-368 354v-354z" />
    <glyph glyph-name="L" unicode="L" horiz-adv-x="484" 
d="M437 0h-337v697h21v-677h316v-20z" />
    <glyph glyph-name="M" unicode="M" horiz-adv-x="818" 
d="M121 0h-21v708l309 -548l309 548v-708h-21v626l-288 -509l-288 509v-626z" />
    <glyph glyph-name="N" unicode="N" horiz-adv-x="711" 
d="M121 0h-21v709l490 -658v646h21v-709l-490 658v-646z" />
    <glyph glyph-name="O" unicode="O" horiz-adv-x="823" 
d="M55 348q0 152 103 255q104 104 254 104q149 0 253 -104q103 -103 103 -255q0 -153 -103 -256q-103 -102 -253 -102t-254 102q-103 103 -103 256zM76 348q0 -144 96 -242q96 -96 240 -96t239 96q96 97 96 242q0 144 -97 241q-96 98 -238 98q-141 0 -239 -98
q-97 -97 -97 -241z" />
    <glyph glyph-name="P" unicode="P" horiz-adv-x="537" 
d="M121 0h-21v697h177q95 0 151 -59q55 -58 55 -140q0 -87 -57 -144q-56 -57 -149 -57h-156v-297zM121 677v-360h156q88 0 136 53q49 53 49 128q0 73 -49 125q-49 54 -136 54h-156z" />
    <glyph glyph-name="Q" unicode="Q" horiz-adv-x="822" 
d="M54 348q0 152 103 255q104 104 254 104q149 0 253 -104q103 -103 103 -255q0 -150 -104 -252l89 -96h-26l-78 83q-98 -93 -237 -93q-151 0 -254 102q-103 103 -103 256zM75 348q0 -144 96 -242q96 -96 240 -96q134 0 223 88l-187 202h26l176 -189q97 97 97 237
q0 144 -97 241q-96 98 -238 98q-141 0 -239 -98q-97 -97 -97 -241z" />
    <glyph glyph-name="R" unicode="R" horiz-adv-x="573" 
d="M121 0h-21v697h206q85 0 141 -55q57 -56 57 -138q0 -68 -39 -119t-105 -68l172 -317h-24l-169 312q-22 -2 -50 -2h-168v-310zM121 677v-347h184q78 0 127 49q51 49 51 125q0 74 -51 123q-50 50 -126 50h-185z" />
    <glyph glyph-name="S" unicode="S" horiz-adv-x="528" 
d="M54 86v29q81 -105 210 -105q90 0 141 42.5t51 115.5q0 72 -48 114q-26 24 -57 43q-29 18 -87 48q-87 45 -124 86t-37 95q0 71 46 112t126 41q83 0 133 -47v-27q-50 54 -136 54q-69 0 -108.5 -36t-39.5 -97q0 -48 33.5 -84t114.5 -78q117 -61 161 -106q44 -44 44 -118
q0 -81 -56.5 -129.5t-154.5 -48.5q-132 0 -212 96z" />
    <glyph glyph-name="T" unicode="T" horiz-adv-x="534" 
d="M277 0h-21v677h-218v20h457v-20h-218v-677z" />
    <glyph glyph-name="U" unicode="U" horiz-adv-x="655" 
d="M95 220v477h21v-475q0 -99 56.5 -154.5t155.5 -55.5t155.5 55.5t56.5 154.5v475h21v-477q0 -107 -64 -168q-63 -60 -169 -60t-170 60q-63 62 -63 168z" />
    <glyph glyph-name="V" unicode="V" horiz-adv-x="624" 
d="M582 697l-270 -709l-270 709h23l247 -652l247 652h23z" />
    <glyph glyph-name="W" unicode="W" horiz-adv-x="936" 
d="M468 641l-212 -654l-221 710h22l200 -641l211 654l211 -654l200 641h22l-221 -710z" />
    <glyph glyph-name="X" unicode="X" horiz-adv-x="623" 
d="M75 0h-25l249 362l-237 335h25l225 -317l225 317h25l-237 -335l249 -362h-25l-237 344z" />
    <glyph glyph-name="Y" unicode="Y" horiz-adv-x="567" 
d="M294 0h-21v303l-241 394h24l227 -371l228 371h24l-241 -394v-303z" />
    <glyph glyph-name="Z" unicode="Z" horiz-adv-x="613" 
d="M562 0h-541l515 677h-435v20h476l-515 -677h500v-20z" />
    <glyph glyph-name="bracketleft" unicode="[" horiz-adv-x="261" 
d="M113 677v-850h143v-20h-164v890h164v-20h-143z" />
    <glyph glyph-name="backslash" unicode="\" horiz-adv-x="389" 
d="M370 -136h-22l-314 859h23z" />
    <glyph glyph-name="bracketright" unicode="]" horiz-adv-x="261" 
d="M6 -193v20h143v850h-143v20h164v-890h-164z" />
    <glyph glyph-name="asciicircum" unicode="^" horiz-adv-x="536" 
d="M54 350h-22l236 373l236 -373h-22l-214 338z" />
    <glyph glyph-name="underscore" unicode="_" horiz-adv-x="322" 
d="M4 -193v20h314v-20h-314z" />
    <glyph glyph-name="grave" unicode="`" horiz-adv-x="554" 
d="M293 552h-18l-75 145h25z" />
    <glyph glyph-name="a" unicode="a" horiz-adv-x="608" 
d="M43 252q0 112 73 186q73 76 180 76q79 0 140 -41t86 -111v142h21v-504h-21v142q-25 -70 -86 -111t-140 -41q-106 0 -180 75q-73 74 -73 187zM64 252q0 -102 66 -173q68 -69 166 -69q97 0 162 68t65 174t-65 174t-162 68q-98 0 -166 -71q-66 -71 -66 -171z" />
    <glyph glyph-name="b" unicode="b" 
d="M86 0h-21v697h21v-335q25 70 86 111t140 41q106 0 179 -76q74 -76 74 -186q0 -113 -73 -187q-74 -75 -180 -75q-79 0 -140 41t-86 111v-142zM312 10q99 0 165 69q67 70 67 173q0 101 -67 171q-66 71 -165 71q-98 0 -163 -68q-64 -67 -64 -174t64 -174q65 -68 163 -68z
" />
    <glyph glyph-name="c" unicode="c" horiz-adv-x="525" 
d="M305 514q103 0 176 -67v-25q-75 72 -176 72q-103 0 -173 -70q-69 -69 -69 -172q0 -102 69 -173q70 -69 173 -69q101 0 176 72v-25q-73 -67 -176 -67q-111 0 -187 75q-76 76 -76 187t76 186q76 76 187 76z" />
    <glyph glyph-name="d" unicode="d" horiz-adv-x="608" 
d="M43 252q0 112 73 186q73 76 180 76q79 0 140 -41t86 -111v335h21v-697h-21v142q-25 -70 -86 -111t-140 -41q-106 0 -180 75q-73 74 -73 187zM64 252q0 -102 66 -173q68 -69 166 -69q97 0 162 68t65 174t-65 174t-162 68q-98 0 -166 -71q-66 -71 -66 -171z" />
    <glyph glyph-name="e" unicode="e" horiz-adv-x="566" 
d="M43 251v1q0 112 69 187q70 75 171 75q99 0 167 -74q69 -74 69 -179q0 -11 -1 -14h-454q2 -103 63 -171q63 -67 157 -67q59 0 111.5 24t82.5 62v-29q-75 -77 -194 -77q-103 0 -172 74q-69 75 -69 188zM65 267h432q-1 95 -64 161q-61 66 -150 66q-90 0 -153 -66
q-64 -65 -65 -161z" />
    <glyph glyph-name="f" unicode="f" horiz-adv-x="293" 
d="M127 0h-21v484h-74v20h74v53q0 81 39 119q31 30 87 30q28 0 39 -4v-19q-15 3 -41 3q-103 0 -103 -127v-55h131v-20h-131v-484z" />
    <glyph glyph-name="g" unicode="g" horiz-adv-x="608" 
d="M72 -130v28q70 -82 225 -82q102 0 159 48q66 54 66 191v87q-25 -69 -86 -109.5t-140 -40.5q-106 0 -180 74q-73 74 -73 186t73 186q73 76 180 76q79 0 140 -41t86 -111v142h21v-440q0 -81 -15.5 -131.5t-57.5 -84.5q-64 -52 -173 -52q-148 0 -225 74zM64 252
q0 -102 66 -171q68 -69 166 -69t162 67q65 68 65 173q0 106 -65 174t-162 68q-98 0 -166 -71q-66 -71 -66 -171z" />
    <glyph glyph-name="h" unicode="h" horiz-adv-x="537" 
d="M86 0h-21v697h21v-327q15 64 65 103.5t125 39.5q87 0 142 -58t55 -157v-298h-21v294q0 92 -49 145.5t-130 53.5q-87 0 -137 -63.5t-50 -171.5v-258z" />
    <glyph glyph-name="i" unicode="i" horiz-adv-x="153" 
d="M76 622q-19 0 -19 19t19 18.5t19 -18.5q0 -19 -19 -19zM87 0h-21v504h21v-504z" />
    <glyph glyph-name="j" unicode="j" horiz-adv-x="151" 
d="M75 622q-19 0 -19 19t19 19q7 0 13 -6t6 -13q0 -19 -19 -19zM65 -91v595h21v-595q0 -61 -24 -86.5t-74 -25.5q-23 0 -41 3v20q19 -3 42 -3q41 0 58.5 21.5t17.5 70.5z" />
    <glyph glyph-name="k" unicode="k" horiz-adv-x="414" 
d="M86 0h-21v697h21v-424l260 231h29l-268 -239l292 -265h-29l-284 257v-257z" />
    <glyph glyph-name="l" unicode="l" horiz-adv-x="153" 
d="M87 0h-21v697h21v-697z" />
    <glyph glyph-name="m" unicode="m" horiz-adv-x="850" 
d="M86 0h-21v504h21v-134q11 65 59 104t118 39q64 0 107.5 -39.5t57.5 -110.5q32 150 178 150q87 0 133.5 -56t46.5 -159v-298h-21v294q0 96 -42 147.5t-122 51.5q-75 0 -119.5 -56t-44.5 -152v-285h-21v286q0 97 -42 152t-116 55q-81 0 -126.5 -63t-45.5 -172v-258z" />
    <glyph glyph-name="n" unicode="n" horiz-adv-x="545" 
d="M86 0h-21v504h21v-134q13 63 65.5 103t128.5 40q90 0 145 -58q56 -59 56 -157v-298h-21v294q0 91 -50.5 145t-132.5 54q-89 0 -140 -63.5t-51 -171.5v-258z" />
    <glyph glyph-name="o" unicode="o" 
d="M303 514q113 0 186 -75q75 -75 75 -187t-75 -187t-186 -75q-109 0 -185 75q-75 75 -75 187t75 187t185 75zM303 10q103 0 171 69q69 71 69 173q0 103 -69 172q-67 70 -171 70q-102 0 -171 -70q-68 -70 -68 -172t68 -173q69 -69 171 -69z" />
    <glyph glyph-name="p" unicode="p" horiz-adv-x="608" 
d="M86 142v-335h-21v697h21v-142q25 70 86 111t140 41q106 0 180 -75q73 -74 73 -187q0 -110 -74 -187q-73 -75 -179 -75q-79 0 -140 41t-86 111zM312 10q99 0 165 70q67 70 67 172q0 104 -67 172q-66 70 -165 70q-98 0 -163 -68q-64 -67 -64 -174t64 -174q65 -68 163 -68z
" />
    <glyph glyph-name="q" unicode="q" horiz-adv-x="608" 
d="M43 252q0 113 73 187q74 75 180 75q79 0 140 -41t86 -111v142h21v-697h-21v335q-25 -70 -86 -111t-140 -41q-106 0 -180 75q-73 76 -73 187zM64 252q0 -102 66 -172q67 -70 166 -70q97 0 162 68t65 174t-65 174t-162 68q-99 0 -166 -70q-66 -69 -66 -172z" />
    <glyph glyph-name="r" unicode="r" horiz-adv-x="322" 
d="M86 0h-21v504h21v-137q5 51 56 98q52 48 134 48q10 0 15 -1v-19h-10q-102 -1 -149 -69q-46 -67 -46 -169v-255z" />
    <glyph glyph-name="s" unicode="s" horiz-adv-x="398" 
d="M37 64v30q55 -84 165 -84q67 0 105 30t38 82q0 37 -25 70q-8 12 -33 27q-13 8 -38 22q-20 11 -51 26q-69 34 -97 63.5t-28 69.5q0 52 35.5 83t96.5 31q63 0 106 -38v-26q-39 44 -106 44q-52 0 -81.5 -25t-29.5 -69q0 -33 24.5 -58t82.5 -53q94 -46 130 -79q35 -32 35 -88
q0 -59 -43.5 -95.5t-120.5 -36.5q-109 0 -165 74z" />
    <glyph glyph-name="t" unicode="t" horiz-adv-x="275" 
d="M123 0h-21v484h-64v20h64v193h21v-193h126v-20h-126v-484z" />
    <glyph glyph-name="u" unicode="u" horiz-adv-x="526" 
d="M59 186v318h21v-316q0 -85 48 -131.5t135 -46.5t135 46.5t48 131.5v316h21v-318q0 -93 -54 -144.5t-150 -51.5t-150 51.5t-54 144.5z" />
    <glyph glyph-name="v" unicode="v" horiz-adv-x="497" 
d="M474 504l-226 -519l-225 519h23l202 -469l203 469h23z" />
    <glyph glyph-name="w" unicode="w" horiz-adv-x="762" 
d="M381 460l-173 -475l-184 519h21l164 -459l172 473l172 -473l166 459h21l-186 -519z" />
    <glyph glyph-name="x" unicode="x" horiz-adv-x="465" 
d="M57 0h-23l187 265l-171 239h23l159 -222l161 222h23l-172 -238l188 -266h-23l-176 249z" />
    <glyph glyph-name="y" unicode="y" horiz-adv-x="481" 
d="M140 -193l82 194l-199 503h23l187 -477l202 477h23l-296 -697h-22z" />
    <glyph glyph-name="z" unicode="z" horiz-adv-x="486" 
d="M433 0h-428l394 485h-341v19h383l-394 -485h386v-19z" />
    <glyph glyph-name="braceleft" unicode="{" horiz-adv-x="285" 
d="M118 -75v195q0 49 -8.5 73.5t-31.5 38.5q-20 12 -42 12v16q22 0 42 12q23 14 31.5 38.5t8.5 73.5v195q0 118 97 118h22v-17h-20q-78 0 -78 -97v-173q0 -106 -28 -135q-15 -18 -47 -23q32 -5 47 -23q28 -29 28 -135v-173q0 -97 78 -97h20v-17h-22q-97 0 -97 118z" />
    <glyph glyph-name="bar" unicode="|" horiz-adv-x="211" 
d="M116 -25h-21v747h21v-747z" />
    <glyph glyph-name="braceright" unicode="}" horiz-adv-x="285" 
d="M146 -79v173q0 106 28 135q15 18 47 23q-32 5 -47 23q-28 29 -28 135v173q0 97 -78 97h-20v17h22q97 0 97 -118v-195q0 -49 8.5 -73.5t31.5 -38.5q19 -12 42 -12v-16q-23 0 -42 -12q-23 -14 -31.5 -38.5t-8.5 -73.5v-195q0 -118 -97 -118h-22v17h20q78 0 78 97z" />
    <glyph glyph-name="asciitilde" unicode="~" horiz-adv-x="397" 
d="M57 319l-16 3q6 28 28 44.5t55 16.5q32 0 81 -27t77 -27q56 0 68 45l16 -1q-14 -63 -83 -63q-34 0 -83 27q-50 27 -76 27q-56 0 -67 -45z" />
    <glyph glyph-name="exclamdown" unicode="&#xa1;" horiz-adv-x="202" 
d="M83 483q0 19 19 19t19 -19q0 -18 -19 -18.5t-19 18.5zM115 -201h-26l4 542h18z" />
    <glyph glyph-name="cent" unicode="&#xa2;" horiz-adv-x="549" 
d="M232 0h-19l22 100q-81 24 -133 92q-51 69 -51 159q0 112 76 187q77 75 187 75q5 0 35 -2l19 86h19l-20 -89q83 -16 138 -76l-13 -14q-52 55 -129 70l-105 -473q27 -6 56 -6q107 0 178 75l13 -14q-73 -81 -191 -81q-31 0 -61 6zM240 120l104 471q-26 2 -30 2
q-103 0 -172 -70q-69 -69 -69 -172q0 -83 45.5 -145.5t121.5 -85.5z" />
    <glyph glyph-name="sterling" unicode="&#xa3;" horiz-adv-x="574" 
d="M517 0h-468v19h2q91 1 144 48q54 47 54 119q0 26 -10 52q-8 26 -18 44l-28 47h-108v20h95q-67 95 -67 165q0 79 56 135t135 56t135 -56t56 -135h-21q0 71 -50 121t-119 50q-71 0 -121 -50t-50 -121q0 -30 12 -61q11 -28 23 -51l35 -53h164v-20h-151q53 -83 53 -142
t-31 -102.5t-86 -64.5h364v-20z" />
    <glyph glyph-name="currency" unicode="&#xa4;" horiz-adv-x="666" 
d="M111 88l-14 14l76 78q-60 62 -60 153q0 93 60 154l-76 78l14 14l74 -80q62 57 148 57t148 -56l75 81l14 -14l-77 -79q61 -64 61 -155t-60 -154l76 -78l-14 -14l-75 80q-62 -56 -148 -56q-87 0 -148 57zM333 131q85 0 143 58t58 144t-58 144q-59 59 -143 59
q-83 0 -142 -59q-57 -59 -57 -144t57 -144q58 -58 142 -58z" />
    <glyph glyph-name="yen" unicode="&#xa5;" horiz-adv-x="565" 
d="M294 0h-21v284h-214v20h213l-57 93h-156v20h144l-172 280h24l228 -372l228 372h23l-171 -280h143v-20h-155l-57 -93h212v-20h-212v-284z" />
    <glyph glyph-name="brokenbar" unicode="&#xa6;" horiz-adv-x="211" 
d="M116 415h-21v282h21v-282zM116 0h-21v294h21v-294z" />
    <glyph glyph-name="section" unicode="&#xa7;" horiz-adv-x="509" 
d="M93 -51h21q0 -55 34 -95q34 -42 102 -42q58 0 96.5 34t38.5 88q0 59 -39 91q-22 19 -37 27q-15 9 -52 28q-117 59 -163 100q-55 49 -55 119q0 114 131 142q-41 28 -58.5 56t-17.5 73q0 61 44 102q43 40 112 40q71 0 114 -43.5t43 -113.5h-21q0 54 -35 95q-35 42 -101 42
q-59 0 -97 -34t-38 -88q0 -43 23 -76q8 -11 29 -27l33 -21l42 -22q129 -65 168 -103q51 -49 51 -116q0 -114 -131 -143q76 -40 76 -128q0 -62 -45 -102q-43 -40 -111 -40q-71 0 -114 43.5t-43 113.5zM263 101q3 -2 21 -11.5t23 -12.5q133 22 133 128q0 68 -61 114
q-36 28 -61 41q-19 12 -82 44l-43 22q-133 -22 -133 -127q0 -63 47 -104q47 -39 156 -94z" />
    <glyph glyph-name="dieresis" unicode="&#xa8;" horiz-adv-x="622" 
d="M414 622q-19 0 -19 19t19 18.5t19 -18.5q0 -19 -19 -19zM209 622q-19 0 -19 19t19 19q7 0 13 -6t6 -13q0 -19 -19 -19z" />
    <glyph glyph-name="copyright" unicode="&#xa9;" horiz-adv-x="806" 
d="M403 704q149 0 251 -103q102 -104 102 -253q0 -151 -102 -253t-251 -102t-251 102q-102 103 -102 253q0 149 101 253q102 103 252 103zM71 348q0 -141 95 -239q96 -96 237 -96t236 96q96 97 96 239q0 143 -96 239q-94 97 -236 97q-141 0 -237 -97q-95 -97 -95 -239z
M410 551q88 0 150 -62l-12 -14q-59 56 -138 56q-78 0 -130 -52t-52 -129q0 -78 52 -130t130 -52q80 0 138 55l12 -14q-61 -61 -150 -61q-87 0 -145 58t-58 144t58 143q58 58 145 58z" />
    <glyph glyph-name="ordfeminine" unicode="&#xaa;" horiz-adv-x="539" 
d="M114 420q0 104 145 111q63 3 85.5 16.5t22.5 54.5q0 35 -27.5 57.5t-71.5 22.5q-74 0 -109 -69l-16 11q37 78 125 78q55 0 87.5 -28.5t32.5 -71.5v-228q0 -30 23 -30q8 0 18 2v-18q-11 -4 -23 -4q-39 0 -39 50v5q-29 -62 -133 -62q-56 0 -88 28.5t-32 74.5zM135 421
q0 -38 25.5 -61t74.5 -23q65 0 98.5 30t33.5 81v97q-11 -17 -34.5 -24t-73.5 -10q-124 -6 -124 -90z" />
    <glyph glyph-name="guillemotleft" unicode="&#xab;" horiz-adv-x="317" 
d="M277 78h-24l-110 175l110 175h24l-110 -175zM176 78h-23l-110 175l110 175h23l-110 -175z" />
    <glyph glyph-name="logicalnot" unicode="&#xac;" horiz-adv-x="528" 
d="M458 382h-408v20h429v-197h-21v177z" />
    <glyph glyph-name="registered" unicode="&#xae;" horiz-adv-x="416" 
d="M207 706q67 0 113 -45q46 -43 46 -112q0 -68 -46 -113q-47 -44 -113 -44t-112 44q-45 45 -45 113q0 69 45 112q47 45 112 45zM109 450q40 -38 98 -38t98 38q40 39 40 99t-40 99q-39 39 -98 39t-98 -39q-38 -40 -38 -99t38 -99zM173 460h-21v183h63q26 0 41.5 -16
t15.5 -40q0 -39 -35 -54l44 -73h-25l-41 68h-42v-68zM173 623v-74h42q15 0 25 11t10 26q0 16 -10 26.5t-25 10.5h-42z" />
    <glyph glyph-name="overscore" unicode="&#xaf;" horiz-adv-x="636" 
d="M465 677h-294v20h294v-20z" />
    <glyph glyph-name="degree" unicode="&#xb0;" horiz-adv-x="337" 
d="M168 476q-46 0 -79 33t-33 79t33 79t79 33q47 0 80 -33q34 -33 34 -79t-34 -79q-33 -33 -80 -33zM168 496q38 0 65.5 27.5t27.5 64.5t-27.5 64.5t-65.5 27.5q-37 0 -64 -27.5t-27 -64.5t27 -64.5t64 -27.5z" />
    <glyph glyph-name="plusminus" unicode="&#xb1;" horiz-adv-x="400" 
d="M210 190h-21v149h-139v20h139v147h21v-147h139v-20h-139v-149zM349 49h-299v20h299v-20z" />
    <glyph glyph-name="twosuperior" unicode="&#xb2;" horiz-adv-x="346" 
d="M287 328h-239l182 211q27 31 27 65q0 33 -24 57t-58 24t-58 -24.5t-24 -59.5h-21q0 43 30 73.5t73 30.5t73 -30q30 -29 30 -71t-31 -78l-155 -178h195v-20z" />
    <glyph glyph-name="threesuperior" unicode="&#xb3;" horiz-adv-x="363" 
d="M173 321q-41 0 -74.5 22.5t-48.5 59.5l19 7q15 -31 42 -50t62 -19q49 0 80.5 29t31.5 75q0 39 -29.5 67t-72.5 28q-42 0 -75 -14l143 151h-175v20h219l-135 -142q12 4 33 4q49 0 80 -34q33 -33 33 -80q0 -56 -37.5 -90t-95.5 -34z" />
    <glyph glyph-name="acute" unicode="&#xb4;" horiz-adv-x="554" 
d="M277 552h-18l68 145h25z" />
    <glyph glyph-name="mu" unicode="&#xb5;" horiz-adv-x="528" 
d="M80 134v-327h-21v697h21v-258q0 -108 50 -171.5t139 -63.5q81 0 130 53.5t49 145.5v294h21v-298q0 -99 -55 -157t-142 -58q-75 0 -127 40t-65 103z" />
    <glyph glyph-name="paragraph" unicode="&#xb6;" horiz-adv-x="421" 
d="M243 0h-21v303q-77 4 -132 61q-54 57 -54 136q0 82 57 139q58 58 140 58h172v-20h-67v-677h-21v677h-74v-677z" />
    <glyph glyph-name="middot" unicode="&#xb7;" horiz-adv-x="141" 
d="M71 233q-19 0 -19 19t19 19q18 0 18.5 -19t-18.5 -19z" />
    <glyph glyph-name="cedilla" unicode="&#xb8;" horiz-adv-x="545" 
d="M242 -81l36 81h20l-29 -64q3 1 12 1q24 0 39.5 -14t15.5 -37q0 -24 -16 -37.5t-43 -13.5q-34 0 -58 21l10 14q22 -16 47 -16q17 0 28 8.5t11 21.5q0 37 -50 37q-5 0 -23 -2z" />
    <glyph glyph-name="onesuperior" unicode="&#xb9;" horiz-adv-x="229" 
d="M133 328h-21v349h-48v20h69v-369z" />
    <glyph glyph-name="ordmasculine" unicode="&#xba;" horiz-adv-x="472" 
d="M41 512q0 79 56 137q57 57 139 57t138 -57q57 -57 57 -137q0 -81 -57 -138q-58 -56 -138 -56t-138 56q-57 57 -57 138zM410 512q0 71 -51 122q-51 52 -123 52t-123 -52q-51 -51 -51 -122q0 -72 51 -123t123 -51t123 51t51 123z" />
    <glyph glyph-name="guillemotright" unicode="&#xbb;" horiz-adv-x="317" 
d="M167 78h-23l110 175l-110 175h23l110 -175zM67 78h-24l110 175l-110 175h24l110 -175z" />
    <glyph glyph-name="onequarter" unicode="&#xbc;" horiz-adv-x="634" 
d="M63 0h-27l433 697h27zM121 328h-21v349h-48v20h69v-369zM547 90h-226l136 279h22l-125 -259h193v90h21v-200h-21v90z" />
    <glyph glyph-name="onehalf" unicode="&#xbd;" horiz-adv-x="659" 
d="M63 0h-27l433 697h27zM121 328h-21v349h-48v20h69v-369zM600 0h-239l182 211q27 32 27 65t-24 57t-58 24t-58 -24.5t-24 -59.5h-21q0 43 30 73.5t73 30.5t73 -30q30 -29 30 -71t-31 -78l-155 -178h195v-20z" />
    <glyph glyph-name="threequarters" unicode="&#xbe;" horiz-adv-x="781" 
d="M220 0h-27l433 697h27zM176 321q-41 0 -74.5 22.5t-48.5 59.5l19 7q15 -31 42 -50t62 -19q49 0 80.5 29t31.5 75q0 39 -29.5 67t-72.5 28q-42 0 -75 -14l143 151h-175v20h219l-135 -142q12 4 33 4q49 0 80 -34q33 -33 33 -80q0 -56 -37.5 -90t-95.5 -34zM694 90h-226
l136 279h22l-125 -259h193v90h21v-200h-21v90z" />
    <glyph glyph-name="questiondown" unicode="&#xbf;" horiz-adv-x="385" 
d="M197 465q-18 0 -18.5 19t18.5 19t19 -19t-19 -19zM43 -77q0 68 36 108q17 19 36 35q24 20 47 35q33 24 47 35q66 51 66 103q0 41 -25.5 63.5t-73.5 22.5q-39 0 -61 -16v21q21 15 61 15q57 0 88.5 -28t31.5 -78q0 -61 -70 -116l-48 -34q-32 -21 -46 -34q-74 -58 -68 -132
q0 -16 9 -40q30 -70 129 -70q73 0 132 58v-26q-55 -52 -132 -52q-100 0 -134 55q-25 42 -25 75z" />
    <glyph glyph-name="Agrave" unicode="&#xc0;" horiz-adv-x="640" 
d="M58 0h-23l285 709l285 -709h-23l-85 211h-354zM320 653l-169 -422h338zM340 745h-18l-75 145h25z" />
    <glyph glyph-name="Aacute" unicode="&#xc1;" horiz-adv-x="640" 
d="M58 0h-23l285 709l285 -709h-23l-85 211h-354zM320 653l-169 -422h338zM315 745h-18l68 145h25z" />
    <glyph glyph-name="Acircumflex" unicode="&#xc2;" horiz-adv-x="640" 
d="M58 0h-23l285 709l285 -709h-23l-85 211h-354zM320 653l-169 -422h338zM204 769h-27l143 133l143 -133h-27l-116 107z" />
    <glyph glyph-name="Atilde" unicode="&#xc3;" horiz-adv-x="640" 
d="M58 0h-23l285 709l285 -709h-23l-85 211h-354zM320 653l-169 -422h338zM197 774l-15 1q4 28 23 45.5t47 17.5q30 0 70 -25q40 -24 64 -24q48 0 57 53l15 -1q-4 -33 -23 -52t-48 -19q-31 0 -71 24q-38 25 -63 25q-45 0 -56 -45z" />
    <glyph glyph-name="Adieresis" unicode="&#xc4;" horiz-adv-x="640" 
d="M423 771q-19 0 -19 19t19 19q18 0 18.5 -19t-18.5 -19zM218 771q-19 0 -19 19q0 12 12 17.5t20 -4.5q10 -8 4.5 -20t-17.5 -12zM58 0h-23l285 709l285 -709h-23l-85 211h-354zM320 653l-169 -422h338z" />
    <glyph glyph-name="Aring" unicode="&#xc5;" horiz-adv-x="640" 
d="M58 0h-23l274 698q-22 4 -37 21t-15 40q0 25 18.5 43.5t44.5 18.5t44.5 -18.5t18.5 -43.5q0 -22 -15 -39.5t-38 -21.5l275 -698h-23l-84 211h-356zM290 729q13 -12 30 -12t29 12q13 13 13 30t-13 29q-12 13 -29 13t-30 -13q-12 -12 -12 -29t12 -30zM320 668l-170 -437
h340z" />
    <glyph glyph-name="AE" unicode="&#xc6;" horiz-adv-x="960" 
d="M51 0h-27l536 697h330v-20h-316v-298h297v-20h-297v-339h323v-20h-344v196h-351zM553 654l-336 -438h336v438z" />
    <glyph glyph-name="Ccedilla" unicode="&#xc7;" horiz-adv-x="707" 
d="M332 -144l10 14q22 -16 47 -16q17 0 28 8.5t11 21.5q0 37 -50 37q-1 0 -23 -2l32 72q-143 11 -237 111t-94 246q0 153 103 256t257 103q124 0 221 -72v-25q-94 77 -221 77q-145 0 -242 -97q-96 -98 -96 -242t96 -242q98 -96 242 -96q127 0 221 77v-25q-97 -72 -221 -72
h-10l-24 -54q3 1 12 1q24 0 39.5 -14t15.5 -37q0 -24 -16 -37.5t-43 -13.5q-34 0 -58 21z" />
    <glyph glyph-name="Egrave" unicode="&#xc8;" horiz-adv-x="536" 
d="M472 0h-372v697h365v-20h-344v-298h325v-20h-325v-339h351v-20zM304 745h-18l-75 145h25z" />
    <glyph glyph-name="Eacute" unicode="&#xc9;" horiz-adv-x="536" 
d="M472 0h-372v697h365v-20h-344v-298h325v-20h-325v-339h351v-20zM276 745h-18l68 145h25z" />
    <glyph glyph-name="Ecircumflex" unicode="&#xca;" horiz-adv-x="536" 
d="M166 769h-27l143 133l143 -133h-27l-116 107zM472 0h-372v697h365v-20h-344v-298h325v-20h-325v-339h351v-20z" />
    <glyph glyph-name="Edieresis" unicode="&#xcb;" horiz-adv-x="536" 
d="M388 775q-19 0 -19 19q0 12 12 17.5t20 -4.5q10 -8 4.5 -20t-17.5 -12zM183 775q-19 0 -19 19t19 19q18 0 18.5 -19t-18.5 -19zM472 0h-372v697h365v-20h-344v-298h325v-20h-325v-339h351v-20z" />
    <glyph glyph-name="Igrave" unicode="&#xcc;" horiz-adv-x="229" 
d="M123 745h-18l-75 145h25zM125 0h-21v697h21v-697z" />
    <glyph glyph-name="Iacute" unicode="&#xcd;" horiz-adv-x="229" 
d="M122 745h-18l68 145h25zM125 0h-21v697h21v-697z" />
    <glyph glyph-name="Icircumflex" unicode="&#xce;" horiz-adv-x="229" 
d="M115 873l-100 -104h-27l127 133l127 -133h-27zM125 0h-21v697h21v-697z" />
    <glyph glyph-name="Idieresis" unicode="&#xcf;" horiz-adv-x="229" 
d="M195 775q-19 0 -19 19t19 19q18 0 18.5 -19t-18.5 -19zM34 775q-19 0 -19 19q0 12 12 17.5t20 -4.5q10 -8 4.5 -20t-17.5 -12zM125 0h-21v697h21v-697z" />
    <glyph glyph-name="Eth" unicode="&#xd0;" horiz-adv-x="714" 
d="M297 0h-197v349h-56v20h56v328h196q164 0 262 -96q98 -95 98 -253q0 -159 -97 -253q-98 -95 -262 -95zM121 349v-329h175q156 0 248 89q91 90 91 239q0 150 -92 239q-91 90 -248 90h-174v-308h145v-20h-145z" />
    <glyph glyph-name="Ntilde" unicode="&#xd1;" horiz-adv-x="711" 
d="M233 774l-15 1q4 28 23 45.5t47 17.5q31 0 69 -25t65 -25q48 0 57 55l15 -2q-4 -33 -23 -52t-49 -19q-31 0 -69 25q-37 25 -64 25q-22 0 -37 -12t-19 -34zM121 0h-21v709l490 -658v646h21v-709l-490 658v-646z" />
    <glyph glyph-name="Ograve" unicode="&#xd2;" horiz-adv-x="823" 
d="M55 348q0 152 103 255q104 104 254 104q149 0 253 -104q103 -103 103 -255q0 -153 -103 -256q-103 -102 -253 -102t-254 102q-103 103 -103 256zM76 348q0 -144 96 -242q96 -96 240 -96t239 96q96 97 96 242q0 144 -97 241q-96 98 -238 98q-141 0 -239 -98
q-97 -97 -97 -241zM420 745h-18l-75 145h25z" />
    <glyph glyph-name="Oacute" unicode="&#xd3;" horiz-adv-x="823" 
d="M55 348q0 152 103 255q104 104 254 104q149 0 253 -104q103 -103 103 -255q0 -153 -103 -256q-103 -102 -253 -102t-254 102q-103 103 -103 256zM76 348q0 -144 96 -242q96 -96 240 -96t239 96q96 97 96 242q0 144 -97 241q-96 98 -238 98q-141 0 -239 -98
q-97 -97 -97 -241zM410 745h-18l68 145h25z" />
    <glyph glyph-name="Ocircumflex" unicode="&#xd4;" horiz-adv-x="823" 
d="M296 769h-27l143 133l143 -133h-27l-116 107zM55 348q0 152 103 255q104 104 254 104q149 0 253 -104q103 -103 103 -255q0 -153 -103 -256q-103 -102 -253 -102t-254 102q-103 103 -103 256zM76 348q0 -144 96 -242q96 -96 240 -96t239 96q96 97 96 242q0 144 -97 241
q-96 98 -238 98q-141 0 -239 -98q-97 -97 -97 -241z" />
    <glyph glyph-name="Otilde" unicode="&#xd5;" horiz-adv-x="823" 
d="M288 774l-16 1q5 28 24.5 45.5t46.5 17.5q30 0 68 -25t65 -25q50 0 57 55l16 -2q-5 -34 -23.5 -52.5t-48.5 -18.5q-31 0 -69 25t-65 25q-21 0 -36 -12.5t-19 -33.5zM55 348q0 152 103 255q104 104 254 104q149 0 253 -104q103 -103 103 -255q0 -153 -103 -256
q-103 -102 -253 -102t-254 102q-103 103 -103 256zM76 348q0 -144 96 -242q96 -96 240 -96t239 96q96 97 96 242q0 144 -97 241q-96 98 -238 98q-141 0 -239 -98q-97 -97 -97 -241z" />
    <glyph glyph-name="Odieresis" unicode="&#xd6;" horiz-adv-x="823" 
d="M515 771q-19 0 -19 19t19 19q18 0 18.5 -19t-18.5 -19zM310 771q-19 0 -19 19q0 12 12 17.5t20 -4.5q10 -8 4.5 -20t-17.5 -12zM55 348q0 152 103 255q104 104 254 104q149 0 253 -104q103 -103 103 -255q0 -153 -103 -256q-103 -102 -253 -102t-254 102
q-103 103 -103 256zM76 348q0 -144 96 -242q96 -96 240 -96t239 96q96 97 96 242q0 144 -97 241q-96 98 -238 98q-141 0 -239 -98q-97 -97 -97 -241z" />
    <glyph glyph-name="multiply" unicode="&#xd7;" horiz-adv-x="400" 
d="M200 320l-124 -124l-13 13l124 124l-123 124l13 14l123 -125l123 125l13 -14l-123 -124l124 -124l-13 -13z" />
    <glyph glyph-name="Oslash" unicode="&#xd8;" horiz-adv-x="823" 
d="M149 -25l-16 12l58 76q-64 49 -100 123.5t-36 161.5q0 152 103 255q104 104 254 104q118 0 212 -68l60 80l16 -13l-60 -80q61 -51 94.5 -123t33.5 -155q0 -153 -103 -256q-103 -102 -253 -102q-116 0 -205 62zM203 79l408 543q-88 65 -199 65q-141 0 -239 -98
q-97 -97 -97 -241q0 -83 33.5 -153t93.5 -116zM627 609l-408 -541q85 -58 193 -58q144 0 239 96q96 97 96 242q0 78 -31.5 146.5t-88.5 114.5z" />
    <glyph glyph-name="Ugrave" unicode="&#xd9;" horiz-adv-x="655" 
d="M95 220v477h21v-475q0 -99 56.5 -154.5t155.5 -55.5t155.5 55.5t56.5 154.5v475h21v-477q0 -107 -64 -168q-63 -60 -169 -60t-170 60q-63 62 -63 168zM350 745h-18l-75 145h25z" />
    <glyph glyph-name="Uacute" unicode="&#xda;" horiz-adv-x="655" 
d="M95 220v477h21v-475q0 -99 56.5 -154.5t155.5 -55.5t155.5 55.5t56.5 154.5v475h21v-477q0 -107 -64 -168q-63 -60 -169 -60t-170 60q-63 62 -63 168zM324 745h-18l68 145h25z" />
    <glyph glyph-name="Ucircumflex" unicode="&#xdb;" horiz-adv-x="655" 
d="M212 769h-27l143 133l143 -133h-27l-116 107zM95 220v477h21v-475q0 -99 56.5 -154.5t155.5 -55.5t155.5 55.5t56.5 154.5v475h21v-477q0 -107 -64 -168q-63 -60 -169 -60t-170 60q-63 62 -63 168z" />
    <glyph glyph-name="Udieresis" unicode="&#xdc;" horiz-adv-x="655" 
d="M431 771q-19 0 -19 19t19 19q18 0 18.5 -19t-18.5 -19zM226 771q-19 0 -19 19q0 12 12 17.5t20 -4.5q10 -8 4.5 -20t-17.5 -12zM95 220v477h21v-475q0 -99 56.5 -154.5t155.5 -55.5t155.5 55.5t56.5 154.5v475h21v-477q0 -107 -64 -168q-63 -60 -169 -60t-170 60
q-63 62 -63 168z" />
    <glyph glyph-name="Yacute" unicode="&#xdd;" horiz-adv-x="567" 
d="M294 0h-21v303l-241 394h24l227 -371l228 371h24l-241 -394v-303zM279 745h-18l68 145h25z" />
    <glyph glyph-name="Thorn" unicode="&#xde;" horiz-adv-x="438" 
d="M121 0h-21v697h21v-162h76q84 0 138 -55q54 -54 54 -135t-54 -137q-54 -54 -137 -54h-77v-154zM121 515v-341h76q74 0 122 48q49 49 49 123t-48 122t-124 48h-75z" />
    <glyph glyph-name="germandbls" unicode="&#xdf;" horiz-adv-x="539" 
d="M85 0h-21v551q0 64 45 109t108 45q64 0 108 -44t44 -107q0 -90 -77 -134h5q88 0 145 -63q58 -62 58 -151q0 -93 -66 -156t-164 -63q-21 0 -53 5v21q26 -6 53 -6q89 0 149 57t60 142q0 80 -56 139q-55 58 -145 58q-19 0 -24 -1q-18 -5 -37 -6v18q57 5 94.5 43.5t37.5 93.5
q0 56 -39 95q-38 39 -93 39t-94 -39q-38 -40 -38 -95v-551z" />
    <glyph glyph-name="agrave" unicode="&#xe0;" 
d="M43 252q0 112 73 186q73 76 180 76q79 0 140 -41t86 -111v142h21v-504h-21v142q-25 -70 -86 -111t-140 -41q-106 0 -180 75q-73 74 -73 187zM64 252q0 -102 66 -173q68 -69 166 -69q97 0 162 68t65 174t-65 174t-162 68q-98 0 -166 -71q-66 -71 -66 -171zM313 552h-18
l-75 145h25z" />
    <glyph glyph-name="aacute" unicode="&#xe1;" 
d="M43 252q0 112 73 186q73 76 180 76q79 0 140 -41t86 -111v142h21v-504h-21v142q-25 -70 -86 -111t-140 -41q-106 0 -180 75q-73 74 -73 187zM64 252q0 -102 66 -173q68 -69 166 -69q97 0 162 68t65 174t-65 174t-162 68q-98 0 -166 -71q-66 -71 -66 -171zM291 552h-18
l68 145h25z" />
    <glyph glyph-name="acircumflex" unicode="&#xe2;" 
d="M43 252q0 112 73 186q73 76 180 76q79 0 140 -41t86 -111v142h21v-504h-21v142q-25 -70 -86 -111t-140 -41q-106 0 -180 75q-73 74 -73 187zM64 252q0 -102 66 -173q68 -69 166 -69q97 0 162 68t65 174t-65 174t-162 68q-98 0 -166 -71q-66 -71 -66 -171zM187 576h-27
l143 133l143 -133h-27l-116 107z" />
    <glyph glyph-name="atilde" unicode="&#xe3;" horiz-adv-x="608" 
d="M43 252q0 112 73 186q73 76 180 76q79 0 140 -41t86 -111v142h21v-504h-21v142q-25 -70 -86 -111t-140 -41q-106 0 -180 75q-73 74 -73 187zM64 252q0 -102 66 -173q68 -69 166 -69q97 0 162 68t65 174t-65 174t-162 68q-98 0 -166 -71q-66 -71 -66 -171zM181 602l-15 1
q4 28 23 45.5t47 17.5q30 0 70 -25q40 -24 64 -24q48 0 57 53l15 -1q-4 -33 -23 -52t-48 -19q-31 0 -71 24q-38 25 -63 25q-45 0 -56 -45z" />
    <glyph glyph-name="adieresis" unicode="&#xe4;" 
d="M403 621q-19 0 -19 19t19 19q18 0 18.5 -19t-18.5 -19zM198 621q-19 0 -19 19q0 12 12 17.5t20 -4.5q10 -8 4.5 -20t-17.5 -12zM43 252q0 112 73 186q73 76 180 76q79 0 140 -41t86 -111v142h21v-504h-21v142q-25 -70 -86 -111t-140 -41q-106 0 -180 75q-73 74 -73 187z
M64 252q0 -102 66 -173q68 -69 166 -69q97 0 162 68t65 174t-65 174t-162 68q-98 0 -166 -71q-66 -71 -66 -171z" />
    <glyph glyph-name="aring" unicode="&#xe5;" 
d="M43 252q0 112 73 186q73 76 180 76q79 0 140 -41t86 -111v142h21v-504h-21v142q-25 -70 -86 -111t-140 -41q-106 0 -180 75q-73 74 -73 187zM64 252q0 -102 66 -173q68 -69 166 -69q97 0 162 68t65 174t-65 174t-162 68q-98 0 -166 -71q-66 -71 -66 -171zM346 585
q-18 -18 -44 -18t-45 18q-18 19 -18 44t18 43q19 19 45 19t44 -19q19 -18 19 -43t-19 -44zM272 599q13 -12 30 -12t29 12q13 13 13 30t-13 29q-12 13 -29 13t-30 -13q-12 -12 -12 -29t12 -30z" />
    <glyph glyph-name="ae" unicode="&#xe6;" horiz-adv-x="919" 
d="M44 135q0 64 43 101.5t117 37.5h108q107 0 107 95q0 59 -40 92t-107 33q-54 0 -96 -25t-65 -70l-18 8q26 52 72.5 79.5t106.5 27.5q75 0 120.5 -37t45.5 -99q23 61 79 98q59 38 127 38q98 0 165 -75q67 -74 67 -186v-5h-449q0 -102 62 -170t156 -68q108 0 180 80l14 -13
q-73 -87 -194 -87q-72 0 -130 38.5t-84 104.5q-12 -69 -67.5 -106t-146.5 -37q-80 0 -126.5 39.5t-46.5 105.5zM65 135q0 -56 39.5 -90.5t115.5 -34.5q93 0 144.5 43t51.5 119q-9 31 -9 77q0 28 5 46q-26 -42 -100 -42h-108q-65 0 -102 -31t-37 -87zM428 268h426
q-4 96 -65 161q-59 65 -145 65q-88 0 -150 -65t-66 -161z" />
    <glyph glyph-name="ccedilla" unicode="&#xe7;" horiz-adv-x="523" 
d="M232 -81l33 74q-96 13 -160 86q-62 73 -62 173q0 111 76 186q76 76 187 76q103 0 176 -67v-25q-75 72 -176 72q-103 0 -173 -70q-69 -69 -69 -172q0 -102 69 -173q71 -69 173 -69q101 0 176 72v-25q-73 -67 -176 -67q-15 0 -22 1l-25 -55q3 1 12 1q24 0 39.5 -14
t15.5 -37q0 -24 -16 -37.5t-43 -13.5q-34 0 -58 21l10 14q22 -16 47 -16q17 0 28 8.5t11 21.5q0 37 -50 37q-1 0 -23 -2z" />
    <glyph glyph-name="egrave" unicode="&#xe8;" horiz-adv-x="566" 
d="M43 251v1q0 112 69 187q70 75 171 75q99 0 167 -74q69 -74 69 -179q0 -11 -1 -14h-454q2 -103 63 -171q63 -67 157 -67q59 0 111.5 24t82.5 62v-29q-75 -77 -194 -77q-103 0 -172 74q-69 75 -69 188zM65 267h432q-1 95 -64 161q-61 66 -150 66q-90 0 -153 -66
q-64 -65 -65 -161zM314 552h-18l-75 145h25z" />
    <glyph glyph-name="eacute" unicode="&#xe9;" horiz-adv-x="566" 
d="M43 251v1q0 112 69 187q70 75 171 75q99 0 167 -74q69 -74 69 -179q0 -11 -1 -14h-454q2 -103 63 -171q63 -67 157 -67q59 0 111.5 24t82.5 62v-29q-75 -77 -194 -77q-103 0 -172 74q-69 75 -69 188zM65 267h432q-1 95 -64 161q-61 66 -150 66q-90 0 -153 -66
q-64 -65 -65 -161zM291 552h-18l68 145h25z" />
    <glyph glyph-name="ecircumflex" unicode="&#xea;" horiz-adv-x="566" 
d="M43 251v1q0 112 69 187q70 75 171 75q99 0 167 -74q69 -74 69 -179q0 -11 -1 -14h-454q2 -103 63 -171q63 -67 157 -67q59 0 111.5 24t82.5 62v-29q-75 -77 -194 -77q-103 0 -172 74q-69 75 -69 188zM65 267h432q-1 95 -64 161q-61 66 -150 66q-90 0 -153 -66
q-64 -65 -65 -161zM170 576h-27l143 133l143 -133h-27l-116 107z" />
    <glyph glyph-name="edieresis" unicode="&#xeb;" horiz-adv-x="566" 
d="M388 621q-19 0 -19 19q0 12 12 17.5t20 -4.5q10 -8 4.5 -20t-17.5 -12zM183 621q-19 0 -19 19t19 19q18 0 18.5 -19t-18.5 -19zM43 251v1q0 112 69 187q70 75 171 75q99 0 167 -74q69 -74 69 -179q0 -11 -1 -14h-454q2 -103 63 -171q63 -67 157 -67q59 0 111.5 24
t82.5 62v-29q-75 -77 -194 -77q-103 0 -172 74q-69 75 -69 188zM65 267h432q-1 95 -64 161q-61 66 -150 66q-90 0 -153 -66q-64 -65 -65 -161z" />
    <glyph glyph-name="igrave" unicode="&#xec;" horiz-adv-x="153" 
d="M85 552h-18l-75 145h25zM87 0h-21v504h21v-504z" />
    <glyph glyph-name="iacute" unicode="&#xed;" horiz-adv-x="153" 
d="M85 552h-18l68 145h25zM87 0h-21v504h21v-504z" />
    <glyph glyph-name="icircumflex" unicode="&#xee;" horiz-adv-x="153" 
d="M77 680l-93 -104h-24l117 133l117 -133h-24zM87 0h-21v504h21v-504z" />
    <glyph glyph-name="idieresis" unicode="&#xef;" horiz-adv-x="153" 
d="M128 621q-19 0 -19 19q0 12 12 17.5t20 -4.5q10 -8 4.5 -20t-17.5 -12zM25 621q-19 0 -19 19t19 19q18 0 18.5 -19t-18.5 -19zM87 0h-21v504h21v-504z" />
    <glyph glyph-name="eth" unicode="&#xf0;" horiz-adv-x="531" 
d="M264 440q67 0 119 -31.5t78 -88.5q-13 75 -57 147.5t-108 122.5l-94 -90l-13 14l91 88q-68 51 -147 75l4 20q87 -26 158 -80l90 87l15 -14l-89 -85q98 -83 140 -183q38 -91 38 -200q0 -100 -63 -165q-63 -64 -160 -64q-95 0 -159 64t-64 159t64 159q65 65 157 65zM64 216
q0 -86 57 -145q58 -58 145 -58t144 58q58 58 58 145q0 88 -58 146q-57 58 -144 58t-145 -58q-57 -58 -57 -146z" />
    <glyph glyph-name="ntilde" unicode="&#xf1;" horiz-adv-x="545" 
d="M86 0h-21v504h21v-134q13 63 65.5 103t128.5 40q90 0 145 -58q56 -59 56 -157v-298h-21v294q0 91 -50.5 145t-132.5 54q-89 0 -140 -63.5t-51 -171.5v-258zM155 602l-15 1q4 28 23 45.5t47 17.5q30 0 70 -25q40 -24 64 -24q48 0 57 53l15 -1q-4 -33 -23 -52t-48 -19
q-31 0 -71 24q-38 25 -63 25q-45 0 -56 -45z" />
    <glyph glyph-name="ograve" unicode="&#xf2;" 
d="M303 514q113 0 186 -75q75 -75 75 -187t-75 -187t-186 -75q-109 0 -185 75q-75 75 -75 187t75 187t185 75zM303 10q103 0 171 69q69 71 69 173q0 103 -69 172q-67 70 -171 70q-102 0 -171 -70q-68 -70 -68 -172t68 -173q69 -69 171 -69zM325 552h-18l-75 145h25z" />
    <glyph glyph-name="oacute" unicode="&#xf3;" 
d="M303 514q113 0 186 -75q75 -75 75 -187t-75 -187t-186 -75q-109 0 -185 75q-75 75 -75 187t75 187t185 75zM303 10q103 0 171 69q69 71 69 173q0 103 -69 172q-67 70 -171 70q-102 0 -171 -70q-68 -70 -68 -172t68 -173q69 -69 171 -69zM296 552h-18l68 145h25z" />
    <glyph glyph-name="ocircumflex" unicode="&#xf4;" 
d="M187 576h-27l143 133l143 -133h-27l-116 107zM303 514q113 0 186 -75q75 -75 75 -187t-75 -187t-186 -75q-109 0 -185 75q-75 75 -75 187t75 187t185 75zM303 10q103 0 171 69q69 71 69 173q0 103 -69 172q-67 70 -171 70q-102 0 -171 -70q-68 -70 -68 -172t68 -173
q69 -69 171 -69z" />
    <glyph glyph-name="otilde" unicode="&#xf5;" 
d="M303 514q113 0 186 -75q75 -75 75 -187t-75 -187t-186 -75q-109 0 -185 75q-75 75 -75 187t75 187t185 75zM303 10q103 0 171 69q69 71 69 173q0 103 -69 172q-67 70 -171 70q-102 0 -171 -70q-68 -70 -68 -172t68 -173q69 -69 171 -69zM180 602l-15 1q4 28 23 45.5
t47 17.5q30 0 70 -25q41 -24 64 -24q48 0 57 53l15 -1q-4 -33 -23 -52t-48 -19q-30 0 -71 24q-38 25 -63 25q-46 0 -56 -45z" />
    <glyph glyph-name="odieresis" unicode="&#xf6;" 
d="M406 621q-19 0 -19 19q0 12 12 17.5t20 -4.5q10 -8 4.5 -20t-17.5 -12zM201 621q-19 0 -19 19t19 19q18 0 18.5 -19t-18.5 -19zM303 514q113 0 186 -75q75 -75 75 -187t-75 -187t-186 -75q-109 0 -185 75q-75 75 -75 187t75 187t185 75zM303 10q103 0 171 69
q69 71 69 173q0 103 -69 172q-67 70 -171 70q-102 0 -171 -70q-68 -70 -68 -172t68 -173q69 -69 171 -69z" />
    <glyph glyph-name="divide" unicode="&#xf7;" horiz-adv-x="390" 
d="M195 435q-19 0 -19 19t19 19q18 0 18.5 -19t-18.5 -19zM340 339h-290v20h290v-20zM195 225q-19 0 -19 19t19 19q18 0 18.5 -19t-18.5 -19z" />
    <glyph glyph-name="oslash" unicode="&#xf8;" 
d="M115 -25l-16 11l43 58q-99 76 -99 208q0 112 75 187t185 75q83 0 150 -46l40 54l16 -11l-40 -54q95 -77 95 -205q0 -112 -75 -187t-186 -75q-82 0 -146 43zM154 60l287 392q-61 42 -138 42q-102 0 -171 -70q-68 -70 -68 -172q0 -122 90 -192zM457 440l-288 -391
q59 -39 134 -39q103 0 171 69q69 71 69 173q0 117 -86 188z" />
    <glyph glyph-name="ugrave" unicode="&#xf9;" horiz-adv-x="526" 
d="M59 186v318h21v-316q0 -85 48 -131.5t135 -46.5t135 46.5t48 131.5v316h21v-318q0 -93 -54 -144.5t-150 -51.5t-150 51.5t-54 144.5zM293 552h-18l-75 145h25z" />
    <glyph glyph-name="uacute" unicode="&#xfa;" horiz-adv-x="526" 
d="M59 186v318h21v-316q0 -85 48 -131.5t135 -46.5t135 46.5t48 131.5v316h21v-318q0 -93 -54 -144.5t-150 -51.5t-150 51.5t-54 144.5zM252 552h-18l68 145h25z" />
    <glyph glyph-name="ucircumflex" unicode="&#xfb;" horiz-adv-x="526" 
d="M147 576h-27l143 133l143 -133h-27l-116 107zM59 186v318h21v-316q0 -85 48 -131.5t135 -46.5t135 46.5t48 131.5v316h21v-318q0 -93 -54 -144.5t-150 -51.5t-150 51.5t-54 144.5z" />
    <glyph glyph-name="udieresis" unicode="&#xfc;" horiz-adv-x="526" 
d="M366 621q-19 0 -19 19q0 12 12 17.5t20 -4.5q10 -8 4.5 -20t-17.5 -12zM161 621q-19 0 -19 19t19 19q18 0 18.5 -19t-18.5 -19zM59 186v318h21v-316q0 -85 48 -131.5t135 -46.5t135 46.5t48 131.5v316h21v-318q0 -93 -54 -144.5t-150 -51.5t-150 51.5t-54 144.5z" />
    <glyph glyph-name="yacute" unicode="&#xfd;" horiz-adv-x="481" 
d="M140 -193l82 194l-199 503h23l187 -477l202 477h23l-296 -697h-22zM236 552h-18l68 145h25z" />
    <glyph glyph-name="thorn" unicode="&#xfe;" horiz-adv-x="609" 
d="M86 142v-335h-21v890h21v-335q25 70 86 111t140 41q106 0 179 -76q74 -76 74 -186q0 -113 -73 -187q-74 -75 -180 -75q-79 0 -140 41t-86 111zM312 10q99 0 165 69q67 70 67 173q0 101 -67 171q-66 71 -165 71q-98 0 -163 -68q-64 -67 -64 -174t64 -174q65 -68 163 -68z
" />
    <glyph glyph-name="ydieresis" unicode="&#xff;" horiz-adv-x="481" 
d="M336 621q-19 0 -19 19q0 12 12 17.5t20 -4.5q10 -8 4.5 -20t-17.5 -12zM131 621q-19 0 -19 19t19 19q18 0 18.5 -19t-18.5 -19zM140 -193l82 194l-199 503h23l187 -477l202 477h23l-296 -697h-22z" />
    <glyph glyph-name="Amacron" unicode="&#x100;" horiz-adv-x="640" 
d="M58 0h-23l285 709l285 -709h-23l-85 211h-354zM320 653l-169 -422h338zM467 769h-294v20h294v-20z" />
    <glyph glyph-name="amacron" unicode="&#x101;" 
d="M43 252q0 112 73 186q73 76 180 76q79 0 140 -41t86 -111v142h21v-504h-21v142q-25 -70 -86 -111t-140 -41q-106 0 -180 75q-73 74 -73 187zM64 252q0 -102 66 -173q68 -69 166 -69q97 0 162 68t65 174t-65 174t-162 68q-98 0 -166 -71q-66 -71 -66 -171zM452 615h-294
v20h294v-20z" />
    <glyph glyph-name="Abreve" unicode="&#x102;" horiz-adv-x="640" 
d="M58 0h-23l285 709l285 -709h-23l-85 211h-354zM320 653l-169 -422h338zM214 843h21q18 -73 85 -73t85 73h21q-6 -42 -35 -67.5t-71 -25.5t-71 25.5t-35 67.5z" />
    <glyph glyph-name="abreve" unicode="&#x103;" 
d="M43 252q0 112 73 186q73 76 180 76q79 0 140 -41t86 -111v142h21v-504h-21v142q-25 -70 -86 -111t-140 -41q-106 0 -180 75q-73 74 -73 187zM64 252q0 -102 66 -173q68 -69 166 -69q97 0 162 68t65 174t-65 174t-162 68q-98 0 -166 -71q-66 -71 -66 -171zM201 697h21
q18 -73 85 -73t85 73h21q-6 -42 -35 -67.5t-71 -25.5t-71 25.5t-35 67.5z" />
    <glyph glyph-name="Aogonek" unicode="&#x104;" horiz-adv-x="640" 
d="M58 0h-23l285 709l285 -709q-86 -45 -86 -109q0 -24 16 -39t40 -15q35 0 60 15l-5 -22q-38 -24 -87 -7t-45 65q0 36 23.5 67.5t59.5 46.5v1l-84 208h-354zM320 653l-169 -422h338z" />
    <glyph glyph-name="aogonek" unicode="&#x105;" 
d="M43 252q0 112 73 186q73 76 180 76q79 0 140 -41t86 -111v142h21v-504q-86 -45 -86 -109q0 -24 16 -39t40 -15q35 0 60 15l-5 -22q-38 -24 -87 -7t-45 65q0 35 23.5 66.5t62.5 48.5v139q-25 -70 -86 -111t-140 -41q-106 0 -180 75q-73 74 -73 187zM64 252q0 -102 66 -173
q68 -69 166 -69q97 0 162 68t65 174t-65 174t-162 68q-98 0 -166 -71q-66 -71 -66 -171z" />
    <glyph glyph-name="Cacute" unicode="&#x106;" horiz-adv-x="706" 
d="M415 707q123 0 221 -72v-25q-94 77 -221 77q-145 0 -242 -97q-96 -98 -96 -242t96 -242q97 -96 242 -96q127 0 221 77v-25q-98 -72 -221 -72q-153 0 -257 102q-103 103 -103 256t103 256t257 103zM414 745h-18l68 145h25z" />
    <glyph glyph-name="cacute" unicode="&#x107;" horiz-adv-x="523" 
d="M306 514q103 0 176 -67v-25q-75 72 -176 72q-103 0 -173 -70q-69 -69 -69 -172q0 -102 69 -173q71 -69 173 -69q101 0 176 72v-25q-73 -67 -176 -67q-110 0 -187 75q-76 76 -76 187t76 186q76 76 187 76zM307 552h-18l68 145h25z" />
    <glyph glyph-name="Ccircumflex" unicode="&#x108;" horiz-adv-x="706" 
d="M307 769h-27l143 133l143 -133h-27l-116 107zM415 707q123 0 221 -72v-25q-94 77 -221 77q-145 0 -242 -97q-96 -98 -96 -242t96 -242q97 -96 242 -96q127 0 221 77v-25q-98 -72 -221 -72q-153 0 -257 102q-103 103 -103 256t103 256t257 103z" />
    <glyph glyph-name="ccircumflex" unicode="&#x109;" horiz-adv-x="523" 
d="M191 576h-27l143 133l143 -133h-27l-116 107zM306 514q103 0 176 -67v-25q-75 72 -176 72q-103 0 -173 -70q-69 -69 -69 -172q0 -102 69 -173q71 -69 173 -69q101 0 176 72v-25q-73 -67 -176 -67q-110 0 -187 75q-76 76 -76 187t76 186q76 76 187 76z" />
    <glyph glyph-name="Cdotaccent" unicode="&#x10a;" horiz-adv-x="706" 
d="M418 775q-19 0 -19 19q0 12 12 17.5t20 -4.5q10 -8 4.5 -20t-17.5 -12zM415 707q123 0 221 -72v-25q-94 77 -221 77q-145 0 -242 -97q-96 -98 -96 -242t96 -242q97 -96 242 -96q127 0 221 77v-25q-98 -72 -221 -72q-153 0 -257 102q-103 103 -103 256t103 256t257 103z
" />
    <glyph glyph-name="cdotaccent" unicode="&#x10b;" horiz-adv-x="523" 
d="M304 622q-19 0 -19 19t19 18.5t19 -18.5q0 -19 -19 -19zM306 514q103 0 176 -67v-25q-75 72 -176 72q-103 0 -173 -70q-69 -69 -69 -172q0 -102 69 -173q71 -69 173 -69q101 0 176 72v-25q-73 -67 -176 -67q-110 0 -187 75q-76 76 -76 187t76 186q76 76 187 76z" />
    <glyph glyph-name="Ccaron" unicode="&#x10c;" horiz-adv-x="706" 
d="M560 890l-143 -133l-143 133h27l116 -107l116 107h27zM415 707q123 0 221 -72v-25q-94 77 -221 77q-145 0 -242 -97q-96 -98 -96 -242t96 -242q97 -96 242 -96q127 0 221 77v-25q-98 -72 -221 -72q-153 0 -257 102q-103 103 -103 256t103 256t257 103z" />
    <glyph glyph-name="ccaron" unicode="&#x10d;" horiz-adv-x="523" 
d="M446 697l-143 -133l-143 133h27l116 -107l116 107h27zM306 514q103 0 176 -67v-25q-75 72 -176 72q-103 0 -173 -70q-69 -69 -69 -172q0 -102 69 -173q71 -69 173 -69q101 0 176 72v-25q-73 -67 -176 -67q-110 0 -187 75q-76 76 -76 187t76 186q76 76 187 76z" />
    <glyph glyph-name="Dcaron" unicode="&#x10e;" horiz-adv-x="679" 
d="M446 890l-143 -133l-143 133h27l116 -107l116 107h27zM268 0h-197v697h196q165 0 262 -96q98 -96 98 -253q0 -158 -98 -253t-261 -95zM92 677v-657h174q156 0 248 89q91 90 91 239q0 150 -92 239q-91 90 -248 90h-173z" />
    <glyph glyph-name="dcaron" unicode="&#x10f;" horiz-adv-x="726" 
d="M43 252q0 112 73 186q73 76 180 76q79 0 140 -41t86 -111v335h21v-697h-21v142q-25 -70 -86 -111t-140 -41q-106 0 -180 75q-73 74 -73 187zM64 252q0 -102 66 -173q68 -69 166 -69q97 0 162 68t65 174t-65 174t-162 68q-98 0 -166 -71q-66 -71 -66 -171zM595 552h-18
l68 145h25z" />
    <glyph glyph-name="Dcroat" unicode="&#x110;" horiz-adv-x="721" 
d="M304 0h-197v349h-63v20h63v328h196q165 0 262 -96q98 -96 98 -253q0 -158 -98 -253t-261 -95zM128 349v-329h174q156 0 248 89q91 90 91 239q0 150 -92 239q-91 90 -248 90h-173v-308h143v-20h-143z" />
    <glyph glyph-name="dslash" unicode="&#x111;" horiz-adv-x="608" 
d="M43 252q0 112 73 186q73 76 180 76q79 0 140 -41t86 -111v234h-251v20h251v81h21v-81h45v-20h-45v-596h-21v142q-25 -70 -86 -111t-140 -41q-106 0 -180 75q-73 74 -73 187zM64 252q0 -102 66 -173q68 -69 166 -69q97 0 162 68t65 174t-65 174t-162 68q-98 0 -166 -71
q-66 -71 -66 -171z" />
    <glyph glyph-name="Emacron" unicode="&#x112;" horiz-adv-x="536" 
d="M472 0h-372v697h365v-20h-344v-298h325v-20h-325v-339h351v-20zM430 769h-294v20h294v-20z" />
    <glyph glyph-name="emacron" unicode="&#x113;" horiz-adv-x="566" 
d="M43 251v1q0 112 69 187q70 75 171 75q99 0 167 -74q69 -74 69 -179q0 -11 -1 -14h-454q2 -103 63 -171q63 -67 157 -67q59 0 111.5 24t82.5 62v-29q-75 -77 -194 -77q-103 0 -172 74q-69 75 -69 188zM65 267h432q-1 95 -64 161q-61 66 -150 66q-90 0 -153 -66
q-64 -65 -65 -161zM432 615h-294v20h294v-20z" />
    <glyph glyph-name="Ebreve" unicode="&#x114;" horiz-adv-x="536" 
d="M472 0h-372v697h365v-20h-344v-298h325v-20h-325v-339h351v-20zM181 843h21q18 -73 85 -73t85 73h21q-6 -42 -35 -67.5t-71 -25.5t-71 25.5t-35 67.5z" />
    <glyph glyph-name="ebreve" unicode="&#x115;" horiz-adv-x="566" 
d="M43 251v1q0 112 69 187q70 75 171 75q99 0 167 -74q69 -74 69 -179q0 -11 -1 -14h-454q2 -103 63 -171q63 -67 157 -67q59 0 111.5 24t82.5 62v-29q-75 -77 -194 -77q-103 0 -172 74q-69 75 -69 188zM65 267h432q-1 95 -64 161q-61 66 -150 66q-90 0 -153 -66
q-64 -65 -65 -161zM178 697h21q18 -73 85 -73t85 73h21q-6 -42 -35 -67.5t-71 -25.5t-71 25.5t-35 67.5z" />
    <glyph glyph-name="Edotaccent" unicode="&#x116;" horiz-adv-x="536" 
d="M472 0h-372v697h365v-20h-344v-298h325v-20h-325v-339h351v-20zM287 775q-19 0 -19 19t19 19q18 0 18.5 -19t-18.5 -19z" />
    <glyph glyph-name="edotaccent" unicode="&#x117;" horiz-adv-x="566" 
d="M284 621q-19 0 -19 19q0 12 12 17.5t20 -4.5q10 -8 4.5 -20t-17.5 -12zM43 251v1q0 112 69 187q70 75 171 75q99 0 167 -74q69 -74 69 -179q0 -11 -1 -14h-454q2 -103 63 -171q63 -67 157 -67q59 0 111.5 24t82.5 62v-29q-75 -77 -194 -77q-103 0 -172 74q-69 75 -69 188
zM65 267h432q-1 95 -64 161q-61 66 -150 66q-90 0 -153 -66q-64 -65 -65 -161z" />
    <glyph glyph-name="Eogonek" unicode="&#x118;" horiz-adv-x="536" 
d="M446 0h-346v697h365v-20h-344v-298h325v-20h-325v-339h351v-20q-86 -45 -86 -109q0 -24 16 -39t40 -15q34 0 60 15l-5 -22q-38 -24 -87 -7t-45 65q0 35 23 66t58 46z" />
    <glyph glyph-name="eogonek" unicode="&#x119;" horiz-adv-x="566" 
d="M43 251v2q2 113 70 186q70 75 170 75q99 0 167 -74q69 -74 69 -179q0 -11 -1 -14h-454q2 -103 63 -171q63 -67 157 -67q59 0 111.5 24t82.5 62v-28q-23 -28 -71 -51q-96 -48 -96 -112q0 -24 16 -39t40 -15q35 0 60 15l-5 -22q-38 -24 -87 -7t-45 65q0 56 52 95
q-21 -7 -58 -7q-103 0 -172 74q-69 75 -69 188zM65 267h432q-1 95 -64 161q-61 66 -150 66q-90 0 -153 -66q-64 -65 -65 -161z" />
    <glyph glyph-name="Ecaron" unicode="&#x11a;" horiz-adv-x="536" 
d="M429 890l-143 -133l-143 133h27l116 -107l116 107h27zM472 0h-372v697h365v-20h-344v-298h325v-20h-325v-339h351v-20z" />
    <glyph glyph-name="ecaron" unicode="&#x11b;" horiz-adv-x="566" 
d="M43 251v1q0 112 69 187q70 75 171 75q99 0 167 -74q69 -74 69 -179q0 -11 -1 -14h-454q2 -103 63 -171q63 -67 157 -67q59 0 111.5 24t82.5 62v-29q-75 -77 -194 -77q-103 0 -172 74q-69 75 -69 188zM65 267h432q-1 95 -64 161q-61 66 -150 66q-90 0 -153 -66
q-64 -65 -65 -161zM428 697l-143 -133l-143 133h27l116 -107l116 107h27z" />
    <glyph glyph-name="Gcircumflex" unicode="&#x11c;" horiz-adv-x="734" 
d="M55 348q0 154 102 256q103 103 254 103q105 0 194 -51v-23q-87 54 -194 54q-143 0 -239 -97q-95 -98 -95 -242t95 -242q96 -96 239 -96q139 0 234 84v248h-247v20h268v-277q-107 -95 -255 -95q-152 0 -254 102q-102 104 -102 256zM294 769h-27l143 133l143 -133h-27
l-116 107z" />
    <glyph glyph-name="gcircumflex" unicode="&#x11d;" horiz-adv-x="608" 
d="M72 -130v28q70 -82 225 -82q102 0 159 48q66 54 66 191v87q-25 -69 -86 -109.5t-140 -40.5q-106 0 -180 74q-73 74 -73 186t73 186q73 76 180 76q79 0 140 -41t86 -111v142h21v-440q0 -81 -15.5 -131.5t-57.5 -84.5q-64 -52 -173 -52q-148 0 -225 74zM64 252
q0 -102 66 -171q68 -69 166 -69t162 67q65 68 65 173q0 106 -65 174t-162 68q-98 0 -166 -71q-66 -71 -66 -171zM193 576h-27l143 133l143 -133h-27l-116 107z" />
    <glyph glyph-name="Gbreve" unicode="&#x11e;" horiz-adv-x="734" 
d="M55 348q0 154 102 256q103 103 254 103q105 0 194 -51v-23q-87 54 -194 54q-143 0 -239 -97q-95 -98 -95 -242t95 -242q96 -96 239 -96q139 0 234 84v248h-247v20h268v-277q-107 -95 -255 -95q-152 0 -254 102q-102 104 -102 256zM303 843h21q18 -73 85 -73t85 73h21
q-6 -42 -35 -67.5t-71 -25.5t-71 25.5t-35 67.5z" />
    <glyph glyph-name="gbreve" unicode="&#x11f;" horiz-adv-x="608" 
d="M72 -130v28q70 -82 225 -82q102 0 159 48q66 54 66 191v87q-25 -69 -86 -109.5t-140 -40.5q-106 0 -180 74q-73 74 -73 186t73 186q73 76 180 76q79 0 140 -41t86 -111v142h21v-440q0 -81 -15.5 -131.5t-57.5 -84.5q-64 -52 -173 -52q-148 0 -225 74zM64 252
q0 -102 66 -171q68 -69 166 -69t162 67q65 68 65 173q0 106 -65 174t-162 68q-98 0 -166 -71q-66 -71 -66 -171zM195 697h21q18 -73 85 -73t85 73h21q-6 -42 -35 -67.5t-71 -25.5t-71 25.5t-35 67.5z" />
    <glyph glyph-name="Gdotaccent" unicode="&#x120;" horiz-adv-x="734" 
d="M410 775q-19 0 -19 19q0 12 12 17.5t20 -4.5q10 -8 4.5 -20t-17.5 -12zM55 348q0 154 102 256q103 103 254 103q105 0 194 -51v-23q-87 54 -194 54q-143 0 -239 -97q-95 -98 -95 -242t95 -242q96 -96 239 -96q139 0 234 84v248h-247v20h268v-277q-107 -95 -255 -95
q-152 0 -254 102q-102 104 -102 256z" />
    <glyph glyph-name="gdotaccent" unicode="&#x121;" horiz-adv-x="608" 
d="M296 621q-19 0 -19 19q0 12 12 17.5t20 -4.5q10 -8 4.5 -20t-17.5 -12zM72 -130v28q70 -82 225 -82q102 0 159 48q66 54 66 191v87q-25 -69 -86 -109.5t-140 -40.5q-106 0 -180 74q-73 74 -73 186t73 186q73 76 180 76q79 0 140 -41t86 -111v142h21v-440
q0 -81 -15.5 -131.5t-57.5 -84.5q-64 -52 -173 -52q-148 0 -225 74zM64 252q0 -102 66 -171q68 -69 166 -69t162 67q65 68 65 173q0 106 -65 174t-162 68q-98 0 -166 -71q-66 -71 -66 -171z" />
    <glyph glyph-name="Gcommaaccent" unicode="&#x122;" horiz-adv-x="734" 
d="M55 348q0 154 102 256q103 103 254 103q105 0 194 -51v-23q-87 54 -194 54q-143 0 -239 -97q-95 -98 -95 -242t95 -242q96 -96 239 -96q139 0 234 84v248h-247v20h268v-277q-107 -95 -255 -95q-152 0 -254 102q-102 104 -102 256zM336 -193h-18l68 145h25z" />
    <glyph glyph-name="gcommaaccent" unicode="&#x123;" horiz-adv-x="608" 
d="M72 -130v28q70 -82 225 -82q102 0 159 48q66 54 66 191v87q-25 -69 -86 -109.5t-140 -40.5q-106 0 -180 74q-73 74 -73 186t73 186q73 76 180 76q79 0 140 -41t86 -111v142h21v-440q0 -81 -15.5 -131.5t-57.5 -84.5q-64 -52 -173 -52q-148 0 -225 74zM64 252
q0 -102 66 -171q68 -69 166 -69t162 67q65 68 65 173q0 106 -65 174t-162 68q-98 0 -166 -71q-66 -71 -66 -171zM297 552h-18l68 145h25z" />
    <glyph glyph-name="Hcircumflex" unicode="&#x124;" horiz-adv-x="687" 
d="M227 769h-27l143 133l143 -133h-27l-116 107zM121 0h-21v697h21v-317h445v317h21v-697h-21v360h-445v-360z" />
    <glyph glyph-name="hcircumflex" unicode="&#x125;" horiz-adv-x="537" 
d="M83 826l-100 -104h-27l127 133l127 -133h-27zM94 0h-21v697h21v-327q15 64 65 103.5t125 39.5q87 0 142 -58t55 -157v-298h-21v294q0 92 -49 145.5t-130 53.5q-87 0 -137 -63.5t-50 -171.5v-258z" />
    <glyph glyph-name="Hbar" unicode="&#x126;" horiz-adv-x="687" 
d="M121 0h-21v528h-67v20h67v149h21v-149h445v149h21v-149h51v-20h-51v-528h-21v360h-445v-360zM121 528v-148h445v148h-445z" />
    <glyph glyph-name="hbar" unicode="&#x127;" horiz-adv-x="537" 
d="M94 0h-21v596h-61v20h61v81h21v-81h222v-20h-222v-226q15 64 65 103.5t125 39.5q87 0 142 -58t55 -157v-298h-21v294q0 92 -49 145.5t-130 53.5q-87 0 -137 -63.5t-50 -171.5v-258z" />
    <glyph glyph-name="Itilde" unicode="&#x128;" horiz-adv-x="229" 
d="M6 774l-15 1q4 28 21.5 45.5t44.5 17.5q26 0 58 -25t56 -25q45 0 52 55l16 -2q-11 -71 -68 -71q-28 0 -60 25t-54 25q-44 0 -51 -46zM125 0h-21v697h21v-697z" />
    <glyph glyph-name="itilde" unicode="&#x129;" horiz-adv-x="175" 
d="M-15 603l-16 1q5 28 20.5 45t38.5 17q26 0 60 -25q36 -24 57 -24q39 0 46 54l15 -2q-10 -70 -60 -70q-28 0 -63 25q-34 25 -54 25q-17 0 -29 -12.5t-15 -33.5zM98 0h-21v504h21v-504z" />
    <glyph glyph-name="Imacron" unicode="&#x12a;" horiz-adv-x="229" 
d="M228 769h-227v20h227v-20zM125 0h-21v697h21v-697z" />
    <glyph glyph-name="imacron" unicode="&#x12b;" horiz-adv-x="153" 
d="M174 615h-196v20h196v-20zM87 0h-21v504h21v-504z" />
    <glyph glyph-name="Ibreve" unicode="&#x12c;" horiz-adv-x="229" 
d="M8 843h21q18 -73 85 -73t85 73h21q-6 -42 -35 -67.5t-71 -25.5t-71 25.5t-35 67.5zM125 0h-21v697h21v-697z" />
    <glyph glyph-name="ibreve" unicode="&#x12d;" horiz-adv-x="153" 
d="M76 606q-39 0 -65 24.5t-31 66.5h19q5 -33 25.5 -52.5t51.5 -19.5q32 0 52.5 19.5t25.5 52.5h20q-5 -42 -31.5 -66.5t-66.5 -24.5zM87 0h-21v504h21v-504z" />
    <glyph glyph-name="Iogonek" unicode="&#x12e;" horiz-adv-x="229" 
d="M104 3v1v693h21v-697q-81 -45 -81 -109q0 -24 16 -39t40 -15q34 0 60 15l-5 -22q-25 -13 -58 -13t-53.5 19.5t-20.5 51.5q0 72 81 115z" />
    <glyph glyph-name="iogonek" unicode="&#x12f;" horiz-adv-x="153" 
d="M77 621q-19 0 -19 19t19 19q18 0 18.5 -19t-18.5 -19zM66 2v1v501h21v-504q-86 -45 -86 -109q0 -24 16 -39t40 -15q35 0 60 15l-5 -22q-38 -24 -87 -7t-45 65q0 36 24 67.5t62 46.5z" />
    <glyph glyph-name="Idot" unicode="&#x130;" horiz-adv-x="229" 
d="M115 775q-19 0 -19 19t19 19q18 0 18.5 -19t-18.5 -19zM125 0h-21v697h21v-697z" />
    <glyph glyph-name="dotlessi" unicode="&#x131;" horiz-adv-x="153" 
d="M87 0h-21v504h21v-504z" />
    <glyph glyph-name="IJ" unicode="&#x132;" horiz-adv-x="423" 
d="M105 0v21q29 -10 74 -10q73 0 100.5 38t27.5 128v520h21v-518q0 -100 -32.5 -144t-114.5 -44q-38 0 -76 9zM125 141h-21v556h21v-556z" />
    <glyph glyph-name="ij" unicode="&#x133;" horiz-adv-x="301" 
d="M225 621q-19 0 -19 19t19 19q18 0 18.5 -19t-18.5 -19zM77 621q-19 0 -19 19t19 19q18 0 18.5 -19t-18.5 -19zM82 -3v20q22 -6 52 -6q44 0 62.5 21.5t18.5 70.5v401h21v-401q0 -57 -23 -83q-26 -29 -80 -29q-29 0 -51 6zM87 138h-21v366h21v-366z" />
    <glyph glyph-name="Jcircumflex" unicode="&#x134;" horiz-adv-x="327" 
d="M118 769h-27l127 133l127 -133h-27l-100 104zM24 0v22q26 -10 62 -10q68 0 95 37.5t27 123.5v524h21v-523q0 -98 -31 -140.5t-112 -42.5q-30 0 -62 9z" />
    <glyph glyph-name="jcircumflex" unicode="&#x135;" horiz-adv-x="171" 
d="M85 680l-93 -104h-24l117 133l117 -133h-24zM75 -91v595h21v-595q0 -61 -24 -86.5t-74 -25.5q-23 0 -41 3v20q19 -3 42 -3q41 0 58.5 21.5t17.5 70.5z" />
    <glyph glyph-name="Kcommaaccent" unicode="&#x136;" horiz-adv-x="563" 
d="M121 0h-21v697h21v-328l360 328h30l-368 -335l377 -362h-31l-368 354v-354zM217 -193l68 145h25l-75 -145h-18z" />
    <glyph glyph-name="kcommaaccent" unicode="&#x137;" horiz-adv-x="414" 
d="M86 0h-21v697h21v-424l260 231h29l-268 -239l292 -265h-29l-284 257v-257zM149 -193l68 145h25l-75 -145h-18z" />
    <glyph glyph-name="Lacute" unicode="&#x139;" horiz-adv-x="484" 
d="M117 745h-18l68 145h25zM437 0h-337v697h21v-677h316v-20z" />
    <glyph glyph-name="lacute" unicode="&#x13a;" horiz-adv-x="152" 
d="M85 722h-18l68 145h25zM87 0h-21v697h21v-697z" />
    <glyph glyph-name="Lcommaaccent" unicode="&#x13b;" horiz-adv-x="484" 
d="M437 0h-337v697h21v-677h316v-20zM191 -193l68 145h25l-75 -145h-18z" />
    <glyph glyph-name="lcommaaccent" unicode="&#x13c;" horiz-adv-x="151" 
d="M86 0h-21v697h21v-697zM-4 -193l68 145h25l-75 -145h-18z" />
    <glyph glyph-name="Lcaron" unicode="&#x13d;" horiz-adv-x="484" 
d="M276 552h-18l68 145h25zM437 0h-337v697h21v-677h316v-20z" />
    <glyph glyph-name="lcaron" unicode="&#x13e;" horiz-adv-x="232" 
d="M134 552h-18l68 145h25zM87 0h-21v697h21v-697z" />
    <glyph glyph-name="Ldot" unicode="&#x13f;" horiz-adv-x="484" 
d="M437 0h-337v697h21v-677h316v-20zM291 365q-19 0 -19 19t19 19q18 0 18.5 -19t-18.5 -19z" />
    <glyph glyph-name="ldot" unicode="&#x140;" horiz-adv-x="217" 
d="M87 0h-21v697h21v-697zM143 351q-18 0 -18 19q0 18 18 18q19 0 19 -18q0 -19 -19 -19z" />
    <glyph glyph-name="Lslash" unicode="&#x141;" horiz-adv-x="484" 
d="M437 0h-337v318l-67 -40v23l67 40v356h21v-344l144 87v-23l-144 -87v-310h316v-20z" />
    <glyph glyph-name="lslash" unicode="&#x142;" horiz-adv-x="181" 
d="M101 0h-21v349l-68 -41v21l68 41v327h21v-314l84 51v-21l-84 -52v-361z" />
    <glyph glyph-name="Nacute" unicode="&#x143;" horiz-adv-x="711" 
d="M121 0h-21v709l490 -658v646h21v-709l-490 658v-646zM348 745h-18l68 145h25z" />
    <glyph glyph-name="nacute" unicode="&#x144;" horiz-adv-x="545" 
d="M86 0h-21v504h21v-134q13 63 65.5 103t128.5 40q90 0 145 -58q56 -59 56 -157v-298h-21v294q0 91 -50.5 145t-132.5 54q-89 0 -140 -63.5t-51 -171.5v-258zM273 552h-18l68 145h25z" />
    <glyph glyph-name="Ncommaaccent" unicode="&#x145;" horiz-adv-x="711" 
d="M121 0h-21v709l490 -658v646h21v-709l-490 658v-646zM301 -193h-18l68 145h25z" />
    <glyph glyph-name="ncommaaccent" unicode="&#x146;" horiz-adv-x="545" 
d="M86 0h-21v504h21v-134q13 63 65.5 103t128.5 40q90 0 145 -58q56 -59 56 -157v-298h-21v294q0 91 -50.5 145t-132.5 54q-89 0 -140 -63.5t-51 -171.5v-258zM199 -193l68 145h25l-75 -145h-18z" />
    <glyph glyph-name="Ncaron" unicode="&#x147;" horiz-adv-x="711" 
d="M499 890l-143 -133l-143 133h27l116 -107l116 107h27zM121 0h-21v709l490 -658v646h21v-709l-490 658v-646z" />
    <glyph glyph-name="ncaron" unicode="&#x148;" horiz-adv-x="545" 
d="M418 697l-143 -133l-143 133h27l116 -107l116 107h27zM86 0h-21v504h21v-134q13 63 65.5 103t128.5 40q90 0 145 -58q56 -59 56 -157v-298h-21v294q0 91 -50.5 145t-132.5 54q-89 0 -140 -63.5t-51 -171.5v-258z" />
    <glyph glyph-name="Eng" unicode="&#x14a;" horiz-adv-x="709" 
d="M121 0h-21v709l488 -672v660h21v-716q0 -96 -31.5 -139.5t-110.5 -43.5q-31 0 -63 9v23q26 -12 63 -12q73 0 97 42q24 41 24 140v1l-467 643v-644z" />
    <glyph glyph-name="eng" unicode="&#x14b;" horiz-adv-x="546" 
d="M86 0h-21v504h21v-134q13 63 65.5 103t128.5 40q90 0 145 -58q56 -59 56 -157v-383q0 -59 -22.5 -85.5t-75.5 -26.5q-23 0 -41 3v20q20 -3 42 -3q41 0 58.5 21.5t17.5 70.5v379q0 91 -50.5 145t-132.5 54q-89 0 -140 -63.5t-51 -171.5v-258z" />
    <glyph glyph-name="Omacron" unicode="&#x14c;" horiz-adv-x="823" 
d="M55 348q0 152 103 255q104 104 254 104q149 0 253 -104q103 -103 103 -255q0 -153 -103 -256q-103 -102 -253 -102t-254 102q-103 103 -103 256zM76 348q0 -144 96 -242q96 -96 240 -96t239 96q96 97 96 242q0 144 -97 241q-96 98 -238 98q-141 0 -239 -98
q-97 -97 -97 -241zM559 769h-294v20h294v-20z" />
    <glyph glyph-name="omacron" unicode="&#x14d;" 
d="M303 514q113 0 186 -75q75 -75 75 -187t-75 -187t-186 -75q-109 0 -185 75q-75 75 -75 187t75 187t185 75zM303 10q103 0 171 69q69 71 69 173q0 103 -69 172q-67 70 -171 70q-102 0 -171 -70q-68 -70 -68 -172t68 -173q69 -69 171 -69zM450 615h-294v20h294v-20z" />
    <glyph glyph-name="Obreve" unicode="&#x14e;" horiz-adv-x="823" 
d="M55 348q0 152 103 255q104 104 254 104q149 0 253 -104q103 -103 103 -255q0 -153 -103 -256q-103 -102 -253 -102t-254 102q-103 103 -103 256zM76 348q0 -144 96 -242q96 -96 240 -96t239 96q96 97 96 242q0 144 -97 241q-96 98 -238 98q-141 0 -239 -98
q-97 -97 -97 -241zM306 843h21q18 -73 85 -73t85 73h21q-6 -42 -35 -67.5t-71 -25.5t-71 25.5t-35 67.5z" />
    <glyph glyph-name="obreve" unicode="&#x14f;" 
d="M303 514q113 0 186 -75q75 -75 75 -187t-75 -187t-186 -75q-109 0 -185 75q-75 75 -75 187t75 187t185 75zM303 10q103 0 171 69q69 71 69 173q0 103 -69 172q-67 70 -171 70q-102 0 -171 -70q-68 -70 -68 -172t68 -173q69 -69 171 -69zM197 697h21q18 -73 85 -73t85 73
h21q-6 -42 -35 -67.5t-71 -25.5t-71 25.5t-35 67.5z" />
    <glyph glyph-name="Ohungarumlaut" unicode="&#x150;" horiz-adv-x="823" 
d="M55 348q0 152 103 255q104 104 254 104q149 0 253 -104q103 -103 103 -255q0 -153 -103 -256q-103 -102 -253 -102t-254 102q-103 103 -103 256zM76 348q0 -144 96 -242q96 -96 240 -96t239 96q96 97 96 242q0 144 -97 241q-96 98 -238 98q-141 0 -239 -98
q-97 -97 -97 -241zM489 745h-18l80 145h26zM335 745h-18l80 145h26z" />
    <glyph glyph-name="ohungarumlaut" unicode="&#x151;" 
d="M387 552h-18l80 145h26zM233 552h-18l80 145h26zM303 514q113 0 186 -75q75 -75 75 -187t-75 -187t-186 -75q-109 0 -185 75q-75 75 -75 187t75 187t185 75zM303 10q103 0 171 69q69 71 69 173q0 103 -69 172q-67 70 -171 70q-102 0 -171 -70q-68 -70 -68 -172t68 -173
q69 -69 171 -69z" />
    <glyph glyph-name="OE" unicode="&#x152;" horiz-adv-x="1145" 
d="M55 348q0 152 103 255q104 104 253 104q119 0 210 -72q92 -71 116 -176v238h337v-20h-316v-298h297v-20h-297v-339h323v-20h-344v237q-24 -106 -116 -177q-91 -70 -210 -70q-149 0 -253 102q-103 103 -103 256zM76 348q0 -144 96 -242q96 -96 239 -96q140 0 233 96
q93 98 93 242t-94 241q-95 98 -232 98q-140 0 -238 -98q-97 -97 -97 -241z" />
    <glyph glyph-name="oe" unicode="&#x153;" horiz-adv-x="1058" 
d="M301 514q90 0 158 -53q67 -53 90 -138q21 85 84 138q64 53 146 53q99 0 167 -74q69 -74 69 -179q0 -11 -1 -14h-454q2 -103 63 -171q63 -67 157 -67q106 0 177 80l14 -13q-73 -87 -191 -87q-85 0 -149 52q-63 53 -83 139q-22 -86 -90 -138q-67 -52 -157 -52
q-109 0 -184 75q-74 76 -74 187t74 187q75 75 184 75zM561 267h432q-1 95 -64 161q-61 66 -150 66q-90 0 -153 -66q-64 -65 -65 -161zM301 10q103 0 170 69q68 71 68 173t-68 172q-67 70 -170 70q-102 0 -169 -70q-68 -70 -68 -172t68 -173q68 -69 169 -69z" />
    <glyph glyph-name="Racute" unicode="&#x154;" horiz-adv-x="573" 
d="M121 0h-21v697h206q85 0 141 -55q57 -56 57 -138q0 -68 -39 -119t-105 -68l172 -317h-24l-169 312q-22 -2 -50 -2h-168v-310zM121 677v-347h184q78 0 127 49q51 49 51 125q0 74 -51 123q-50 50 -126 50h-185zM282 745h-18l68 145h25z" />
    <glyph glyph-name="racute" unicode="&#x155;" horiz-adv-x="322" 
d="M86 0h-21v504h21v-137q5 51 56 98q52 48 134 48q10 0 15 -1v-19h-10q-102 -1 -149 -69q-46 -67 -46 -169v-255zM155 552h-18l68 145h25z" />
    <glyph glyph-name="Rcommaaccent" unicode="&#x156;" horiz-adv-x="573" 
d="M121 0h-21v697h206q85 0 141 -55q57 -56 57 -138q0 -68 -39 -119t-105 -68l172 -317h-24l-169 312q-22 -2 -50 -2h-168v-310zM121 677v-347h184q78 0 127 49q51 49 51 125q0 74 -51 123q-50 50 -126 50h-185zM227 -193l68 145h25l-75 -145h-18z" />
    <glyph glyph-name="rcommaaccent" unicode="&#x157;" horiz-adv-x="322" 
d="M86 0h-21v504h21v-137q5 51 56 98q52 48 134 48q10 0 15 -1v-19h-10q-102 -1 -149 -69q-46 -67 -46 -169v-255zM32 -193l68 145h25l-75 -145h-18z" />
    <glyph glyph-name="Rcaron" unicode="&#x158;" horiz-adv-x="573" 
d="M121 0h-21v697h206q85 0 141 -55q57 -56 57 -138q0 -68 -39 -119t-105 -68l172 -317h-24l-169 312q-22 -2 -50 -2h-168v-310zM121 677v-347h184q78 0 127 49q51 49 51 125q0 74 -51 123q-50 50 -126 50h-185zM438 890l-143 -133l-143 133h27l116 -107l116 107h27z" />
    <glyph glyph-name="rcaron" unicode="&#x159;" horiz-adv-x="322" 
d="M311 697l-143 -133l-143 133h27l116 -107l116 107h27zM86 0h-21v504h21v-137q5 51 56 98q52 48 134 48q10 0 15 -1v-19h-10q-102 -1 -149 -69q-46 -67 -46 -169v-255z" />
    <glyph glyph-name="Sacute" unicode="&#x15a;" horiz-adv-x="528" 
d="M54 86v29q81 -105 210 -105q90 0 141 42.5t51 115.5q0 72 -48 114q-26 24 -57 43q-29 18 -87 48q-87 45 -124 86t-37 95q0 71 46 112t126 41q83 0 133 -47v-27q-50 54 -136 54q-69 0 -108.5 -36t-39.5 -97q0 -48 33.5 -84t114.5 -78q117 -61 161 -106q44 -44 44 -118
q0 -81 -56.5 -129.5t-154.5 -48.5q-132 0 -212 96zM266 745h-18l68 145h25z" />
    <glyph glyph-name="sacute" unicode="&#x15b;" horiz-adv-x="398" 
d="M37 64v30q55 -84 165 -84q67 0 105 30t38 82q0 37 -25 70q-8 12 -33 27q-13 8 -38 22q-20 11 -51 26q-69 34 -97 63.5t-28 69.5q0 52 35.5 83t96.5 31q63 0 106 -38v-26q-39 44 -106 44q-52 0 -81.5 -25t-29.5 -69q0 -33 24.5 -58t82.5 -53q94 -46 130 -79q35 -32 35 -88
q0 -59 -43.5 -95.5t-120.5 -36.5q-109 0 -165 74zM199 552h-18l68 145h25z" />
    <glyph glyph-name="Scircumflex" unicode="&#x15c;" horiz-adv-x="528" 
d="M54 86v29q81 -105 210 -105q90 0 141 42.5t51 115.5q0 72 -48 114q-26 24 -57 43q-29 18 -87 48q-87 45 -124 86t-37 95q0 71 46 112t126 41q83 0 133 -47v-27q-50 54 -136 54q-69 0 -108.5 -36t-39.5 -97q0 -48 33.5 -84t114.5 -78q117 -61 161 -106q44 -44 44 -118
q0 -81 -56.5 -129.5t-154.5 -48.5q-132 0 -212 96zM162 769h-27l143 133l143 -133h-27l-116 107z" />
    <glyph glyph-name="scircumflex" unicode="&#x15d;" horiz-adv-x="398" 
d="M37 64v30q55 -84 165 -84q67 0 105 30t38 82q0 37 -25 70q-8 12 -33 27q-13 8 -38 22q-20 11 -51 26q-69 34 -97 63.5t-28 69.5q0 52 35.5 83t96.5 31q63 0 106 -38v-26q-39 44 -106 44q-52 0 -81.5 -25t-29.5 -69q0 -33 24.5 -58t82.5 -53q94 -46 130 -79q35 -32 35 -88
q0 -59 -43.5 -95.5t-120.5 -36.5q-109 0 -165 74zM94 576h-27l143 133l143 -133h-27l-116 107z" />
    <glyph glyph-name="Scedilla" unicode="&#x15e;" horiz-adv-x="528" 
d="M54 86v29q81 -105 210 -105q90 0 141 42.5t51 115.5q0 72 -48 114q-26 24 -57 43q-29 18 -87 48q-87 45 -124 86t-37 95q0 71 46 112t126 41q83 0 133 -47v-27q-50 54 -136 54q-69 0 -108.5 -36t-39.5 -97q0 -48 33.5 -84t114.5 -78q117 -61 161 -106q44 -44 44 -118
q0 -81 -56 -129t-153 -49l-24 -54q3 1 12 1q24 0 39.5 -14t15.5 -37q0 -24 -16 -37.5t-43 -13.5q-34 0 -58 21l10 14q22 -16 47 -16q17 0 28 8.5t11 21.5q0 37 -50 37q-1 0 -23 -2l31 72q-122 6 -194 95z" />
    <glyph glyph-name="scedilla" unicode="&#x15f;" horiz-adv-x="399" 
d="M37 64v30q55 -84 165 -84q67 0 105 30t38 82q0 37 -25 70q-8 12 -33 27q-13 8 -38 22q-20 11 -51 26q-69 34 -97 63.5t-28 69.5q0 52 35.5 83t96.5 31q63 0 106 -38v-26q-39 44 -106 44q-52 0 -81.5 -25t-29.5 -69q0 -33 24.5 -58t82.5 -53q94 -46 130 -79q35 -32 35 -88
q0 -58 -43 -94.5t-119 -37.5l-24 -54q3 1 12 1q24 0 39.5 -14t15.5 -37q0 -24 -16 -37.5t-43 -13.5q-34 0 -58 21l10 14q22 -16 47 -16q17 0 28 8.5t11 21.5q0 37 -50 37q-1 0 -23 -2l32 72q-99 6 -148 73z" />
    <glyph glyph-name="Scaron" unicode="&#x160;" horiz-adv-x="528" 
d="M54 86v29q81 -105 210 -105q90 0 141 42.5t51 115.5q0 72 -48 114q-26 24 -57 43q-29 18 -87 48q-87 45 -124 86t-37 95q0 71 46 112t126 41q83 0 133 -47v-27q-50 54 -136 54q-69 0 -108.5 -36t-39.5 -97q0 -48 33.5 -84t114.5 -78q117 -61 161 -106q44 -44 44 -118
q0 -81 -56.5 -129.5t-154.5 -48.5q-132 0 -212 96zM421 890l-143 -133l-143 133h27l116 -107l116 107h27z" />
    <glyph glyph-name="scaron" unicode="&#x161;" horiz-adv-x="398" 
d="M37 64v30q55 -84 165 -84q67 0 105 30t38 82q0 37 -25 70q-8 12 -33 27q-13 8 -38 22q-20 11 -51 26q-69 34 -97 63.5t-28 69.5q0 52 35.5 83t96.5 31q63 0 106 -38v-26q-39 44 -106 44q-52 0 -81.5 -25t-29.5 -69q0 -33 24.5 -58t82.5 -53q94 -46 130 -79q35 -32 35 -88
q0 -59 -43.5 -95.5t-120.5 -36.5q-109 0 -165 74zM348 697l-143 -133l-143 133h27l116 -107l116 107h27z" />
    <glyph glyph-name="Tcommaaccent" unicode="&#x162;" horiz-adv-x="534" 
d="M277 0h-21v677h-218v20h457v-20h-218v-677zM185 -193l68 145h25l-75 -145h-18z" />
    <glyph glyph-name="tcommaaccent" unicode="&#x163;" horiz-adv-x="275" 
d="M123 0h-21v484h-64v20h64v193h21v-193h126v-20h-126v-484zM33 -193l68 145h25l-75 -145h-18z" />
    <glyph glyph-name="Tcaron" unicode="&#x164;" horiz-adv-x="534" 
d="M409 890l-143 -133l-143 133h27l116 -107l116 107h27zM277 0h-21v677h-218v20h457v-20h-218v-677z" />
    <glyph glyph-name="tcaron" unicode="&#x165;" horiz-adv-x="292" 
d="M123 0h-21v484h-64v20h64v193h21v-193h126v-20h-126v-484zM184 552h-18l68 145h25z" />
    <glyph glyph-name="Tbar" unicode="&#x166;" horiz-adv-x="534" 
d="M277 0h-21v410h-136v20h136v247h-218v20h457v-20h-218v-247h137v-20h-137v-410z" />
    <glyph glyph-name="tbar" unicode="&#x167;" horiz-adv-x="275" 
d="M123 0h-21v343h-64v20h64v121h-64v20h64v193h21v-193h126v-20h-126v-121h126v-20h-126v-343z" />
    <glyph glyph-name="Utilde" unicode="&#x168;" horiz-adv-x="655" 
d="M203 774l-15 1q4 28 23 45.5t47 17.5q30 0 70 -25q40 -24 64 -24q48 0 57 53l15 -1q-4 -33 -23 -52t-48 -19q-31 0 -71 24q-38 25 -63 25q-45 0 -56 -45zM95 220v477h21v-475q0 -99 56.5 -154.5t155.5 -55.5t155.5 55.5t56.5 154.5v475h21v-477q0 -107 -64 -168
q-63 -60 -169 -60t-170 60q-63 62 -63 168z" />
    <glyph glyph-name="utilde" unicode="&#x169;" horiz-adv-x="526" 
d="M140 603l-15 1q4 28 23 45.5t47 17.5q30 0 70 -25q41 -24 64 -24q48 0 57 53l15 -1q-4 -33 -23 -52t-48 -19q-30 0 -71 24q-38 25 -63 25q-46 0 -56 -45zM59 186v318h21v-316q0 -85 48 -131.5t135 -46.5t135 46.5t48 131.5v316h21v-318q0 -93 -54 -144.5t-150 -51.5
t-150 51.5t-54 144.5z" />
    <glyph glyph-name="Umacron" unicode="&#x16a;" horiz-adv-x="655" 
d="M95 220v477h21v-475q0 -99 56.5 -154.5t155.5 -55.5t155.5 55.5t56.5 154.5v475h21v-477q0 -107 -64 -168q-63 -60 -169 -60t-170 60q-63 62 -63 168zM475 769h-294v20h294v-20z" />
    <glyph glyph-name="umacron" unicode="&#x16b;" horiz-adv-x="526" 
d="M59 186v318h21v-316q0 -85 48 -131.5t135 -46.5t135 46.5t48 131.5v316h21v-318q0 -93 -54 -144.5t-150 -51.5t-150 51.5t-54 144.5zM410 615h-294v20h294v-20z" />
    <glyph glyph-name="Ubreve" unicode="&#x16c;" horiz-adv-x="655" 
d="M95 220v477h21v-475q0 -99 56.5 -154.5t155.5 -55.5t155.5 55.5t56.5 154.5v475h21v-477q0 -107 -64 -168q-63 -60 -169 -60t-170 60q-63 62 -63 168zM222 843h21q18 -73 85 -73t85 73h21q-6 -42 -35 -67.5t-71 -25.5t-71 25.5t-35 67.5z" />
    <glyph glyph-name="ubreve" unicode="&#x16d;" horiz-adv-x="526" 
d="M59 186v318h21v-316q0 -85 48 -131.5t135 -46.5t135 46.5t48 131.5v316h21v-318q0 -93 -54 -144.5t-150 -51.5t-150 51.5t-54 144.5zM157 697h21q18 -73 85 -73t85 73h21q-6 -42 -35 -67.5t-71 -25.5t-71 25.5t-35 67.5z" />
    <glyph glyph-name="Uring" unicode="&#x16e;" horiz-adv-x="655" 
d="M372 725q-18 -18 -44 -18t-45 18q-18 19 -18 44t18 43q19 19 45 19t44 -19q19 -18 19 -43t-19 -44zM298 739q13 -12 30 -12t29 12q13 13 13 30t-13 29q-12 13 -29 13t-30 -13q-12 -12 -12 -29t12 -30zM95 220v477h21v-475q0 -99 56.5 -154.5t155.5 -55.5t155.5 55.5
t56.5 154.5v475h21v-477q0 -107 -64 -168q-63 -60 -169 -60t-170 60q-63 62 -63 168z" />
    <glyph glyph-name="uring" unicode="&#x16f;" horiz-adv-x="526" 
d="M307 577q-18 -18 -44 -18t-45 18q-18 19 -18 44t18 43q19 19 45 19t44 -19q19 -18 19 -43t-19 -44zM233 591q13 -12 30 -12t29 12q13 13 13 30t-13 29q-12 13 -29 13t-30 -13q-12 -12 -12 -29t12 -30zM59 186v318h21v-316q0 -85 48 -131.5t135 -46.5t135 46.5t48 131.5
v316h21v-318q0 -93 -54 -144.5t-150 -51.5t-150 51.5t-54 144.5z" />
    <glyph glyph-name="Uhungarumlaut" unicode="&#x170;" horiz-adv-x="655" 
d="M407 745h-18l80 145h26zM253 745h-18l80 145h26zM95 220v477h21v-475q0 -99 56.5 -154.5t155.5 -55.5t155.5 55.5t56.5 154.5v475h21v-477q0 -107 -64 -168q-63 -60 -169 -60t-170 60q-63 62 -63 168z" />
    <glyph glyph-name="uhungarumlaut" unicode="&#x171;" horiz-adv-x="526" 
d="M336 552h-18l80 145h26zM190 552h-18l80 145h26zM59 186v318h21v-316q0 -85 48 -131.5t135 -46.5t135 46.5t48 131.5v316h21v-318q0 -93 -54 -144.5t-150 -51.5t-150 51.5t-54 144.5z" />
    <glyph glyph-name="Uogonek" unicode="&#x172;" horiz-adv-x="655" 
d="M95 220v477h21v-475q0 -99 56.5 -154.5t155.5 -55.5t155.5 55.5t56.5 154.5v475h21v-477q0 -146 -115 -204q-20 -11 -56 -32q-25 -16 -43.5 -41.5t-18.5 -51.5q0 -24 16 -39t40 -15q34 0 60 15l-5 -22q-38 -24 -87 -7t-45 65q0 35 23.5 66t61.5 47q-24 -9 -64 -9
q-106 0 -170 60q-63 62 -63 168z" />
    <glyph glyph-name="uogonek" unicode="&#x173;" horiz-adv-x="526" 
d="M59 186v318h21v-316q0 -85 48 -131.5t135 -46.5t135 46.5t48 131.5v316h21v-318q0 -118 -93 -174q-46 -28 -74 -52q-35 -31 -35 -69q0 -24 16 -39t40 -15q35 0 60 15l-5 -22q-38 -24 -87 -7t-45 65q0 34 22.5 64t56.5 45q-32 -7 -60 -7q-96 0 -150 51.5t-54 144.5z" />
    <glyph glyph-name="Wcircumflex" unicode="&#x174;" horiz-adv-x="936" 
d="M468 641l-212 -654l-221 710h22l200 -641l211 654l211 -654l200 641h22l-221 -710zM352 769h-27l143 133l143 -133h-27l-116 107z" />
    <glyph glyph-name="wcircumflex" unicode="&#x175;" horiz-adv-x="762" 
d="M381 460l-173 -475l-184 519h21l164 -459l172 473l172 -473l166 459h21l-186 -519zM265 576h-27l143 133l143 -133h-27l-116 107z" />
    <glyph glyph-name="Ycircumflex" unicode="&#x176;" horiz-adv-x="567" 
d="M294 0h-21v303l-241 394h24l227 -371l228 371h24l-241 -394v-303zM167 769h-27l143 133l143 -133h-27l-116 107z" />
    <glyph glyph-name="ycircumflex" unicode="&#x177;" horiz-adv-x="481" 
d="M140 -193l82 194l-199 503h23l187 -477l202 477h23l-296 -697h-22zM118 576h-27l143 133l143 -133h-27l-116 107z" />
    <glyph glyph-name="Ydieresis" unicode="&#x178;" horiz-adv-x="567" 
d="M386 771q-19 0 -19 19q0 12 12 17.5t20 -4.5q10 -8 4.5 -20t-17.5 -12zM181 771q-19 0 -19 19t19 19q18 0 18.5 -19t-18.5 -19zM294 0h-21v303l-241 394h24l227 -371l228 371h24l-241 -394v-303z" />
    <glyph glyph-name="Zacute" unicode="&#x179;" horiz-adv-x="613" 
d="M562 0h-541l515 677h-435v20h476l-515 -677h500v-20zM330 745h-18l68 145h25z" />
    <glyph glyph-name="zacute" unicode="&#x17a;" horiz-adv-x="486" 
d="M433 0h-428l394 485h-341v19h383l-394 -485h386v-19zM231 552h-18l68 145h25z" />
    <glyph glyph-name="Zdotaccent" unicode="&#x17b;" horiz-adv-x="613" 
d="M562 0h-541l515 677h-435v20h476l-515 -677h500v-20zM333 775q-19 0 -19 19t19 19q18 0 18.5 -19t-18.5 -19z" />
    <glyph glyph-name="zdotaccent" unicode="&#x17c;" horiz-adv-x="486" 
d="M242 621q-19 0 -19 19q0 12 12 17.5t20 -4.5q10 -8 4.5 -20t-17.5 -12zM433 0h-428l394 485h-341v19h383l-394 -485h386v-19z" />
    <glyph glyph-name="Zcaron" unicode="&#x17d;" horiz-adv-x="613" 
d="M482 890l-143 -133l-143 133h27l116 -107l116 107h27zM562 0h-541l515 677h-435v20h476l-515 -677h500v-20z" />
    <glyph glyph-name="zcaron" unicode="&#x17e;" horiz-adv-x="486" 
d="M390 697l-143 -133l-143 133h27l116 -107l116 107h27zM433 0h-428l394 485h-341v19h383l-394 -485h386v-19z" />
    <glyph glyph-name="florin" unicode="&#x192;" horiz-adv-x="347" 
d="M53 -101h-21l106 501h-76l3 20h77l31 144q30 143 146 143q9 0 39 -2l-3 -20q-20 2 -41 2q-93 0 -120 -121l-31 -146h123l-3 -20h-124z" />
    <glyph glyph-name="Aringacute" unicode="&#x1fa;" horiz-adv-x="640" 
d="M58 0h-23l274 698q-22 4 -37 21t-15 40q0 25 18.5 43.5t44.5 18.5t44.5 -18.5t18.5 -43.5q0 -22 -15 -39.5t-38 -21.5l275 -698h-23l-84 211h-356zM290 729q13 -12 30 -12t29 12q13 13 13 30t-13 29q-12 13 -29 13t-30 -13q-12 -12 -12 -29t12 -30zM320 668l-170 -437
h340zM330 855h-18l68 145h25z" />
    <glyph glyph-name="aringacute" unicode="&#x1fb;" 
d="M312 729h-18l68 145h25zM346 585q-18 -18 -44 -18t-45 18q-18 19 -18 44t18 43q19 19 45 19t44 -19q19 -18 19 -43t-19 -44zM272 599q13 -12 30 -12t29 12q13 13 13 30t-13 29q-12 13 -29 13t-30 -13q-12 -12 -12 -29t12 -30zM43 252q0 112 73 186q73 76 180 76
q79 0 140 -41t86 -111v142h21v-504h-21v142q-25 -70 -86 -111t-140 -41q-106 0 -180 75q-73 74 -73 187zM64 252q0 -102 66 -173q68 -69 166 -69q97 0 162 68t65 174t-65 174t-162 68q-98 0 -166 -71q-66 -71 -66 -171z" />
    <glyph glyph-name="AEacute" unicode="&#x1fc;" horiz-adv-x="960" 
d="M51 0h-27l536 697h330v-20h-316v-298h297v-20h-297v-339h323v-20h-344v196h-351zM553 654l-336 -438h336v438zM566 745h-18l68 145h25z" />
    <glyph glyph-name="aeacute" unicode="&#x1fd;" horiz-adv-x="918" 
d="M44 135q0 64 43 101.5t117 37.5h108q107 0 107 95q0 59 -40 92t-107 33q-54 0 -96 -25t-65 -70l-18 8q26 52 72.5 79.5t106.5 27.5q75 0 120.5 -37t45.5 -99q23 61 79 98q59 38 127 38q98 0 165 -75q67 -74 67 -186v-5h-449q0 -102 62 -170t156 -68q108 0 180 80l14 -13
q-73 -87 -194 -87q-72 0 -130 38.5t-84 104.5q-12 -69 -67.5 -106t-146.5 -37q-80 0 -126.5 39.5t-46.5 105.5zM65 135q0 -56 39.5 -90.5t115.5 -34.5q93 0 144.5 43t51.5 119q-9 31 -9 77q0 28 5 46q-26 -42 -100 -42h-108q-65 0 -102 -31t-37 -87zM428 268h426
q-4 96 -65 161q-59 65 -145 65q-88 0 -150 -65t-66 -161zM447 552h-18l68 145h25z" />
    <glyph glyph-name="Oslashacute" unicode="&#x1fe;" horiz-adv-x="823" 
d="M149 -25l-16 12l58 76q-64 49 -100 123.5t-36 161.5q0 152 103 255q104 104 254 104q118 0 212 -68l60 80l16 -13l-60 -80q61 -51 94.5 -123t33.5 -155q0 -153 -103 -256q-103 -102 -253 -102q-116 0 -205 62zM203 79l408 543q-88 65 -199 65q-141 0 -239 -98
q-97 -97 -97 -241q0 -83 33.5 -153t93.5 -116zM627 609l-408 -541q85 -58 193 -58q144 0 239 96q96 97 96 242q0 78 -31.5 146.5t-88.5 114.5zM412 745h-18l68 145h25z" />
    <glyph glyph-name="oslashacute" unicode="&#x1ff;" 
d="M115 -25l-16 11l43 58q-99 76 -99 208q0 112 75 187t185 75q83 0 150 -46l40 54l16 -11l-40 -54q95 -77 95 -205q0 -112 -75 -187t-186 -75q-82 0 -146 43zM154 60l287 392q-61 42 -138 42q-102 0 -171 -70q-68 -70 -68 -172q0 -122 90 -192zM457 440l-288 -391
q59 -39 134 -39q103 0 171 69q69 71 69 173q0 117 -86 188zM310 552h-18l68 145h25z" />
    <glyph glyph-name="Scommaaccent" unicode="&#x218;" horiz-adv-x="528" 
d="M54 86v29q81 -105 210 -105q90 0 141 42.5t51 115.5q0 72 -48 114q-26 24 -57 43q-29 18 -87 48q-87 45 -124 86t-37 95q0 71 46 112t126 41q83 0 133 -47v-27q-50 54 -136 54q-69 0 -108.5 -36t-39.5 -97q0 -48 33.5 -84t114.5 -78q117 -61 161 -106q44 -44 44 -118
q0 -81 -56.5 -129.5t-154.5 -48.5q-132 0 -212 96zM194 -193l68 145h25l-75 -145h-18z" />
    <glyph glyph-name="scommaaccent" unicode="&#x219;" horiz-adv-x="398" 
d="M37 64v30q55 -84 165 -84q67 0 105 30t38 82q0 37 -25 70q-8 12 -33 27q-13 8 -38 22q-20 11 -51 26q-69 34 -97 63.5t-28 69.5q0 52 35.5 83t96.5 31q63 0 106 -38v-26q-39 44 -106 44q-52 0 -81.5 -25t-29.5 -69q0 -33 24.5 -58t82.5 -53q94 -46 130 -79q35 -32 35 -88
q0 -59 -43.5 -95.5t-120.5 -36.5q-109 0 -165 74zM122 -193l68 145h25l-75 -145h-18z" />
    <glyph glyph-name="circumflex" unicode="&#x2c6;" horiz-adv-x="626" 
d="M196 576h-27l143 133l143 -133h-27l-116 107z" />
    <glyph glyph-name="caron" unicode="&#x2c7;" horiz-adv-x="626" 
d="M455 697l-143 -133l-143 133h27l116 -107l116 107h27z" />
    <glyph glyph-name="breve" unicode="&#x2d8;" horiz-adv-x="622" 
d="M205 697h21q18 -73 85 -73t85 73h21q-6 -42 -35 -67.5t-71 -25.5t-71 25.5t-35 67.5z" />
    <glyph glyph-name="dotaccent" unicode="&#x2d9;" horiz-adv-x="541" 
d="M271 622q-19 0 -19 19t19 19q7 0 13 -6t6 -13q0 -19 -19 -19z" />
    <glyph glyph-name="ring" unicode="&#x2da;" horiz-adv-x="255" 
d="M173 602q-18 -18 -44 -18t-45 18q-18 19 -18 44t18 43q19 19 45 19t44 -19q19 -18 19 -43t-19 -44zM99 616q13 -12 30 -12t29 12q13 13 13 30t-13 29q-12 13 -29 13t-30 -13q-12 -12 -12 -29t12 -30z" />
    <glyph glyph-name="ogonek" unicode="&#x2db;" horiz-adv-x="542" 
d="M178 -112q0 35 23 66t58 46h26q-86 -45 -86 -109q0 -24 16 -39t40 -15q35 0 60 15l-5 -22q-38 -24 -87 -7t-45 65z" />
    <glyph glyph-name="tilde" unicode="&#x2dc;" horiz-adv-x="598" 
d="M179 641l-15 1q4 28 23 45.5t47 17.5q30 0 70 -25q40 -24 64 -24q48 0 57 53l15 -1q-4 -33 -23 -52t-48 -19q-31 0 -71 24q-38 25 -63 25q-45 0 -56 -45z" />
    <glyph glyph-name="hungarumlaut" unicode="&#x2dd;" horiz-adv-x="601" 
d="M361 552h-18l80 145h26zM207 552h-18l80 145h26z" />
    <glyph glyph-name="pi" unicode="&#x3c0;" horiz-adv-x="585" 
d="M129 0h-23q73 216 74 484h-19q-38 0 -73.5 -18.5t-52.5 -50.5l-17 10q20 37 59.5 58t83.5 21h395l-4 -20h-92v-341q0 -66 20.5 -95t66.5 -29v-20h-1q-107 0 -107 133v352h-238q-1 -271 -72 -484z" />
    <glyph glyph-name="Wgrave" unicode="&#x1e80;" horiz-adv-x="936" 
d="M468 641l-212 -654l-221 710h22l200 -641l211 654l211 -654l200 641h22l-221 -710zM492 745h-18l-75 145h25z" />
    <glyph glyph-name="wgrave" unicode="&#x1e81;" horiz-adv-x="762" 
d="M381 460l-173 -475l-184 519h21l164 -459l172 473l172 -473l166 459h21l-186 -519zM408 552h-18l-75 145h25z" />
    <glyph glyph-name="Wacute" unicode="&#x1e82;" horiz-adv-x="936" 
d="M468 641l-212 -654l-221 710h22l200 -641l211 654l211 -654l200 641h22l-221 -710zM463 745h-18l68 145h25z" />
    <glyph glyph-name="wacute" unicode="&#x1e83;" horiz-adv-x="762" 
d="M381 460l-173 -475l-184 519h21l164 -459l172 473l172 -473l166 459h21l-186 -519zM370 552h-18l68 145h25z" />
    <glyph glyph-name="Wdieresis" unicode="&#x1e84;" horiz-adv-x="936" 
d="M571 771q-19 0 -19 19t19 19q18 0 18.5 -19t-18.5 -19zM366 771q-19 0 -19 19q0 12 12 17.5t20 -4.5q10 -8 4.5 -20t-17.5 -12zM468 641l-212 -654l-221 710h22l200 -641l211 654l211 -654l200 641h22l-221 -710z" />
    <glyph glyph-name="wdieresis" unicode="&#x1e85;" horiz-adv-x="762" 
d="M484 621q-19 0 -19 19q0 12 12 17.5t20 -4.5q10 -8 4.5 -20t-17.5 -12zM279 621q-19 0 -19 19t19 19q18 0 18.5 -19t-18.5 -19zM381 460l-173 -475l-184 519h21l164 -459l172 473l172 -473l166 459h21l-186 -519z" />
    <glyph glyph-name="Ygrave" unicode="&#x1ef2;" horiz-adv-x="567" 
d="M294 0h-21v303l-241 394h24l227 -371l228 371h24l-241 -394v-303zM309 745h-18l-75 145h25z" />
    <glyph glyph-name="ygrave" unicode="&#x1ef3;" horiz-adv-x="481" 
d="M140 -193l82 194l-199 503h23l187 -477l202 477h23l-296 -697h-22zM271 552h-18l-75 145h25z" />
    <glyph glyph-name="endash" unicode="&#x2013;" horiz-adv-x="472" 
d="M423 252h-374v20h374v-20z" />
    <glyph glyph-name="emdash" unicode="&#x2014;" horiz-adv-x="736" 
d="M687 252h-638v20h638v-20z" />
    <glyph glyph-name="quoteleft" unicode="&#x2018;" horiz-adv-x="162" 
d="M63 445h-31l118 252h17z" />
    <glyph glyph-name="quoteright" unicode="&#x2019;" horiz-adv-x="164" 
d="M20 445h-18l105 252h31z" />
    <glyph glyph-name="quotesinglbase" unicode="&#x201a;" horiz-adv-x="163" 
d="M23 -128h-17l99 239h30z" />
    <glyph glyph-name="quotedblleft" unicode="&#x201c;" horiz-adv-x="281" 
d="M182 445h-31l118 252h17zM63 445h-31l118 252h17z" />
    <glyph glyph-name="quotedblright" unicode="&#x201d;" horiz-adv-x="283" 
d="M139 445h-18l105 252h31zM20 445h-18l105 252h31z" />
    <glyph glyph-name="quotedblbase" unicode="&#x201e;" horiz-adv-x="279" 
d="M142 -128h-17l99 239h30zM23 -128h-17l99 239h30z" />
    <glyph glyph-name="dagger" unicode="&#x2020;" horiz-adv-x="304" 
d="M163 301h-21l1 260h-102v18h102l-1 118h21l-1 -118h101v-18h-101z" />
    <glyph glyph-name="daggerdbl" unicode="&#x2021;" horiz-adv-x="304" 
d="M162 301h-20l1 118h-102v18h102v124h-102v18h102l-1 118h20l-1 -118h102v-18h-102v-124h102v-18h-102z" />
    <glyph glyph-name="bullet" unicode="&#x2022;" horiz-adv-x="178" 
d="M89 220q-20 0 -29 20t6 35t35.5 7t20.5 -30q0 -13 -9.5 -22.5t-23.5 -9.5z" />
    <glyph glyph-name="ellipsis" unicode="&#x2026;" horiz-adv-x="402" 
d="M308 16q0 19 19 19q18 0 18.5 -19t-18.5 -19t-19 19zM182 16q0 19 19 19q18 0 18.5 -19t-18.5 -19t-19 19zM57 16q0 12 12 17.5t20 -4.5q10 -8 4.5 -20t-17.5 -12q-19 0 -19 19z" />
    <glyph glyph-name="perthousand" unicode="&#x2030;" horiz-adv-x="1074" 
d="M310 436q-46 -45 -110 -45t-110 45q-46 46 -46 111t46 110q46 46 110 46t110 -46q46 -45 46 -110t-46 -111zM141 0h-25l451 697h25zM200 683q-56 0 -96 -40q-39 -41 -39 -96t39 -96q40 -40 96 -40t95 40q40 40 40 96t-40 96t-95 40zM764 40q-45 47 -45 110q0 64 45 110
q46 46 111 46t110 -46q46 -46 46 -110t-46 -110q-45 -46 -110 -46t-111 46zM396 40q-45 46 -45 110t45 110q46 46 111 46t110 -46q46 -46 46 -110t-46 -110q-45 -46 -110 -46t-111 46zM875 286q-56 0 -96 -40q-39 -40 -39 -96t39 -96q40 -40 96 -40t95 40q40 40 40 96
t-40 96t-95 40zM507 286q-56 0 -96 -40q-39 -40 -39 -96t39 -96q40 -40 96 -40t95 40q40 40 40 96t-40 96t-95 40z" />
    <glyph glyph-name="guilsinglleft" unicode="&#x2039;" horiz-adv-x="218" 
d="M176 78h-23l-110 175l110 175h23l-110 -175z" />
    <glyph glyph-name="guilsinglright" unicode="&#x203a;" horiz-adv-x="218" 
d="M66 78h-23l110 175l-110 175h23l110 -175z" />
    <glyph glyph-name="fraction" unicode="&#x2044;" horiz-adv-x="502" 
d="M40 0h-25l451 697h25z" />
    <glyph glyph-name="zerosuperior" unicode="&#x2070;" horiz-adv-x="405" 
d="M77 431q-2 42 -2 82q0 39 2 81q5 48 41 79.5t84 31.5t84 -31.5t41 -79.5q2 -42 2 -81q0 -40 -2 -82q-5 -48 -41 -79.5t-84 -31.5t-84 31.5t-41 79.5zM306 433q2 22 2 80q0 57 -2 79q-4 41 -33 67t-71 26t-71 -26t-33 -67q-2 -22 -2 -79q0 -58 2 -80q4 -41 33 -67t71 -26
t71 26t33 67z" />
    <glyph glyph-name="foursuperior" unicode="&#x2074;" horiz-adv-x="352" 
d="M286 328h-21v90h-226l136 279h22l-125 -259h193v90h21v-200z" />
    <glyph glyph-name="fivesuperior" unicode="&#x2075;" horiz-adv-x="371" 
d="M171 320q-40 0 -73 22t-49 58l19 9q14 -32 41.5 -50.5t61.5 -18.5q47 0 79 32t32 79q0 46 -31.5 76t-78.5 30q-13 0 -25.5 -2.5t-21 -6t-17.5 -9.5t-14 -9.5t-11 -9t-7 -6.5l33 183h163v-20h-146l-23 -124q25 24 72 24q54 0 91 -36t37 -90q0 -56 -38 -94q-37 -37 -94 -37
z" />
    <glyph glyph-name="sixsuperior" unicode="&#x2076;" horiz-adv-x="389" 
d="M69 447q0 43 38 102l100 148h25l-97 -143q22 19 63 19q52 0 88 -37q36 -36 36 -89q0 -54 -37 -91q-37 -36 -90 -36t-90 36q-36 38 -36 91zM301 447q0 44 -30.5 75t-75.5 31t-75 -30.5t-30 -75.5q0 -46 30 -76.5t75 -30.5t75.5 30.5t30.5 76.5z" />
    <glyph glyph-name="sevensuperior" unicode="&#x2077;" horiz-adv-x="359" 
d="M145 328h-24l168 349h-214v20h247z" />
    <glyph glyph-name="eightsuperior" unicode="&#x2078;" horiz-adv-x="383" 
d="M75 435q0 38 23 67.5t59 38.5q-25 8 -39.5 29t-14.5 47q0 37 26 62.5t64 25.5t64 -25.5t26 -62.5q0 -26 -15 -47t-39 -29q36 -9 59 -38.5t23 -67.5q0 -49 -34 -82t-84 -33t-84 33t-34 82zM144 569q20 -20 49 -20t49 20t20 48t-20 48q-19 20 -49 20t-50 -20
q-19 -21 -19 -48.5t20 -47.5zM290 435q0 39 -28.5 66.5t-68.5 27.5t-68.5 -27.5t-28.5 -66.5q0 -40 28 -67.5t69 -27.5t69 27.5t28 67.5z" />
    <glyph glyph-name="ninesuperior" unicode="&#x2079;" horiz-adv-x="399" 
d="M187 328h-25l98 144q-22 -18 -62 -18q-51 0 -87 36t-36 89t36 89q37 37 89 37q53 0 89 -36q37 -36 37 -90q0 -43 -51 -120zM200 474q45 0 75 31t30 74q0 45 -30.5 75.5t-74.5 30.5t-74 -30.5t-30 -75.5q0 -44 30 -74.5t74 -30.5z" />
    <glyph glyph-name="zero.inferior" unicode="&#x2080;" horiz-adv-x="394" 
d="M72 103q-2 42 -2 82q0 39 2 81q5 48 41 79.5t84 31.5t84 -31.5t41 -79.5q2 -42 2 -81q0 -40 -2 -82q-5 -48 -41 -79.5t-84 -31.5t-84 31.5t-41 79.5zM93 105q4 -41 33 -67t71 -26t71 26t33 67q2 22 2 80q0 57 -2 79q-4 41 -33 67t-71 26t-71 -26t-33 -67q-2 -22 -2 -79
q0 -58 2 -80z" />
    <glyph glyph-name="one.inferior" unicode="&#x2081;" horiz-adv-x="229" 
d="M133 0h-21v349h-48v20h69v-369z" />
    <glyph glyph-name="two.inferior" unicode="&#x2082;" horiz-adv-x="346" 
d="M287 0h-239l182 211q27 32 27 65t-24 57t-58 24t-58 -24.5t-24 -59.5h-21q0 43 30 73.5t73 30.5t73 -30q30 -29 30 -71t-31 -78l-155 -178h195v-20z" />
    <glyph glyph-name="three.inferior" unicode="&#x2083;" horiz-adv-x="363" 
d="M50 75l19 7q15 -31 42 -50t62 -19q49 0 80.5 29t31.5 75q0 39 -29.5 67t-72.5 28q-42 0 -75 -14l143 151h-175v20h219l-135 -142q12 4 33 4q49 0 80 -34q33 -33 33 -80q0 -56 -37.5 -90t-95.5 -34q-41 0 -74.5 22.5t-48.5 59.5z" />
    <glyph glyph-name="four.inferior" unicode="&#x2084;" horiz-adv-x="352" 
d="M265 90h-226l136 279h22l-125 -259h193v90h21v-200h-21v90z" />
    <glyph glyph-name="five.inferior" unicode="&#x2085;" horiz-adv-x="371" 
d="M49 72l19 9q14 -32 41.5 -50.5t61.5 -18.5q47 0 79 32t32 79q0 46 -31.5 76t-78.5 30q-13 0 -25.5 -2.5t-21 -6t-17.5 -9.5t-14 -9.5t-11 -9t-7 -6.5l33 183h163v-20h-146l-23 -124q25 24 72 24q54 0 91 -36t37 -90q0 -56 -38 -94q-37 -37 -94 -37q-40 0 -73 22t-49 58z
" />
    <glyph glyph-name="six.inferior" unicode="&#x2086;" horiz-adv-x="389" 
d="M69 119q0 43 38 102l100 148h25l-97 -143q22 19 63 19q52 0 88 -37q36 -36 36 -89q0 -54 -37 -91q-37 -36 -90 -36t-90 36q-36 38 -36 91zM90 119q0 -46 30 -76.5t75 -30.5t75.5 30.5t30.5 76.5q0 44 -30.5 75t-75.5 31t-75 -30.5t-30 -75.5z" />
    <glyph glyph-name="seven.inferior" unicode="&#x2087;" horiz-adv-x="359" 
d="M145 0h-24l168 349h-214v20h247z" />
    <glyph glyph-name="eight.inferior" unicode="&#x2088;" horiz-adv-x="383" 
d="M75 107q0 38 23 67.5t59 38.5q-25 8 -39.5 29t-14.5 47q0 37 26 62.5t64 25.5t64 -25.5t26 -62.5q0 -26 -15 -47t-39 -29q36 -9 59 -38.5t23 -67.5q0 -49 -34 -82t-84 -33t-84 33t-34 82zM144 241q20 -20 49 -20t49 20t20 48t-20 48q-19 20 -49 20t-50 -20
q-19 -21 -19 -48.5t20 -47.5zM96 107q0 -40 28 -67.5t69 -27.5t69 27.5t28 67.5q0 39 -28.5 66.5t-68.5 27.5t-68.5 -27.5t-28.5 -66.5z" />
    <glyph glyph-name="nine.inferior" unicode="&#x2089;" horiz-adv-x="392" 
d="M185 0h-25l98 144q-22 -18 -62 -18q-51 0 -87 36t-36 89t36 89q37 37 89 37q53 0 89 -36q37 -36 37 -90q0 -43 -51 -120zM198 146q45 0 75 31t30 74q0 45 -30.5 75.5t-74.5 30.5t-74 -30.5t-30 -75.5q0 -44 30 -74.5t74 -30.5z" />
    <glyph glyph-name="Euro" unicode="&#x20ac;" horiz-adv-x="758" 
d="M134 265h-92l9 20h79q-5 25 -5 63q0 45 7 74h-66l9 20h61q28 118 118 191q91 74 209 74q140 0 239 -102l-14 -14q-93 96 -225 96q-110 0 -195 -68q-83 -68 -110 -177h306l-8 -20h-302q-8 -40 -8 -74q0 -32 6 -63h248l-9 -20h-235q23 -114 108 -184q86 -71 199 -71
q137 0 228 97l14 -14q-97 -103 -242 -103q-122 0 -213 76q-90 75 -116 199z" />
    <glyph glyph-name="uni2113" unicode="&#x2113;" horiz-adv-x="433" 
d="M96 170l-54 -46l-12 16l26 22l40 34v309q0 93 35 146.5t95 53.5q52 0 80 -35.5t28 -98.5q0 -185 -217 -387v-3q0 -169 122 -169q80 0 127 80l15 -10q-53 -90 -146 -90q-134 0 -139 178zM117 508v-295q196 187 196 358q0 56 -23 85t-65 29q-50 0 -79 -47t-29 -130z" />
    <glyph glyph-name="uni2116" unicode="&#x2116;" horiz-adv-x="1117" 
d="M122 0h-22v709l452 -651v639h22v-709l-452 651v-639zM679 484q0 79 56 135t136 56t136 -56t56 -135q0 -80 -57 -136q-55 -55 -135 -55t-136 55q-56 56 -56 136zM750 604q-50 -50 -50 -120q0 -69 50 -121q50 -50 121 -50t121 50q50 52 50 121q0 70 -51 120q-49 51 -120 51
q-70 0 -121 -51zM1046 199h-343v20h343v-20z" />
    <glyph glyph-name="trademark" unicode="&#x2122;" horiz-adv-x="777" 
d="M377 326h-21v371h4l173 -246l173 246h5v-371h-21v312l-157 -221l-156 221v-312zM180 326h-21v351h-129v20h280v-20h-130v-351z" />
    <glyph glyph-name="Omega" unicode="&#x2126;" horiz-adv-x="767" 
d="M329 0h-215v20h146q-95 49 -151 144q-54 95 -54 208q0 144 94 238q95 96 235 96t234 -96q95 -95 95 -238q0 -114 -55 -208q-56 -95 -151 -144h147v-20h-215q103 45 178 139q75 95 75 230t-88 226t-220 91t-220 -91t-88 -226t75 -230q75 -94 178 -139z" />
    <glyph glyph-name="estimated" unicode="&#x212e;" horiz-adv-x="925" 
d="M174 359v-250q116 -112 288 -112q96 0 178 36.5t137 102.5h11q-54 -69 -141.5 -108.5t-184.5 -39.5q-172 0 -291 110q-119 111 -119 272t119 271q120 111 291 111q174 0 292 -111q117 -110 119 -281v-1h-699zM174 630v-262h577v262q-116 113 -289 113q-169 0 -288 -113z
" />
    <glyph glyph-name="onethird" unicode="&#x2153;" horiz-adv-x="703" 
d="M63 0h-27l433 697h27zM121 328h-21v349h-48v20h69v-369zM386 75l19 7q15 -31 42 -50t62 -19q49 0 80.5 29t31.5 75q0 39 -29.5 67t-72.5 28q-42 0 -75 -14l143 151h-175v20h219l-135 -142q12 4 33 4q49 0 80 -34q33 -33 33 -80q0 -56 -37.5 -90t-95.5 -34
q-41 0 -74.5 22.5t-48.5 59.5z" />
    <glyph glyph-name="twothirds" unicode="&#x2154;" horiz-adv-x="838" 
d="M291 328h-239l182 211q27 31 27 65q0 33 -24 57t-58 24t-58 -24.5t-24 -59.5h-21q0 43 30 73.5t73 30.5t73 -30q30 -29 30 -71t-31 -78l-155 -178h195v-20zM217 0h-27l433 697h27zM521 75l19 7q15 -31 42 -50t62 -19q49 0 80.5 29t31.5 75q0 39 -29.5 67t-72.5 28
q-42 0 -75 -14l143 151h-175v20h219l-135 -142q12 4 33 4q49 0 80 -34q33 -33 33 -80q0 -56 -37.5 -90t-95.5 -34q-41 0 -74.5 22.5t-48.5 59.5z" />
    <glyph glyph-name="arrowleft" unicode="&#x2190;" horiz-adv-x="627" 
d="M228 99l-14 -14l-176 175l176 176l14 -14l-152 -152h507v-20h-507z" />
    <glyph glyph-name="arrowup" unicode="&#x2191;" horiz-adv-x="647" 
d="M334 0h-21v497l-148 -150l-14 14l173 174l173 -174l-14 -14l-149 150v-497z" />
    <glyph glyph-name="arrowright" unicode="&#x2192;" horiz-adv-x="627" 
d="M551 250h-507v20h507l-153 152l14 14l177 -176l-177 -175l-14 14z" />
    <glyph glyph-name="arrowdown" unicode="&#x2193;" horiz-adv-x="647" 
d="M324 -27l-173 173l14 14l148 -149v493h21v-493l149 149l14 -14z" />
    <glyph glyph-name="arrowboth" unicode="&#x2194;" horiz-adv-x="791" 
d="M228 99l-14 -14l-176 175l176 176l14 -14l-153 -152h640l-152 152l13 14l177 -176l-177 -175l-13 14l153 151h-641z" />
    <glyph glyph-name="arrowupdn" unicode="&#x2195;" horiz-adv-x="647" 
d="M323 -42l-168 169l14 14l143 -145v521l-143 -145l-14 14l168 169l169 -169l-14 -14l-144 145v-521l144 145l14 -14z" />
    <glyph glyph-name="arrownorthwest" unicode="&#x2196;" horiz-adv-x="647" 
d="M140 216h-21v249h250v-20h-216l379 -379l-14 -14l-378 378v-214z" />
    <glyph glyph-name="arrownortheast" unicode="&#x2197;" horiz-adv-x="647" 
d="M129 52l-14 14l379 379h-216v20h250v-249h-21v214z" />
    <glyph glyph-name="arrowsoutheast" unicode="&#x2198;" horiz-adv-x="647" 
d="M528 48h-250v20h216l-379 379l14 14l378 -378v214h21v-249z" />
    <glyph glyph-name="arrowsouthwest" unicode="&#x2199;" horiz-adv-x="647" 
d="M369 48h-250v249h21v-214l378 378l14 -14l-379 -379h216v-20z" />
    <glyph glyph-name="partialdiff" unicode="&#x2202;" horiz-adv-x="504" 
d="M44 197q0 100 58 165q59 66 149 66q69 0 118 -47q48 -46 51 -113q8 69 8 132q0 99 -36 191q-19 50 -59 79.5t-94 29.5q-71 0 -121 -59l-15 13q18 22 30 32q40 34 111 34q66 0 116.5 -48.5t70.5 -129.5q18 -59 18 -151q0 -108 -19 -183q-21 -94 -77 -155q-55 -60 -128 -60
q-79 0 -130 58t-51 146zM65 195q0 -77 44 -130q45 -52 116 -52q44 0 83.5 27.5t64.5 73.5q34 58 34 120q0 74 -45 124t-111 50q-81 0 -134 -59q-52 -58 -52 -154z" />
    <glyph glyph-name="increment" unicode="&#x2206;" horiz-adv-x="622" 
d="M591 0h-559l279 707zM311 656l-249 -636h499z" />
    <glyph glyph-name="product" unicode="&#x220f;" horiz-adv-x="627" 
d="M163 0h-21v677h-103v20h549v-20h-103v-677h-21v677h-301v-677z" />
    <glyph glyph-name="summation" unicode="&#x2211;" horiz-adv-x="581" 
d="M521 0h-488l265 369l-251 328h463v-20h-422l237 -308l-251 -349h447v-20z" />
    <glyph glyph-name="minus" unicode="&#x2212;" horiz-adv-x="400" 
d="M350 339h-300v20h300v-20z" />
    <glyph glyph-name="radical" unicode="&#x221a;" horiz-adv-x="725" 
d="M142 384l-92 -40l-8 19l110 48l221 -516l291 905h22l-310 -962z" />
    <glyph glyph-name="infinity" unicode="&#x221e;" horiz-adv-x="768" 
d="M196 202q-62 0 -101 35.5t-39 90.5q0 56 41 94q43 38 103 38q42 0 84 -27t102 -88q60 61 102 88t84 27q61 0 102 -38q42 -37 42 -94q0 -55 -39 -90.5t-101 -35.5q-46 0 -89.5 27.5t-100.5 86.5q-58 -60 -101.5 -87t-88.5 -27zM399 331l55 -53q21 -18 55 -37t66 -19
q53 0 86.5 29.5t33.5 76.5q0 48 -35 80t-88 32q-39 0 -79.5 -27t-93.5 -82zM197 222q32 0 66 19q31 17 54 37l56 53q-53 55 -93.5 82t-79.5 27q-53 0 -88 -32t-35 -80q0 -47 33.5 -76.5t86.5 -29.5z" />
    <glyph glyph-name="integral" unicode="&#x222b;" horiz-adv-x="326" 
d="M44 -95v20q13 -7 36 -7q47 0 66.5 42t19.5 134q0 60 -10 236q-9 184 -9 257q0 204 109 204q16 0 27 -4v-19q-15 3 -26 3q-89 0 -89 -185q0 -69 9 -255q10 -177 10 -239q0 -102 -25.5 -148t-80.5 -46q-19 0 -37 7z" />
    <glyph glyph-name="approxequal" unicode="&#x2248;" horiz-adv-x="403" 
d="M57 394l-16 3q6 28 28 44.5t55 16.5q32 0 81 -27t77 -27q56 0 68 45l16 -1q-14 -63 -83 -63q-34 0 -83 27t-76 27q-56 0 -67 -45zM63 259l-16 3q6 28 28 44.5t55 16.5q32 0 81 -27t77 -27q56 0 68 45l16 -1q-14 -63 -83 -63q-33 0 -83 27q-49 27 -76 27q-56 0 -67 -45z
" />
    <glyph glyph-name="notequal" unicode="&#x2260;" horiz-adv-x="442" 
d="M189 286l-88 -150l-16 10l82 140h-117v20h129l57 97h-186v20h198l87 147l17 -9l-82 -138h122v-20h-134l-57 -97h191v-20h-203z" />
    <glyph glyph-name="lessequal" unicode="&#x2264;" horiz-adv-x="404" 
d="M351 153l-316 203l316 203v-23l-282 -180l282 -180v-23zM351 49h-309v20h309v-20z" />
    <glyph glyph-name="greaterequal" unicode="&#x2265;" horiz-adv-x="402" 
d="M368 356l-316 -203v23l282 180l-282 180v23zM360 49h-308v20h308v-20z" />
    <glyph glyph-name="triagup" unicode="&#x25b2;" horiz-adv-x="337" 
d="M243 214h-146l72 125z" />
    <glyph glyph-name="triagrt" unicode="&#x25ba;" horiz-adv-x="337" 
d="M239 270l-124 -74v146z" />
    <glyph glyph-name="triagdn" unicode="&#x25bc;" horiz-adv-x="337" 
d="M243 324l-74 -124l-72 124h146z" />
    <glyph glyph-name="triaglf" unicode="&#x25c4;" horiz-adv-x="337" 
d="M222 196l-124 74l124 72v-146z" />
    <glyph glyph-name="lozenge" unicode="&#x25ca;" horiz-adv-x="529" 
d="M487 349l-222 -363l-222 363l222 360zM69 349l196 -321l196 321l-196 319z" />
    <glyph glyph-name="uni25E2" unicode="&#x25e2;" horiz-adv-x="337" 
d="M230 209l-141 36l103 103z" />
    <glyph glyph-name="uni25E3" unicode="&#x25e3;" horiz-adv-x="337" 
d="M250 245l-140 -35l37 138z" />
    <glyph glyph-name="uni25E4" unicode="&#x25e4;" horiz-adv-x="337" 
d="M246 303l-103 -103l-37 138z" />
    <glyph glyph-name="uni25E5" unicode="&#x25e5;" horiz-adv-x="337" 
d="M233 338l-35 -139l-103 102z" />
    <glyph glyph-name="CR" horiz-adv-x="333" 
 />
    <glyph glyph-name="space.frac" horiz-adv-x="30" 
 />
    <glyph glyph-name="C.alt" horiz-adv-x="728" 
d="M55 348q0 153 103 256t257 103q77 0 147 -30.5t119 -85.5l-15 -14q-45 52 -110.5 81t-140.5 29q-145 0 -242 -97t-97 -242t97 -242q97 -96 242 -96q75 0 140.5 29t110.5 81l15 -14q-49 -55 -119 -85.5t-147 -30.5q-153 0 -256 103q-104 104 -104 255z" />
    <glyph glyph-name="G.alt" horiz-adv-x="734" 
d="M54 347q0 154 102 256q103 103 254 103q114 0 202 -57l-11 -16q-85 53 -191 53q-144 0 -240 -97q-95 -98 -95 -242q0 -143 95 -241q96 -97 240 -97q140 0 234 84v248h-247v20h268v-277q-107 -95 -255 -95q-152 0 -254 102q-102 103 -102 256z" />
    <glyph glyph-name="K.alt" horiz-adv-x="604" 
d="M121 0h-21v697h21v-440l403 440h28l-283 -309l298 -388h-28l-285 372l-133 -145v-227z" />
    <glyph glyph-name="M.alt" horiz-adv-x="844" 
d="M56 0h-21l131 710l256 -666l256 666l131 -710h-21l-117 632l-249 -644l-249 644z" />
    <glyph glyph-name="Q.alt" horiz-adv-x="822" 
d="M55 348q0 152 103 255q104 104 253 104q150 0 254 -104q103 -103 103 -255q0 -80 -32 -151.5t-87 -117.5l76 -94l-16 -13l-75 95q-94 -77 -223 -77q-149 0 -253 102q-103 103 -103 256zM76 348q0 -144 96 -242q96 -96 239 -96q119 0 211 72l-144 178l16 13l142 -179
q111 98 111 254q0 144 -97 241q-98 98 -239 98q-140 0 -238 -98q-97 -97 -97 -241z" />
    <glyph glyph-name="S.alt" horiz-adv-x="541" 
d="M47 158l19 8q29 -75 86.5 -115.5t135.5 -40.5q85 0 133.5 43.5t48.5 113.5t-41 111t-140 84q-86 38 -127 72q-49 43 -49 117q0 68 47 112t118 44q116 0 165 -91l-18 -10q-45 81 -147 81q-63 0 -103.5 -37.5t-40.5 -97.5q0 -65 38 -100q39 -35 127 -72q104 -46 148 -90
t44 -123q0 -81 -54.5 -129t-148.5 -48q-86 0 -149 43.5t-92 124.5z" />
    <glyph glyph-name="W.alt" horiz-adv-x="920" 
d="M460 403l-157 -415l-268 709h23l245 -652l145 385l-100 267h23l89 -242l89 242h23l-100 -267l145 -385l245 652h23l-268 -709z" />
    <glyph glyph-name="Cacute.alt" horiz-adv-x="728" 
d="M55 348q0 153 103 256t257 103q77 0 147 -30.5t119 -85.5l-15 -14q-45 52 -110.5 81t-140.5 29q-145 0 -242 -97t-97 -242t97 -242q97 -96 242 -96q75 0 140.5 29t110.5 81l15 -14q-49 -55 -119 -85.5t-147 -30.5q-153 0 -256 103q-104 104 -104 255zM414 745h-18l68 145
h25z" />
    <glyph glyph-name="Ccircumflex.alt" horiz-adv-x="728" 
d="M303 769h-27l143 133l143 -133h-27l-116 107zM55 348q0 153 103 256t257 103q77 0 147 -30.5t119 -85.5l-15 -14q-45 52 -110.5 81t-140.5 29q-145 0 -242 -97t-97 -242t97 -242q97 -96 242 -96q75 0 140.5 29t110.5 81l15 -14q-49 -55 -119 -85.5t-147 -30.5
q-153 0 -256 103q-104 104 -104 255z" />
    <glyph glyph-name="Ccaron.alt" horiz-adv-x="728" 
d="M560 890l-143 -133l-143 133h27l116 -107l116 107h27zM55 348q0 153 103 256t257 103q77 0 147 -30.5t119 -85.5l-15 -14q-45 52 -110.5 81t-140.5 29q-145 0 -242 -97t-97 -242t97 -242q97 -96 242 -96q75 0 140.5 29t110.5 81l15 -14q-49 -55 -119 -85.5t-147 -30.5
q-153 0 -256 103q-104 104 -104 255z" />
    <glyph glyph-name="Cdotaccent.alt" horiz-adv-x="728" 
d="M418 775q-19 0 -19 19q0 12 12 17.5t20 -4.5q10 -8 4.5 -20t-17.5 -12zM55 348q0 153 103 256t257 103q77 0 147 -30.5t119 -85.5l-15 -14q-45 52 -110.5 81t-140.5 29q-145 0 -242 -97t-97 -242t97 -242q97 -96 242 -96q75 0 140.5 29t110.5 81l15 -14
q-49 -55 -119 -85.5t-147 -30.5q-153 0 -256 103q-104 104 -104 255z" />
    <glyph glyph-name="Ccedilla.alt" horiz-adv-x="728" 
d="M309 -144l10 14q22 -16 47 -16q17 0 28 8.5t11 21.5q0 37 -50 37q-1 0 -23 -2l33 75q-134 16 -223 116q-87 100 -87 238q0 153 103 256t257 103q77 0 147 -30.5t119 -85.5l-15 -14q-45 52 -110.5 81t-140.5 29q-145 0 -242 -97t-97 -242t97 -242q97 -96 242 -96
q75 0 140.5 29t110.5 81l15 -14q-49 -55 -119 -85.5t-147 -30.5q-24 0 -31 1l-25 -55q3 1 12 1q24 0 39.5 -14t15.5 -37q0 -24 -16 -37.5t-43 -13.5q-34 0 -58 21z" />
    <glyph glyph-name="Gcircumflex.alt" horiz-adv-x="734" 
d="M54 347q0 154 102 256q103 103 254 103q114 0 202 -57l-11 -16q-85 53 -191 53q-144 0 -240 -97q-95 -98 -95 -242q0 -143 95 -241q96 -97 240 -97q140 0 234 84v248h-247v20h268v-277q-107 -95 -255 -95q-152 0 -254 102q-102 103 -102 256zM297 769h-27l143 133
l143 -133h-27l-116 107z" />
    <glyph glyph-name="Gbreve.alt" horiz-adv-x="734" 
d="M54 347q0 154 102 256q103 103 254 103q114 0 202 -57l-11 -16q-85 53 -191 53q-144 0 -240 -97q-95 -98 -95 -242q0 -143 95 -241q96 -97 240 -97q140 0 234 84v248h-247v20h268v-277q-107 -95 -255 -95q-152 0 -254 102q-102 103 -102 256zM305 843h21q18 -73 85 -73
t85 73h21q-6 -42 -35 -67.5t-71 -25.5t-71 25.5t-35 67.5z" />
    <glyph glyph-name="Gdotaccent.alt" horiz-adv-x="734" 
d="M410 775q-19 0 -19 19q0 12 12 17.5t20 -4.5q10 -8 4.5 -20t-17.5 -12zM54 347q0 154 102 256q103 103 254 103q114 0 202 -57l-11 -16q-85 53 -191 53q-144 0 -240 -97q-95 -98 -95 -242q0 -143 95 -241q96 -97 240 -97q140 0 234 84v248h-247v20h268v-277
q-107 -95 -255 -95q-152 0 -254 102q-102 103 -102 256z" />
    <glyph glyph-name="Gcommaaccent.alt" horiz-adv-x="734" 
d="M54 347q0 154 102 256q103 103 254 103q114 0 202 -57l-11 -16q-85 53 -191 53q-144 0 -240 -97q-95 -98 -95 -242q0 -143 95 -241q96 -97 240 -97q140 0 234 84v248h-247v20h268v-277q-107 -95 -255 -95q-152 0 -254 102q-102 103 -102 256zM340 -193h-18l68 145h25z
" />
    <glyph glyph-name="Kcommaaccent.alt" horiz-adv-x="604" 
d="M121 0h-21v697h21v-440l403 440h28l-283 -309l298 -388h-28l-285 372l-133 -145v-227zM262 -193h-18l68 145h25z" />
    <glyph glyph-name="Sacute.alt" horiz-adv-x="541" 
d="M47 158l19 8q29 -75 86.5 -115.5t135.5 -40.5q85 0 133.5 43.5t48.5 113.5t-41 111t-140 84q-86 38 -127 72q-49 43 -49 117q0 68 47 112t118 44q116 0 165 -91l-18 -10q-45 81 -147 81q-63 0 -103.5 -37.5t-40.5 -97.5q0 -65 38 -100q39 -35 127 -72q104 -46 148 -90
t44 -123q0 -81 -54.5 -129t-148.5 -48q-86 0 -149 43.5t-92 124.5zM280 745h-18l68 145h25z" />
    <glyph glyph-name="Scircumflex.alt" horiz-adv-x="541" 
d="M47 158l19 8q29 -75 86.5 -115.5t135.5 -40.5q85 0 133.5 43.5t48.5 113.5t-41 111t-140 84q-86 38 -127 72q-49 43 -49 117q0 68 47 112t118 44q116 0 165 -91l-18 -10q-45 81 -147 81q-63 0 -103.5 -37.5t-40.5 -97.5q0 -65 38 -100q39 -35 127 -72q104 -46 148 -90
t44 -123q0 -81 -54.5 -129t-148.5 -48q-86 0 -149 43.5t-92 124.5zM169 769h-27l143 133l143 -133h-27l-116 107z" />
    <glyph glyph-name="Scaron.alt" horiz-adv-x="541" 
d="M47 158l19 8q29 -75 86.5 -115.5t135.5 -40.5q85 0 133.5 43.5t48.5 113.5t-41 111t-140 84q-86 38 -127 72q-49 43 -49 117q0 68 47 112t118 44q116 0 165 -91l-18 -10q-45 81 -147 81q-63 0 -103.5 -37.5t-40.5 -97.5q0 -65 38 -100q39 -35 127 -72q104 -46 148 -90
t44 -123q0 -81 -54.5 -129t-148.5 -48q-86 0 -149 43.5t-92 124.5zM427 890l-143 -133l-143 133h27l116 -107l116 107h27z" />
    <glyph glyph-name="Scommaaccent.alt" horiz-adv-x="541" 
d="M47 158l19 8q29 -75 86.5 -115.5t135.5 -40.5q85 0 133.5 43.5t48.5 113.5t-41 111t-140 84q-86 38 -127 72q-49 43 -49 117q0 68 47 112t118 44q116 0 165 -91l-18 -10q-45 81 -147 81q-63 0 -103.5 -37.5t-40.5 -97.5q0 -65 38 -100q39 -35 127 -72q104 -46 148 -90
t44 -123q0 -81 -54.5 -129t-148.5 -48q-86 0 -149 43.5t-92 124.5zM200 -193l68 145h25l-75 -145h-18z" />
    <glyph glyph-name="Scedilla.alt" horiz-adv-x="541" 
d="M47 158l19 8q29 -75 86.5 -115.5t135.5 -40.5q85 0 133.5 43.5t48.5 113.5t-41 111t-140 84q-86 38 -127 72q-49 43 -49 117q0 68 47 112t118 44q116 0 165 -91l-18 -10q-45 81 -147 81q-63 0 -103.5 -37.5t-40.5 -97.5q0 -65 38 -100q39 -35 127 -72q104 -46 148 -90
t44 -123q0 -81 -53 -128.5t-146 -48.5l-24 -54q3 1 12 1q24 0 39.5 -14t15.5 -37q0 -24 -16 -37.5t-43 -13.5q-34 0 -58 21l10 14q22 -16 47 -16q17 0 28 8.5t11 21.5q0 37 -50 37q-1 0 -23 -2l31 72q-81 4 -139.5 47t-85.5 120z" />
    <glyph glyph-name="Wgrave.alt" horiz-adv-x="920" 
d="M460 403l-157 -415l-268 709h23l245 -652l145 385l-100 267h23l89 -242l89 242h23l-100 -267l145 -385l245 652h23l-268 -709zM468 745h-18l-75 145h25z" />
    <glyph glyph-name="Wacute.alt" horiz-adv-x="920" 
d="M460 403l-157 -415l-268 709h23l245 -652l145 385l-100 267h23l89 -242l89 242h23l-100 -267l145 -385l245 652h23l-268 -709zM455 745h-18l68 145h25z" />
    <glyph glyph-name="Wcircumflex.alt" horiz-adv-x="920" 
d="M460 403l-157 -415l-268 709h23l245 -652l145 385l-100 267h23l89 -242l89 242h23l-100 -267l145 -385l245 652h23l-268 -709zM344 769h-27l143 133l143 -133h-27l-116 107z" />
    <glyph glyph-name="Wdieresis.alt" horiz-adv-x="920" 
d="M563 771q-19 0 -19 19t19 19q18 0 18.5 -19t-18.5 -19zM358 771q-19 0 -19 19q0 12 12 17.5t20 -4.5q10 -8 4.5 -20t-17.5 -12zM460 403l-157 -415l-268 709h23l245 -652l145 385l-100 267h23l89 -242l89 242h23l-100 -267l145 -385l245 652h23l-268 -709z" />
    <glyph glyph-name="a.alt" horiz-adv-x="512" 
d="M253 281q55 1 93 12q60 17 60 90q0 48 -37.5 79.5t-103.5 31.5q-104 0 -151 -95l-18 8q24 51 68 79t101 28q72 0 117 -36.5t45 -96.5v-303q0 -35 8.5 -48.5t31.5 -13.5q8 0 18 2v-17q-7 -4 -24 -4q-30 0 -44 23q-10 17 -10 60q-47 -90 -187 -90q-76 0 -121 38.5
t-45 105.5t51.5 105t147.5 42zM75 134q0 -54 38 -89t109 -35q88 0 136 40.5t48 101.5v160q-15 -28 -47 -37.5t-105 -13.5q-179 -8 -179 -127z" />
    <glyph glyph-name="c.alt" horiz-adv-x="532" 
d="M306 514q118 0 191 -81l-13 -14q-71 75 -178 75q-104 0 -173 -70q-69 -69 -69 -172q0 -102 69 -173q69 -69 173 -69q107 0 178 75l13 -14q-73 -81 -191 -81q-110 0 -187 75q-76 75 -76 187t76 187t187 75z" />
    <glyph glyph-name="e.alt" horiz-adv-x="562" 
d="M43 251v1q0 112 69 187q70 75 171 75q99 0 167 -74q69 -74 69 -179q0 -11 -1 -14h-454q2 -103 63 -171q63 -67 157 -67q106 0 177 80l14 -13q-74 -87 -191 -87q-103 0 -172 74q-69 75 -69 188zM65 267h432q-1 95 -64 161q-61 66 -150 66q-90 0 -153 -66q-64 -65 -65 -161
z" />
    <glyph glyph-name="g.alt" horiz-adv-x="608" 
d="M66 -125l12 15q74 -74 219 -74q102 0 159 48q66 54 66 191v87q-25 -69 -86 -109.5t-140 -40.5q-106 0 -180 74q-73 74 -73 186t73 186q73 76 180 76q79 0 140 -41t86 -111v142h21v-440q0 -81 -15.5 -131.5t-57.5 -84.5q-64 -52 -173 -52q-155 0 -231 79zM64 252
q0 -102 66 -171q68 -69 166 -69t162 67q65 68 65 173q0 106 -65 174t-162 68q-98 0 -166 -71q-66 -71 -66 -171z" />
    <glyph glyph-name="j.alt" horiz-adv-x="151" 
d="M76 622q-19 0 -19 19t19 18.5t19 -18.5q0 -19 -19 -19zM86 -193h-21v697h21v-697z" />
    <glyph glyph-name="k.alt" horiz-adv-x="426" 
d="M86 0h-21v697h21v-502l280 309h28l-200 -221l218 -283h-27l-206 267l-93 -102v-165z" />
    <glyph glyph-name="l.alt" horiz-adv-x="257" 
d="M66 127v570h21v-569q0 -118 91 -118q23 0 48 5v-20q-25 -5 -48 -5q-112 0 -112 137z" />
    <glyph glyph-name="r.alt" horiz-adv-x="327" 
d="M86 0h-21v347q0 90 37.5 131t116.5 41q31 0 63 -6v-20q-30 6 -63 6q-70 0 -101.5 -35.5t-31.5 -118.5v-345z" />
    <glyph glyph-name="s.alt" horiz-adv-x="392" 
d="M26 113l18 7q44 -110 167 -110q59 0 93 30t34 80q0 51 -29 78q-27 27 -103 61q-68 30 -100 59q-31 28 -31 84q0 49 35.5 80.5t89.5 31.5q83 0 121 -68l-18 -9q-31 57 -103 57q-45 0 -74 -26t-29 -66q0 -45 27 -71t94 -55q77 -34 110 -67q32 -32 32 -89q0 -58 -40.5 -94
t-108.5 -36t-116 32.5t-69 90.5z" />
    <glyph glyph-name="t.alt" horiz-adv-x="324" 
d="M97 138v346h-59v20h59v193h21v-193h169v-20h-169v-346q0 -69 26 -99t85 -30q33 0 58 6v-19q-24 -6 -56 -6q-69 0 -101.5 34.5t-32.5 113.5z" />
    <glyph glyph-name="u.alt" horiz-adv-x="532" 
d="M59 206v298h21v-294q0 -93 49 -146q50 -53 129 -53q88 0 138 63.5t50 171.5v258h21v-504h-21v134q-13 -63 -64.5 -103t-126.5 -40q-87 0 -142 58q-54 58 -54 157z" />
    <glyph glyph-name="y.alt" horiz-adv-x="478" 
d="M43 -197v20q15 -7 41 -7q32 0 54 19q21 18 45 75l38 90l-198 504h23l187 -477l198 477h23l-249 -596q-29 -68 -54 -89q-29 -23 -67 -23q-27 0 -41 7z" />
    <glyph glyph-name="w.alt" horiz-adv-x="763" 
d="M381 295l-135 -310l-223 519h23l200 -468l122 281l-81 187h23l71 -165l72 165h23l-82 -187l123 -281l200 468h23l-223 -519z" />
    <glyph glyph-name="agrave.alt" horiz-adv-x="512" 
d="M253 281q55 1 93 12q60 17 60 90q0 48 -37.5 79.5t-103.5 31.5q-104 0 -151 -95l-18 8q24 51 68 79t101 28q72 0 117 -36.5t45 -96.5v-303q0 -35 8.5 -48.5t31.5 -13.5q8 0 18 2v-17q-7 -4 -24 -4q-30 0 -44 23q-10 17 -10 60q-47 -90 -187 -90q-76 0 -121 38.5
t-45 105.5t51.5 105t147.5 42zM75 134q0 -54 38 -89t109 -35q88 0 136 40.5t48 101.5v160q-15 -28 -47 -37.5t-105 -13.5q-179 -8 -179 -127zM292 552h-18l-75 145h25z" />
    <glyph glyph-name="aacute.alt" horiz-adv-x="512" 
d="M253 281q55 1 93 12q60 17 60 90q0 48 -37.5 79.5t-103.5 31.5q-104 0 -151 -95l-18 8q24 51 68 79t101 28q72 0 117 -36.5t45 -96.5v-303q0 -35 8.5 -48.5t31.5 -13.5q8 0 18 2v-17q-7 -4 -24 -4q-30 0 -44 23q-10 17 -10 60q-47 -90 -187 -90q-76 0 -121 38.5
t-45 105.5t51.5 105t147.5 42zM75 134q0 -54 38 -89t109 -35q88 0 136 40.5t48 101.5v160q-15 -28 -47 -37.5t-105 -13.5q-179 -8 -179 -127zM261 552h-18l68 145h25z" />
    <glyph glyph-name="acircumflex.alt" horiz-adv-x="512" 
d="M253 281q55 1 93 12q60 17 60 90q0 48 -37.5 79.5t-103.5 31.5q-104 0 -151 -95l-18 8q24 51 68 79t101 28q72 0 117 -36.5t45 -96.5v-303q0 -35 8.5 -48.5t31.5 -13.5q8 0 18 2v-17q-7 -4 -24 -4q-30 0 -44 23q-10 17 -10 60q-47 -90 -187 -90q-76 0 -121 38.5
t-45 105.5t51.5 105t147.5 42zM75 134q0 -54 38 -89t109 -35q88 0 136 40.5t48 101.5v160q-15 -28 -47 -37.5t-105 -13.5q-179 -8 -179 -127zM151 576h-27l143 133l143 -133h-27l-116 107z" />
    <glyph glyph-name="atilde.alt" horiz-adv-x="512" 
d="M253 281q55 1 93 12q60 17 60 90q0 48 -37.5 79.5t-103.5 31.5q-104 0 -151 -95l-18 8q24 51 68 79t101 28q72 0 117 -36.5t45 -96.5v-303q0 -35 8.5 -48.5t31.5 -13.5q8 0 18 2v-17q-7 -4 -24 -4q-30 0 -44 23q-10 17 -10 60q-47 -90 -187 -90q-76 0 -121 38.5
t-45 105.5t51.5 105t147.5 42zM75 134q0 -54 38 -89t109 -35q88 0 136 40.5t48 101.5v160q-15 -28 -47 -37.5t-105 -13.5q-179 -8 -179 -127zM141 602l-15 1q4 28 23 45.5t47 17.5q30 0 70 -25q40 -24 64 -24q48 0 57 53l15 -1q-4 -33 -23 -52t-48 -19q-31 0 -71 24
q-38 25 -63 25q-45 0 -56 -45z" />
    <glyph glyph-name="adieresis.alt" horiz-adv-x="512" 
d="M362 621q-19 0 -19 19q0 12 12 17.5t20 -4.5q10 -8 4.5 -20t-17.5 -12zM174 621q-19 0 -19 19q0 12 12 17.5t20 -4.5q10 -8 4.5 -20t-17.5 -12zM253 281q55 1 93 12q60 17 60 90q0 48 -37.5 79.5t-103.5 31.5q-104 0 -151 -95l-18 8q24 51 68 79t101 28q72 0 117 -36.5
t45 -96.5v-303q0 -35 8.5 -48.5t31.5 -13.5q8 0 18 2v-17q-7 -4 -24 -4q-30 0 -44 23q-10 17 -10 60q-47 -90 -187 -90q-76 0 -121 38.5t-45 105.5t51.5 105t147.5 42zM75 134q0 -54 38 -89t109 -35q88 0 136 40.5t48 101.5v160q-15 -28 -47 -37.5t-105 -13.5
q-179 -8 -179 -127z" />
    <glyph glyph-name="amacron.alt" horiz-adv-x="512" 
d="M420 615h-293v20h293v-20zM253 281q55 1 93 12q60 17 60 90q0 48 -37.5 79.5t-103.5 31.5q-104 0 -151 -95l-18 8q24 51 68 79t101 28q72 0 117 -36.5t45 -96.5v-303q0 -35 8.5 -48.5t31.5 -13.5q8 0 18 2v-17q-7 -4 -24 -4q-30 0 -44 23q-10 17 -10 60q-47 -90 -187 -90
q-76 0 -121 38.5t-45 105.5t51.5 105t147.5 42zM75 134q0 -54 38 -89t109 -35q88 0 136 40.5t48 101.5v160q-15 -28 -47 -37.5t-105 -13.5q-179 -8 -179 -127z" />
    <glyph glyph-name="abreve.alt" horiz-adv-x="512" 
d="M253 281q55 1 93 12q60 17 60 90q0 48 -37.5 79.5t-103.5 31.5q-104 0 -151 -95l-18 8q24 51 68 79t101 28q72 0 117 -36.5t45 -96.5v-303q0 -35 8.5 -48.5t31.5 -13.5q8 0 18 2v-17q-7 -4 -24 -4q-30 0 -44 23q-10 17 -10 60q-47 -90 -187 -90q-76 0 -121 38.5
t-45 105.5t51.5 105t147.5 42zM75 134q0 -54 38 -89t109 -35q88 0 136 40.5t48 101.5v160q-15 -28 -47 -37.5t-105 -13.5q-179 -8 -179 -127zM161 697h21q18 -73 85 -73t85 73h21q-6 -42 -35 -67.5t-71 -25.5t-71 25.5t-35 67.5z" />
    <glyph glyph-name="aring.alt" horiz-adv-x="512" 
d="M253 281q55 1 93 12q60 17 60 90q0 48 -37.5 79.5t-103.5 31.5q-104 0 -151 -95l-18 8q24 51 68 79t101 28q72 0 117 -36.5t45 -96.5v-303q0 -35 8.5 -48.5t31.5 -13.5q8 0 18 2v-17q-7 -4 -24 -4q-30 0 -44 23q-10 17 -10 60q-47 -90 -187 -90q-76 0 -121 38.5
t-45 105.5t51.5 105t147.5 42zM75 134q0 -54 38 -89t109 -35q88 0 136 40.5t48 101.5v160q-15 -28 -47 -37.5t-105 -13.5q-179 -8 -179 -127zM314 585q-18 -18 -44 -18t-45 18q-18 19 -18 44t18 43q19 19 45 19t44 -19q19 -18 19 -43t-19 -44zM240 599q13 -12 30 -12t29 12
q13 13 13 30t-13 29q-12 13 -29 13t-30 -13q-12 -12 -12 -29t12 -30z" />
    <glyph glyph-name="aringacute.alt" horiz-adv-x="512" 
d="M275 730h-18l68 145h25zM314 585q-18 -18 -44 -18t-45 18q-18 19 -18 44t18 43q19 19 45 19t44 -19q19 -18 19 -43t-19 -44zM240 599q13 -12 30 -12t29 12q13 13 13 30t-13 29q-12 13 -29 13t-30 -13q-12 -12 -12 -29t12 -30zM253 281q55 1 93 12q60 17 60 90
q0 48 -37.5 79.5t-103.5 31.5q-104 0 -151 -95l-18 8q24 51 68 79t101 28q72 0 117 -36.5t45 -96.5v-303q0 -35 8.5 -48.5t31.5 -13.5q8 0 18 2v-17q-7 -4 -24 -4q-30 0 -44 23q-10 17 -10 60q-47 -90 -187 -90q-76 0 -121 38.5t-45 105.5t51.5 105t147.5 42zM75 134
q0 -54 38 -89t109 -35q88 0 136 40.5t48 101.5v160q-15 -28 -47 -37.5t-105 -13.5q-179 -8 -179 -127z" />
    <glyph glyph-name="aogonek.alt" horiz-adv-x="513" 
d="M253 281q55 1 93 12q60 17 60 90q0 48 -37.5 79.5t-103.5 31.5q-104 0 -151 -95l-18 8q24 51 68 79t101 28q72 0 117 -36.5t45 -96.5v-303q0 -35 8.5 -48.5t31.5 -13.5q8 0 18 2v-17q-78 -43 -78 -105q0 -24 16 -39t40 -15q35 0 60 15l-5 -22q-24 -14 -58 -13t-54 20
q-31 30 -15 82t61 74q-25 3 -35 22q-10 17 -10 60q-47 -90 -187 -90q-76 0 -121 38.5t-45 105.5t51.5 105t147.5 42zM75 134q0 -54 38 -89t109 -35q88 0 136 40.5t48 101.5v160q-15 -28 -47 -37.5t-105 -13.5q-179 -8 -179 -127z" />
    <glyph glyph-name="cacute.alt" horiz-adv-x="533" 
d="M306 514q118 0 191 -81l-13 -14q-71 75 -178 75q-104 0 -173 -70q-69 -69 -69 -172q0 -102 69 -173q69 -69 173 -69q107 0 178 75l13 -14q-73 -81 -191 -81q-110 0 -187 75q-76 75 -76 187t76 187t187 75zM305 552h-18l68 145h25z" />
    <glyph glyph-name="ccircumflex.alt" horiz-adv-x="533" 
d="M189 576h-27l143 133l143 -133h-27l-116 107zM306 514q118 0 191 -81l-13 -14q-71 75 -178 75q-104 0 -173 -70q-69 -69 -69 -172q0 -102 69 -173q69 -69 173 -69q107 0 178 75l13 -14q-73 -81 -191 -81q-110 0 -187 75q-76 75 -76 187t76 187t187 75z" />
    <glyph glyph-name="ccaron.alt" horiz-adv-x="533" 
d="M449 697l-143 -133l-143 133h27l116 -107l116 107h27zM306 514q118 0 191 -81l-13 -14q-71 75 -178 75q-104 0 -173 -70q-69 -69 -69 -172q0 -102 69 -173q69 -69 173 -69q107 0 178 75l13 -14q-73 -81 -191 -81q-110 0 -187 75q-76 75 -76 187t76 187t187 75z" />
    <glyph glyph-name="cdotaccent.alt" horiz-adv-x="533" 
d="M306 619q-19 0 -19 19q0 12 12 17.5t20 -4.5q10 -8 4.5 -20t-17.5 -12zM306 514q118 0 191 -81l-13 -14q-71 75 -178 75q-104 0 -173 -70q-69 -69 -69 -172q0 -102 69 -173q69 -69 173 -69q107 0 178 75l13 -14q-73 -81 -191 -81q-110 0 -187 75q-76 75 -76 187t76 187
t187 75z" />
    <glyph glyph-name="ccedilla.alt" horiz-adv-x="533" 
d="M232 -81l33 74q-96 13 -160 86q-62 73 -62 173q0 112 76 187t187 75q118 0 191 -81l-13 -14q-71 75 -178 75q-104 0 -173 -70q-69 -69 -69 -172q0 -102 69 -173q69 -69 173 -69q107 0 178 75l13 -14q-73 -81 -191 -81q-17 0 -22 1l-25 -55q3 1 12 1q24 0 39.5 -14
t15.5 -37q0 -24 -16 -37.5t-43 -13.5q-34 0 -58 21l10 14q22 -16 47 -16q17 0 28 8.5t11 21.5q0 37 -50 37q-1 0 -23 -2z" />
    <glyph glyph-name="egrave.alt" horiz-adv-x="562" 
d="M43 251v1q0 112 69 187q70 75 171 75q99 0 167 -74q69 -74 69 -179q0 -11 -1 -14h-454q2 -103 63 -171q63 -67 157 -67q106 0 177 80l14 -13q-74 -87 -191 -87q-103 0 -172 74q-69 75 -69 188zM65 267h432q-1 95 -64 161q-61 66 -150 66q-90 0 -153 -66q-64 -65 -65 -161
zM306 552h-18l-75 145h25z" />
    <glyph glyph-name="eacute.alt" horiz-adv-x="562" 
d="M43 251v1q0 112 69 187q70 75 171 75q99 0 167 -74q69 -74 69 -179q0 -11 -1 -14h-454q2 -103 63 -171q63 -67 157 -67q106 0 177 80l14 -13q-74 -87 -191 -87q-103 0 -172 74q-69 75 -69 188zM65 267h432q-1 95 -64 161q-61 66 -150 66q-90 0 -153 -66q-64 -65 -65 -161
zM275 552h-18l68 145h25z" />
    <glyph glyph-name="ecircumflex.alt" horiz-adv-x="562" 
d="M43 251v1q0 112 69 187q70 75 171 75q99 0 167 -74q69 -74 69 -179q0 -11 -1 -14h-454q2 -103 63 -171q63 -67 157 -67q106 0 177 80l14 -13q-74 -87 -191 -87q-103 0 -172 74q-69 75 -69 188zM65 267h432q-1 95 -64 161q-61 66 -150 66q-90 0 -153 -66q-64 -65 -65 -161
zM173 576h-27l143 133l143 -133h-27l-116 107z" />
    <glyph glyph-name="ecaron.alt" horiz-adv-x="562" 
d="M43 251v1q0 112 69 187q70 75 171 75q99 0 167 -74q69 -74 69 -179q0 -11 -1 -14h-454q2 -103 63 -171q63 -67 157 -67q106 0 177 80l14 -13q-74 -87 -191 -87q-103 0 -172 74q-69 75 -69 188zM65 267h432q-1 95 -64 161q-61 66 -150 66q-90 0 -153 -66q-64 -65 -65 -161
zM429 697l-143 -133l-143 133h27l116 -107l116 107h27z" />
    <glyph glyph-name="edieresis.alt" horiz-adv-x="562" 
d="M43 251v1q0 112 69 187q70 75 171 75q99 0 167 -74q69 -74 69 -179q0 -11 -1 -14h-454q2 -103 63 -171q63 -67 157 -67q106 0 177 80l14 -13q-74 -87 -191 -87q-103 0 -172 74q-69 75 -69 188zM65 267h432q-1 95 -64 161q-61 66 -150 66q-90 0 -153 -66q-64 -65 -65 -161
zM385 621q-19 0 -19 19t19 19q18 0 18.5 -19t-18.5 -19zM179 621q-19 0 -19 19t19 19q18 0 18.5 -19t-18.5 -19z" />
    <glyph glyph-name="emacron.alt" horiz-adv-x="562" 
d="M43 251v1q0 112 69 187q70 75 171 75q99 0 167 -74q69 -74 69 -179q0 -11 -1 -14h-454q2 -103 63 -171q63 -67 157 -67q106 0 177 80l14 -13q-74 -87 -191 -87q-103 0 -172 74q-69 75 -69 188zM65 267h432q-1 95 -64 161q-61 66 -150 66q-90 0 -153 -66q-64 -65 -65 -161
zM430 615h-294v20h294v-20z" />
    <glyph glyph-name="ebreve.alt" horiz-adv-x="562" 
d="M43 251v1q0 112 69 187q70 75 171 75q99 0 167 -74q69 -74 69 -179q0 -11 -1 -14h-454q2 -103 63 -171q63 -67 157 -67q106 0 177 80l14 -13q-74 -87 -191 -87q-103 0 -172 74q-69 75 -69 188zM65 267h432q-1 95 -64 161q-61 66 -150 66q-90 0 -153 -66q-64 -65 -65 -161
zM178 697h21q18 -73 85 -73t85 73h21q-6 -42 -35 -67.5t-71 -25.5t-71 25.5t-35 67.5z" />
    <glyph glyph-name="edotaccent.alt" horiz-adv-x="562" 
d="M282 621q-19 0 -19 19q0 12 12 17.5t20 -4.5q10 -8 4.5 -20t-17.5 -12zM43 251v1q0 112 69 187q70 75 171 75q99 0 167 -74q69 -74 69 -179q0 -11 -1 -14h-454q2 -103 63 -171q63 -67 157 -67q106 0 177 80l14 -13q-74 -87 -191 -87q-103 0 -172 74q-69 75 -69 188z
M65 267h432q-1 95 -64 161q-61 66 -150 66q-90 0 -153 -66q-64 -65 -65 -161z" />
    <glyph glyph-name="eogonek.alt" horiz-adv-x="562" 
d="M43 251v1q0 112 69 187q70 75 171 75q99 0 167 -74q69 -74 69 -179q0 -11 -1 -14h-454q2 -103 63 -171q63 -67 157 -67q106 0 177 80l14 -13q-18 -24 -46 -44l-25 -16q-32 -21 -49 -35q-36 -31 -44 -77q0 -24 16 -39t40 -15q35 0 60 15l-5 -22q-38 -24 -87 -7t-45 65
q0 55 51 94q-29 -6 -57 -6q-103 0 -172 74q-69 75 -69 188zM65 267h432q-1 95 -64 161q-61 66 -150 66q-90 0 -153 -66q-64 -65 -65 -161z" />
    <glyph glyph-name="gcircumflex.alt" horiz-adv-x="608" 
d="M66 -125l12 15q74 -74 219 -74q102 0 159 48q66 54 66 191v87q-25 -69 -86 -109.5t-140 -40.5q-106 0 -180 74q-73 74 -73 186t73 186q73 76 180 76q79 0 140 -41t86 -111v142h21v-440q0 -81 -15.5 -131.5t-57.5 -84.5q-64 -52 -173 -52q-155 0 -231 79zM64 252
q0 -102 66 -171q68 -69 166 -69t162 67q65 68 65 173q0 106 -65 174t-162 68q-98 0 -166 -71q-66 -71 -66 -171zM179 576h-27l143 133l143 -133h-27l-116 107z" />
    <glyph glyph-name="gbreve.alt" horiz-adv-x="608" 
d="M66 -125l12 15q74 -74 219 -74q102 0 159 48q66 54 66 191v87q-25 -69 -86 -109.5t-140 -40.5q-106 0 -180 74q-73 74 -73 186t73 186q73 76 180 76q79 0 140 -41t86 -111v142h21v-440q0 -81 -15.5 -131.5t-57.5 -84.5q-64 -52 -173 -52q-155 0 -231 79zM64 252
q0 -102 66 -171q68 -69 166 -69t162 67q65 68 65 173q0 106 -65 174t-162 68q-98 0 -166 -71q-66 -71 -66 -171zM190 697h21q18 -73 85 -73t85 73h21q-6 -42 -35 -67.5t-71 -25.5t-71 25.5t-35 67.5z" />
    <glyph glyph-name="gdotaccent.alt" horiz-adv-x="608" 
d="M296 614q-19 0 -19 19t19 18.5t19 -18.5q0 -19 -19 -19zM66 -125l12 15q74 -74 219 -74q102 0 159 48q66 54 66 191v87q-25 -69 -86 -109.5t-140 -40.5q-106 0 -180 74q-73 74 -73 186t73 186q73 76 180 76q79 0 140 -41t86 -111v142h21v-440q0 -81 -15.5 -131.5
t-57.5 -84.5q-64 -52 -173 -52q-155 0 -231 79zM64 252q0 -102 66 -171q68 -69 166 -69t162 67q65 68 65 173q0 106 -65 174t-162 68q-98 0 -166 -71q-66 -71 -66 -171z" />
    <glyph glyph-name="gcommaaccent.alt" horiz-adv-x="608" 
d="M66 -125l12 15q74 -74 219 -74q102 0 159 48q66 54 66 191v87q-25 -69 -86 -109.5t-140 -40.5q-106 0 -180 74q-73 74 -73 186t73 186q73 76 180 76q79 0 140 -41t86 -111v142h21v-440q0 -81 -15.5 -131.5t-57.5 -84.5q-64 -52 -173 -52q-155 0 -231 79zM64 252
q0 -102 66 -171q68 -69 166 -69t162 67q65 68 65 173q0 106 -65 174t-162 68q-98 0 -166 -71q-66 -71 -66 -171zM296 552h-18l68 145h25z" />
    <glyph glyph-name="jcircumflex.alt" horiz-adv-x="171" 
d="M86 680l-93 -104h-24l117 133l117 -133h-24zM96 -193h-21v697h21v-697z" />
    <glyph glyph-name="kcommaaccent.alt" horiz-adv-x="426" 
d="M86 0h-21v697h21v-502l280 309h28l-200 -221l218 -283h-27l-206 267l-93 -102v-165zM157 -193l68 145h25l-75 -145h-18z" />
    <glyph glyph-name="lacute.alt" horiz-adv-x="257" 
d="M84 722h-18l68 145h25zM66 127v570h21v-569q0 -118 91 -118q23 0 48 5v-20q-25 -5 -48 -5q-112 0 -112 137z" />
    <glyph glyph-name="lcaron.alt" horiz-adv-x="257" 
d="M157 552h-18l68 145h25zM66 127v570h21v-569q0 -118 91 -118q23 0 48 5v-20q-25 -5 -48 -5q-112 0 -112 137z" />
    <glyph glyph-name="lcommaaccent.alt" horiz-adv-x="257" 
d="M66 127v570h21v-569q0 -118 91 -118q23 0 48 5v-20q-25 -5 -48 -5q-112 0 -112 137zM59 -193l68 145h25l-75 -145h-18z" />
    <glyph glyph-name="ldot.alt" horiz-adv-x="257" 
d="M66 127v570h21v-569q0 -118 91 -118q23 0 48 5v-20q-25 -5 -48 -5q-112 0 -112 137zM159 350q-19 0 -19 19t19 19q7 0 13 -6t6 -13q0 -19 -19 -19z" />
    <glyph glyph-name="lslash.alt" horiz-adv-x="271" 
d="M80 127v227l-68 -41v22l68 41v321h21v-309l84 51v-22l-84 -51v-238q0 -118 91 -118q23 0 48 5v-20q-25 -5 -48 -5q-112 0 -112 137z" />
    <glyph glyph-name="racute.alt" horiz-adv-x="327" 
d="M163 552h-18l68 145h25zM86 0h-21v347q0 90 37.5 131t116.5 41q31 0 63 -6v-20q-30 6 -63 6q-70 0 -101.5 -35.5t-31.5 -118.5v-345z" />
    <glyph glyph-name="rcommaaccent.alt" horiz-adv-x="327" 
d="M86 0h-21v347q0 90 37.5 131t116.5 41q31 0 63 -6v-20q-30 6 -63 6q-70 0 -101.5 -35.5t-31.5 -118.5v-345zM-3 -193l68 145h25l-75 -145h-18z" />
    <glyph glyph-name="rcaron.alt" horiz-adv-x="327" 
d="M326 697l-143 -133l-143 133h27l116 -107l116 107h27zM86 0h-21v347q0 90 37.5 131t116.5 41q31 0 63 -6v-20q-30 6 -63 6q-70 0 -101.5 -35.5t-31.5 -118.5v-345z" />
    <glyph glyph-name="sacute.alt" horiz-adv-x="392" 
d="M26 113l18 7q44 -110 167 -110q59 0 93 30t34 80q0 51 -29 78q-27 27 -103 61q-68 30 -100 59q-31 28 -31 84q0 49 35.5 80.5t89.5 31.5q83 0 121 -68l-18 -9q-31 57 -103 57q-45 0 -74 -26t-29 -66q0 -45 27 -71t94 -55q77 -34 110 -67q32 -32 32 -89q0 -58 -40.5 -94
t-108.5 -36t-116 32.5t-69 90.5zM193 552h-18l68 145h25z" />
    <glyph glyph-name="scircumflex.alt" horiz-adv-x="392" 
d="M26 113l18 7q44 -110 167 -110q59 0 93 30t34 80q0 51 -29 78q-27 27 -103 61q-68 30 -100 59q-31 28 -31 84q0 49 35.5 80.5t89.5 31.5q83 0 121 -68l-18 -9q-31 57 -103 57q-45 0 -74 -26t-29 -66q0 -45 27 -71t94 -55q77 -34 110 -67q32 -32 32 -89q0 -58 -40.5 -94
t-108.5 -36t-116 32.5t-69 90.5zM91 576h-27l143 133l143 -133h-27l-116 107z" />
    <glyph glyph-name="scaron.alt" horiz-adv-x="392" 
d="M26 113l18 7q44 -110 167 -110q59 0 93 30t34 80q0 51 -29 78q-27 27 -103 61q-68 30 -100 59q-31 28 -31 84q0 49 35.5 80.5t89.5 31.5q83 0 121 -68l-18 -9q-31 57 -103 57q-45 0 -74 -26t-29 -66q0 -45 27 -71t94 -55q77 -34 110 -67q32 -32 32 -89q0 -58 -40.5 -94
t-108.5 -36t-116 32.5t-69 90.5zM352 697l-143 -133l-143 133h27l116 -107l116 107h27z" />
    <glyph glyph-name="scommaaccent.alt" horiz-adv-x="392" 
d="M26 113l18 7q44 -110 167 -110q59 0 93 30t34 80q0 51 -29 78q-27 27 -103 61q-68 30 -100 59q-31 28 -31 84q0 49 35.5 80.5t89.5 31.5q83 0 121 -68l-18 -9q-31 57 -103 57q-45 0 -74 -26t-29 -66q0 -45 27 -71t94 -55q77 -34 110 -67q32 -32 32 -89q0 -58 -40.5 -94
t-108.5 -36t-116 32.5t-69 90.5zM125 -193l68 145h25l-75 -145h-18z" />
    <glyph glyph-name="scedilla.alt" horiz-adv-x="392" 
d="M26 113l18 7q44 -110 167 -110q59 0 93 30t34 80q0 51 -29 78q-27 27 -103 61q-68 30 -100 59q-31 28 -31 84q0 49 35.5 80.5t89.5 31.5q83 0 121 -68l-18 -9q-31 57 -103 57q-45 0 -74 -26t-29 -66q0 -45 27 -71t94 -55q77 -34 110 -67q32 -32 32 -89q0 -58 -39.5 -93.5
t-107.5 -36.5l-24 -54q3 1 12 1q24 0 39.5 -14t15.5 -37q0 -24 -16 -37.5t-43 -13.5q-34 0 -58 21l10 14q22 -16 47 -16q17 0 28 8.5t11 21.5q0 37 -50 37q-1 0 -23 -2l32 72q-60 4 -104 36t-64 86z" />
    <glyph glyph-name="germandbls.alt" horiz-adv-x="539" 
d="M85 0h-21v551q0 64 45 109t108 45q64 0 108 -44t44 -107q0 -90 -77 -134h5q88 0 145 -63q58 -62 58 -151q0 -93 -66 -156t-164 -63q-21 0 -53 5v21q26 -6 53 -6q89 0 149 57t60 142q0 80 -56 139q-55 58 -145 58q-19 0 -24 -1q-18 -5 -37 -6v18q57 5 94.5 43.5t37.5 93.5
q0 56 -39 95q-38 39 -93 39t-94 -39q-38 -40 -38 -95v-551z" />
    <glyph glyph-name="tcaron.alt" horiz-adv-x="342" 
d="M97 138v346h-59v20h59v193h21v-193h169v-20h-169v-346q0 -69 26 -99t85 -30q33 0 58 6v-19q-24 -6 -56 -6q-69 0 -101.5 34.5t-32.5 113.5zM208 552h-18l68 145h25z" />
    <glyph glyph-name="tcommaaccent.alt" horiz-adv-x="324" 
d="M97 138v346h-59v20h59v193h21v-193h169v-20h-169v-346q0 -69 26 -99t85 -30q33 0 58 6v-19q-24 -6 -56 -6q-69 0 -101.5 34.5t-32.5 113.5zM95 -193l68 145h25l-75 -145h-18z" />
    <glyph glyph-name="tbar.alt" horiz-adv-x="328" 
d="M97 138v205h-67v20h67v121h-67v20h67v193h21v-193h169v-20h-169v-121h161v-20h-161v-205q0 -69 26 -99t85 -30q33 0 58 6v-19q-24 -6 -56 -6q-69 0 -101.5 34.5t-32.5 113.5z" />
    <glyph glyph-name="ugrave.alt" horiz-adv-x="532" 
d="M59 206v298h21v-294q0 -93 49 -146q50 -53 129 -53q88 0 138 63.5t50 171.5v258h21v-504h-21v134q-13 -63 -64.5 -103t-126.5 -40q-87 0 -142 58q-54 58 -54 157zM289 552h-18l-75 145h25z" />
    <glyph glyph-name="uacute.alt" horiz-adv-x="532" 
d="M59 206v298h21v-294q0 -93 49 -146q50 -53 129 -53q88 0 138 63.5t50 171.5v258h21v-504h-21v134q-13 -63 -64.5 -103t-126.5 -40q-87 0 -142 58q-54 58 -54 157zM245 552h-18l68 145h25z" />
    <glyph glyph-name="ucircumflex.alt" horiz-adv-x="532" 
d="M149 576h-27l143 133l143 -133h-27l-116 107zM59 206v298h21v-294q0 -93 49 -146q50 -53 129 -53q88 0 138 63.5t50 171.5v258h21v-504h-21v134q-13 -63 -64.5 -103t-126.5 -40q-87 0 -142 58q-54 58 -54 157z" />
    <glyph glyph-name="utilde.alt" horiz-adv-x="532" 
d="M59 206v298h21v-294q0 -93 49 -146q50 -53 129 -53q88 0 138 63.5t50 171.5v258h21v-504h-21v134q-13 -63 -64.5 -103t-126.5 -40q-87 0 -142 58q-54 58 -54 157zM143 602l-15 1q4 28 23 45.5t47 17.5q30 0 70 -25q40 -24 64 -24q48 0 57 53l15 -1q-4 -33 -23 -52
t-48 -19q-31 0 -71 24q-38 25 -63 25q-45 0 -56 -45z" />
    <glyph glyph-name="udieresis.alt" horiz-adv-x="532" 
d="M368 621q-19 0 -19 19q0 12 12 17.5t20 -4.5q10 -8 4.5 -20t-17.5 -12zM162 621q-19 0 -19 19q0 12 12 17.5t20 -4.5q10 -8 4.5 -20t-17.5 -12zM59 206v298h21v-294q0 -93 49 -146q50 -53 129 -53q88 0 138 63.5t50 171.5v258h21v-504h-21v134q-13 -63 -64.5 -103
t-126.5 -40q-87 0 -142 58q-54 58 -54 157z" />
    <glyph glyph-name="umacron.alt" horiz-adv-x="532" 
d="M59 206v298h21v-294q0 -93 49 -146q50 -53 129 -53q88 0 138 63.5t50 171.5v258h21v-504h-21v134q-13 -63 -64.5 -103t-126.5 -40q-87 0 -142 58q-54 58 -54 157zM408 615h-294v20h294v-20z" />
    <glyph glyph-name="ubreve.alt" horiz-adv-x="532" 
d="M59 206v298h21v-294q0 -93 49 -146q50 -53 129 -53q88 0 138 63.5t50 171.5v258h21v-504h-21v134q-13 -63 -64.5 -103t-126.5 -40q-87 0 -142 58q-54 58 -54 157zM162 697h21q18 -73 85 -73t85 73h21q-6 -42 -35 -67.5t-71 -25.5t-71 25.5t-35 67.5z" />
    <glyph glyph-name="uring.alt" horiz-adv-x="532" 
d="M59 206v298h21v-294q0 -93 49 -146q50 -53 129 -53q88 0 138 63.5t50 171.5v258h21v-504h-21v134q-13 -63 -64.5 -103t-126.5 -40q-87 0 -142 58q-54 58 -54 157zM308 577q-18 -18 -44 -18t-45 18q-18 19 -18 44t18 43q19 19 45 19t44 -19q19 -18 19 -43t-19 -44z
M234 591q13 -12 30 -12t29 12q13 13 13 30t-13 29q-12 13 -29 13t-30 -13q-12 -12 -12 -29t12 -30z" />
    <glyph glyph-name="uhungarumlaut.alt" horiz-adv-x="532" 
d="M340 552h-18l80 145h26zM186 552h-18l80 145h26zM59 206v298h21v-294q0 -93 49 -146q50 -53 129 -53q88 0 138 63.5t50 171.5v258h21v-504h-21v134q-13 -63 -64.5 -103t-126.5 -40q-87 0 -142 58q-54 58 -54 157z" />
    <glyph glyph-name="uogonek.alt" horiz-adv-x="535" 
d="M59 206v298h21v-294q0 -93 49 -146q50 -53 129 -53q88 0 138 63.5t50 171.5v258h21v-504q-83 -47 -83 -109q0 -24 16 -39t40 -15q34 0 60 15l-5 -22q-38 -24 -87 -7t-45 65q0 36 23.5 67.5t59.5 46.5v132q-13 -63 -64.5 -103t-126.5 -40q-87 0 -142 58q-54 58 -54 157z
" />
    <glyph glyph-name="ygrave.alt" horiz-adv-x="476" 
d="M43 -197v20q15 -7 41 -7q32 0 54 19q21 18 45 75l38 90l-198 504h23l187 -477l198 477h23l-249 -596q-29 -68 -54 -89q-29 -23 -67 -23q-27 0 -41 7zM259 552h-18l-75 145h25z" />
    <glyph glyph-name="yacute.alt" horiz-adv-x="476" 
d="M43 -197v20q15 -7 41 -7q32 0 54 19q21 18 45 75l38 90l-198 504h23l187 -477l198 477h23l-249 -596q-29 -68 -54 -89q-29 -23 -67 -23q-27 0 -41 7zM228 552h-18l68 145h25z" />
    <glyph glyph-name="ycircumflex.alt" horiz-adv-x="476" 
d="M43 -197v20q15 -7 41 -7q32 0 54 19q21 18 45 75l38 90l-198 504h23l187 -477l198 477h23l-249 -596q-29 -68 -54 -89q-29 -23 -67 -23q-27 0 -41 7zM117 576h-27l143 133l143 -133h-27l-116 107z" />
    <glyph glyph-name="ydieresis.alt" horiz-adv-x="476" 
d="M336 621q-19 0 -19 19q0 12 12 17.5t20 -4.5q10 -8 4.5 -20t-17.5 -12zM130 621q-19 0 -19 19q0 12 12 17.5t20 -4.5q10 -8 4.5 -20t-17.5 -12zM43 -197v20q15 -7 41 -7q32 0 54 19q21 18 45 75l38 90l-198 504h23l187 -477l198 477h23l-249 -596q-29 -68 -54 -89
q-29 -23 -67 -23q-27 0 -41 7z" />
    <glyph glyph-name="wgrave.alt" horiz-adv-x="763" 
d="M381 295l-135 -310l-223 519h23l200 -468l122 281l-81 187h23l71 -165l72 165h23l-82 -187l123 -281l200 468h23l-223 -519zM398 552h-18l-75 145h25z" />
    <glyph glyph-name="wacute.alt" horiz-adv-x="763" 
d="M381 295l-135 -310l-223 519h23l200 -468l122 281l-81 187h23l71 -165l72 165h23l-82 -187l123 -281l200 468h23l-223 -519zM373 552h-18l68 145h25z" />
    <glyph glyph-name="wcircumflex.alt" horiz-adv-x="763" 
d="M381 295l-135 -310l-223 519h23l200 -468l122 281l-81 187h23l71 -165l72 165h23l-82 -187l123 -281l200 468h23l-223 -519zM265 576h-27l143 133l143 -133h-27l-116 107z" />
    <glyph glyph-name="wdieresis.alt" horiz-adv-x="763" 
d="M484 621q-19 0 -19 19q0 12 12 17.5t20 -4.5q10 -8 4.5 -20t-17.5 -12zM278 621q-19 0 -19 19q0 12 12 17.5t20 -4.5q10 -8 4.5 -20t-17.5 -12zM381 295l-135 -310l-223 519h23l200 -468l122 281l-81 187h23l71 -165l72 165h23l-82 -187l123 -281l200 468h23l-223 -519z
" />
    <glyph glyph-name="fj.alt" horiz-adv-x="435" 
d="M127 0h-21v484h-74v20h74v53q0 82 40 119q32 30 88 30q32 0 44 -4v-19q-18 3 -46 3q-105 0 -105 -127v-55h244v-697h-21v677h-223v-484z" />
    <glyph glyph-name="fl.alt" horiz-adv-x="512" 
d="M127 0h-21v484h-74v20h74v53q0 81 39 119q31 30 87 30q28 0 39 -4v-19q-15 3 -41 3q-103 0 -103 -127v-55h131v-20h-131v-484zM311 127v570h21v-569q0 -118 91 -118q23 0 48 5v-20q-25 -5 -48 -5q-112 0 -112 137z" />
    <glyph glyph-name="ffj.alt" horiz-adv-x="679" 
d="M127 0h-21v484h-74v20h74v53q0 149 126 149q28 0 39 -4v-19q-15 3 -41 3q-103 0 -103 -127v-55h223v53q0 82 40 119q32 30 88 30q32 0 44 -4v-19q-18 3 -46 3q-105 0 -105 -127v-55h244v-697h-21v677h-223v-484h-21v484h-223v-484z" />
    <glyph glyph-name="ffl.alt" horiz-adv-x="810" 
d="M127 0h-21v484h-74v20h74v53q0 149 126 149q28 0 39 -4v-19q-15 3 -41 3q-103 0 -103 -127v-55h223v53q0 149 126 149q28 0 39 -4v-19q-15 3 -41 3q-103 0 -103 -127v-55h131v-20h-131v-484h-21v484h-223v-484zM609 127v570h21v-569q0 -118 91 -118q23 0 48 5v-20
q-25 -5 -48 -5q-112 0 -112 137z" />
    <glyph glyph-name="zero.onum" horiz-adv-x="498" 
d="M51 168q-2 26 -2 84q0 59 2 83q7 78 65 127q56 49 134 49t133 -49q58 -49 65 -127q2 -24 2 -83q0 -58 -2 -84q-7 -75 -64 -125q-56 -50 -134 -50q-81 0 -136 49q-56 50 -63 126zM72 170q6 -68 56 -113q52 -44 122 -44t120 44q49 45 57 113q2 24 2 82q0 59 -2 81
q-8 70 -57 113q-50 45 -120 45q-71 0 -122 -45q-50 -44 -56 -113q-2 -22 -2 -81q0 -58 2 -82z" />
    <glyph glyph-name="one.onum" horiz-adv-x="297" 
d="M201 0h-21v478l-142 -71l-9 18l172 85v-510z" />
    <glyph glyph-name="two.onum" horiz-adv-x="466" 
d="M433 0h-414l283 219q52 40 69 73q17 34 17 76q0 53 -43 87q-43 36 -104 36q-68 0 -117 -46t-49 -111h-21q0 73 55 125t132 52q69 0 119 -42q49 -42 49 -101q0 -48 -20 -85.5t-72 -78.5l-239 -184h355v-20z" />
    <glyph glyph-name="three.onum" horiz-adv-x="486" 
d="M20 14l19 8q19 -55 71 -87.5t119 -32.5q82 0 135 50t53 127q0 73 -51 121q-49 48 -128 48q-58 0 -97 -16l238 252h-311v19h355l-228 -241q20 5 53 5q82 -1 136 -54q54 -52 54 -134q0 -86 -58 -141q-58 -56 -151 -56q-73 0 -130 36t-79 96z" />
    <glyph glyph-name="four.onum" horiz-adv-x="521" 
d="M432 0h-398l244 504h25l-235 -484h364v180h22v-393h-22v193z" />
    <glyph glyph-name="five.onum" horiz-adv-x="500" 
d="M35 8l19 9q22 -53 71.5 -84t110.5 -31q82 0 138 54q56 53 56 133q0 81 -54 134q-55 53 -135 53q-49 0 -92.5 -21t-70.5 -58l54 307h274v-20h-257l-42 -236q51 48 134 48q88 0 149 -59q61 -58 61 -148q0 -89 -62 -148t-153 -59q-68 0 -122 34t-79 92z" />
    <glyph glyph-name="six.onum" horiz-adv-x="528" 
d="M48 211q0 75 62 161l237 325h26l-221 -304q44 36 115 36q91 0 152 -63q62 -64 62 -155q0 -92 -63 -155q-62 -63 -153 -63q-89 0 -154 63q-63 65 -63 155zM69 211q0 -84 56 -142q58 -56 140 -56q83 0 138 57q57 57 57 141q0 83 -56 141q-55 57 -139 57q-83 0 -140 -57
q-56 -58 -56 -141z" />
    <glyph glyph-name="seven.onum" horiz-adv-x="481" 
d="M154 -193h-23l296 677h-392v20h424z" />
    <glyph glyph-name="eight.onum" horiz-adv-x="525" 
d="M44 200q0 73 44 129q45 55 116 72q-48 15 -77.5 56t-29.5 91q0 66 47 113q47 46 118 46t117 -46q48 -47 48 -113q0 -51 -29.5 -91.5t-78.5 -55.5q71 -17 116 -72t45 -129q0 -88 -64 -149q-62 -61 -154 -61q-91 0 -155 61q-63 61 -63 149zM406 548q0 58 -42 99
q-40 40 -102 40t-103 -40q-41 -41 -41 -99t42 -99q41 -40 102 -40t102 40q42 41 42 99zM122 335q-57 -55 -57 -135t57 -135q56 -55 140 -55t140 55q57 55 57 135t-57 135q-56 55 -140 55t-140 -55z" />
    <glyph glyph-name="nine.onum" horiz-adv-x="527" 
d="M181 0h-26l221 303q-44 -35 -115 -35q-91 0 -152 63q-62 64 -62 155t62 155q63 63 154 63t154 -64q63 -63 63 -154q0 -78 -61 -161zM459 486q0 86 -57 141q-56 57 -139 57t-139 -57q-56 -56 -56 -141q0 -83 56 -141q56 -57 139 -57t139 57q57 59 57 141z" />
    <glyph glyph-name="zero.tnum" horiz-adv-x="516" 
d="M51 180q-3 35 -3 169q0 133 3 168q7 85 67 137q61 53 140 53q80 0 139 -53q61 -53 68 -137q3 -35 3 -168q0 -135 -3 -169q-7 -84 -67 -137q-59 -53 -140 -53q-82 0 -141 53q-58 52 -66 137zM72 182q8 -75 59 -123q52 -49 127 -49q74 0 126 49t60 123q3 33 3 167
q0 133 -3 166q-8 73 -60 123q-52 49 -126 49q-75 0 -127 -49q-51 -48 -59 -123q-3 -33 -3 -166q0 -134 3 -167z" />
    <glyph glyph-name="one.tnum" horiz-adv-x="516" 
d="M368 0h-21v671l-249 -137l-9 17l279 154v-705z" />
    <glyph glyph-name="two.tnum" horiz-adv-x="516" 
d="M479 0h-450l354 376q61 64 61 136q0 71 -52 123t-124 52q-75 0 -128 -53q-52 -52 -52 -126h-21q0 81 59 140t142 59q81 0 139 -58q58 -57 58 -137q0 -42 -12.5 -74t-48.5 -71q-18 -21 -71 -77l-145 -152q-80 -83 -112 -118h403v-20z" />
    <glyph glyph-name="three.tnum" horiz-adv-x="516" 
d="M35 133l19 6q20 -59 71.5 -94t118.5 -35q90 0 146 56q57 57 57 146q0 82 -56 138q-55 55 -140 55q-72 0 -120 -22l268 294h-323v20h370l-260 -281q29 8 73 8q89 0 149 -61q60 -60 60 -151q0 -100 -63 -161q-62 -61 -161 -61q-73 0 -130.5 39t-78.5 104z" />
    <glyph glyph-name="four.tnum" horiz-adv-x="516" 
d="M431 179h-398l253 518h24l-242 -497h363v179h22v-379h-22v179z" />
    <glyph glyph-name="five.tnum" horiz-adv-x="516" 
d="M34 130l18 8q23 -59 74.5 -93.5t114.5 -34.5q87 0 145 58q59 59 59 145q0 85 -57 144t-141 59q-104 0 -167 -76l61 357h270v-20h-252l-49 -287q53 46 137 46q92 0 155 -64q64 -64 64 -159q0 -94 -65 -159q-64 -64 -160 -64q-69 0 -125 38t-82 102z" />
    <glyph glyph-name="six.tnum" horiz-adv-x="517" 
d="M48 204q0 63 52 148l205 345h24l-192 -323q49 40 124 40q88 0 149 -61q61 -60 61 -149q0 -92 -61 -153t-151 -61q-89 0 -150 61t-61 153zM450 203q0 81 -55 136t-136 55q-82 0 -136 -55q-54 -54 -54 -136q0 -83 54 -138q55 -55 136 -55t136 55t55 138z" />
    <glyph glyph-name="seven.tnum" horiz-adv-x="516" 
d="M183 0h-24l313 677h-430v20h464z" />
    <glyph glyph-name="eight.tnum" horiz-adv-x="516" 
d="M44 200q0 74 43 129t112 72q-46 15 -74 56t-28 91q0 67 46 113t114 46q67 0 113 -46q47 -47 47 -113q0 -51 -28.5 -91.5t-74.5 -55.5q70 -17 113 -72t43 -129q0 -87 -62 -149q-61 -61 -151 -61t-151 61q-62 62 -62 149zM158 449q40 -40 99 -40q58 0 98 40q41 41 41 99
t-40 98q-41 41 -99 41t-99 -41q-40 -40 -40 -98q0 -59 40 -99zM120 335q-55 -55 -55 -135t55 -135t137 -55q81 0 136 55q56 56 56 135t-56 135q-55 55 -136 55q-82 0 -137 -55z" />
    <glyph glyph-name="nine.tnum" horiz-adv-x="516" 
d="M214 0h-25l193 324q-50 -41 -124 -41q-88 0 -149 60q-61 61 -61 150q0 91 61 152q62 62 150 62q90 0 151 -61t61 -153q0 -60 -53 -148zM259 303q82 0 136 56q55 55 55 135q0 83 -55 138q-54 55 -136 55q-79 0 -135 -56q-55 -55 -55 -137q0 -81 55 -136t135 -55z" />
    <glyph glyph-name="four.alt" horiz-adv-x="531" 
d="M11 158h-1l394 554v-534h85v-20h-85v-158h-21v158h-372zM383 646l-332 -468h332v468z" />
    <glyph glyph-name="four.onum.alt" horiz-adv-x="523" 
d="M15 0h-3l384 516v-496h84v-20h-84v-193h-21v193h-360zM375 452l-321 -432h321v432z" />
    <glyph glyph-name="four.tnum.alt" horiz-adv-x="516" 
d="M28 158h-2l379 554v-534h67v-20h-67v-158h-21v158h-356zM384 643l-318 -465h318v465z" />
    <glyph glyph-name="foursuperior.alt" horiz-adv-x="362" 
d="M260 328h-21v80h-198h-2l221 303v-283h44v-20h-44v-80zM239 648l-160 -220h160v220z" />
    <glyph glyph-name="four.inferior.alt" horiz-adv-x="362" 
d="M40 80h-1l221 303v-283h44v-20h-44v-80h-21v80h-199zM239 320l-160 -220h160v220z" />
    <glyph glyph-name="onequarter.alt" horiz-adv-x="627" 
d="M92 0h-27l433 697h27zM150 328h-21v349h-48v20h69v-369zM299 80h-2l221 303v-283h44v-20h-44v-80h-21v80h-198zM497 320l-160 -220h160v220z" />
    <glyph glyph-name="threequarters.alt" horiz-adv-x="763" 
d="M220 0h-27l433 697h27zM176 321q-41 0 -74.5 22.5t-48.5 59.5l19 7q15 -31 42 -50t62 -19q49 0 80.5 29t31.5 75q0 39 -29.5 67t-72.5 28q-42 0 -75 -14l143 151h-175v20h219l-135 -142q12 4 33 4q49 0 80 -34q33 -33 33 -80q0 -56 -37.5 -90t-95.5 -34zM436 80h-2
l221 303v-283h44v-20h-44v-80h-21v80h-198zM634 320l-160 -220h160v220z" />
    <glyph glyph-name="published" horiz-adv-x="806" 
d="M403 704q149 0 251 -103q102 -104 102 -253q0 -151 -102 -253t-251 -102t-251 102q-102 103 -102 253q0 149 101 253q102 103 252 103zM71 348q0 -141 95 -239q96 -96 237 -96t236 96q96 97 96 239q0 143 -96 239q-94 97 -236 97q-141 0 -237 -97q-95 -97 -95 -239z
M318 114h-20v436h122q67 0 105 -41q39 -41 39 -96q0 -61 -39.5 -99.5t-104.5 -38.5h-102v-161zM318 531v-237h102q58 0 91 34t33 85q0 50 -33.5 84t-90.5 34h-102z" />
    <glyph glyph-name="colon.case" horiz-adv-x="152" 
d="M76 461q-19 0 -19 19q0 12 12 17.5t20 -4.5q10 -8 4.5 -20t-17.5 -12zM76 185q-19 0 -19 19q0 12 12 17.5t20 -4.5q10 -8 4.5 -20t-17.5 -12z" />
    <glyph glyph-name="semicolon.case" horiz-adv-x="178" 
d="M99 461q-19 0 -19 19t19 19q18 0 18.5 -19t-18.5 -19zM115 223l-104 -223h-19l93 223h30z" />
    <glyph glyph-name="bullet.case" horiz-adv-x="178" 
d="M89 316q-20 0 -29 20t6 35t35.5 7t20.5 -30q0 -13 -9.5 -22.5t-23.5 -9.5z" />
    <glyph glyph-name="periodcentered.case" horiz-adv-x="141" 
d="M71 329q-19 0 -19 19t19 19q18 0 18.5 -19t-18.5 -19z" />
    <glyph glyph-name="guilsinglleft.case" horiz-adv-x="218" 
d="M176 139h-23l-110 175l110 175h23l-110 -175z" />
    <glyph glyph-name="guilsinglright.case" horiz-adv-x="218" 
d="M66 139h-23l110 175l-110 175h23l110 -175z" />
    <glyph glyph-name="guillemotleft.case" horiz-adv-x="317" 
d="M277 139h-24l-110 175l110 175h24l-110 -175zM176 139h-23l-110 175l110 175h23l-110 -175z" />
    <glyph glyph-name="guillemotright.case" horiz-adv-x="317" 
d="M167 139h-23l110 175l-110 175h23l110 -175zM67 139h-24l110 175l-110 175h24l110 -175z" />
    <glyph glyph-name="slash.case" horiz-adv-x="388" 
d="M51 -81h-22l313 859h23z" />
    <glyph glyph-name="backslash.case" horiz-adv-x="389" 
d="M365 -81h-22l-314 859h23z" />
    <glyph glyph-name="hyphen.case" horiz-adv-x="310" 
d="M262 338h-213v20h213v-20z" />
    <glyph glyph-name="endash.case" horiz-adv-x="472" 
d="M423 338h-374v20h374v-20z" />
    <glyph glyph-name="emdash.case" horiz-adv-x="736" 
d="M687 338h-638v20h638v-20z" />
    <glyph glyph-name="parenleft.case" horiz-adv-x="256" 
d="M287 -111l-12 -12q-220 193 -220 465q0 275 220 465l12 -12q-209 -188 -209 -453t209 -453z" />
    <glyph glyph-name="parenright.case" horiz-adv-x="256" 
d="M-17 -124l-12 12q209 188 209 453t-209 453l12 12q220 -190 220 -465q0 -272 -220 -465z" />
    <glyph glyph-name="bracketleft.case" horiz-adv-x="261" 
d="M256 -96h-164v890h164v-20h-143v-850h143v-20z" />
    <glyph glyph-name="bracketright.case" horiz-adv-x="261" 
d="M6 -96v20h143v850h-143v20h164v-890h-164z" />
    <glyph glyph-name="braceleft.case" horiz-adv-x="285" 
d="M118 23v195q0 49 -8.5 73.5t-31.5 38.5q-20 12 -42 12v16q22 0 42 12q23 14 31.5 38.5t8.5 73.5v195q0 118 97 118h22v-17h-20q-78 0 -78 -97v-173q0 -106 -28 -135q-15 -18 -47 -23q32 -5 47 -23q28 -29 28 -135v-173q0 -97 78 -97h20v-17h-22q-97 0 -97 118z" />
    <glyph glyph-name="braceright.case" horiz-adv-x="285" 
d="M48 -95v17h20q78 0 78 97v173q0 106 28 135q15 18 47 23q-32 5 -47 23q-28 29 -28 135v173q0 97 -78 97h-20v17h22q97 0 97 -118v-195q0 -49 8.5 -73.5t31.5 -38.5q19 -12 42 -12v-16q-23 0 -42 -12q-23 -14 -31.5 -38.5t-8.5 -73.5v-195q0 -118 -97 -118h-22z" />
    <glyph glyph-name="exclamdown.case" horiz-adv-x="202" 
d="M83 684q0 19 19 19q13 0 18 -11.5t-5 -21.5q-8 -8 -20 -3.5t-12 17.5zM115 0h-26l4 542h18z" />
    <glyph glyph-name="questiondown.case" horiz-adv-x="385" 
d="M197 665q-18 0 -18.5 19t18.5 19t19 -19t-19 -19zM43 123q0 68 36 108q17 19 36 35q24 20 47 35q33 24 47 35q66 51 66 103q0 41 -25.5 63.5t-73.5 22.5q-39 0 -61 -16v21q21 15 61 15q57 0 88.5 -28t31.5 -78q0 -61 -70 -116l-48 -34q-32 -21 -46 -34q-74 -58 -68 -132
q0 -16 9 -41q31 -69 129 -69q73 0 132 58v-26q-55 -52 -132 -52q-100 0 -134 55q-25 42 -25 75z" />
    <glyph glyph-name="at.case" horiz-adv-x="805" 
d="M46 349q0 143 102 249q102 107 255 107q143 0 250 -98t107 -241q0 -100 -31 -149.5t-87 -49.5q-39 0 -62.5 25.5t-28.5 70.5q-16 -45 -56.5 -71t-92.5 -26q-73 0 -123 50q-50 52 -50 126t50 126q51 51 123 51q50 0 90 -26t56 -69v86h21v-216q0 -48 17.5 -77.5t55.5 -29.5
q97 0 97 179q0 132 -99 225q-98 94 -237 94t-238 -99q-98 -98 -98 -237t98 -239q100 -98 238 -98q90 0 167 44l9 -17q-83 -47 -176 -47q-146 0 -252 104q-105 104 -105 253zM402 186q63 0 105 44t42 112q0 70 -42 113q-42 44 -105 44q-65 0 -108 -46q-44 -46 -44 -111
t44 -111q44 -45 108 -45z" />
    <glyph glyph-name="Agrave.alt1" horiz-adv-x="651" 
d="M332 600h-19l-54 97h28zM56 0h-24l284 583h20l284 -583h-24l-96 199h-348zM326 555l-164 -336h328z" />
    <glyph glyph-name="Aacute.alt1" horiz-adv-x="651" 
d="M338 600h-19l45 97h28zM56 0h-24l284 583h20l284 -583h-24l-96 199h-348zM326 555l-164 -336h328z" />
    <glyph glyph-name="Acircumflex.alt1" horiz-adv-x="651" 
d="M224 600h-27l129 112l129 -112h-27l-102 87zM56 0h-24l284 583h20l284 -583h-24l-96 199h-348zM326 555l-164 -336h328z" />
    <glyph glyph-name="Atilde.alt1" horiz-adv-x="651" 
d="M204 638l-15 1q4 28 23 45.5t47 17.5q30 0 70 -25q40 -24 64 -24q48 0 57 53l15 -1q-4 -33 -23 -52t-48 -19q-30 0 -71 24q-38 25 -63 25q-46 0 -56 -45zM56 0h-24l284 583h20l284 -583h-24l-96 199h-348zM326 555l-164 -336h328z" />
    <glyph glyph-name="Adieresis.alt1" horiz-adv-x="638" 
d="M57 0h-22l284 709l285 -709h-23l-84 211h-355zM431 673q-19 0 -19 19t19 19q18 0 18.5 -19t-18.5 -19zM207 673q-19 0 -19 19t19 19q18 0 18.5 -19t-18.5 -19zM319 658l-169 -427h338z" />
    <glyph glyph-name="Amacron.alt1" horiz-adv-x="651" 
d="M473 677h-294v20h294v-20zM56 0h-24l284 583h20l284 -583h-24l-96 199h-348zM326 555l-164 -336h328z" />
    <glyph glyph-name="Abreve.alt1" horiz-adv-x="651" 
d="M226 697h21q13 -63 79 -63t79 63h21q-6 -38 -33.5 -60.5t-66.5 -22.5t-66.5 22.5t-33.5 60.5zM56 0h-24l284 583h20l284 -583h-24l-96 199h-348zM326 555l-164 -336h328z" />
    <glyph glyph-name="Aring.alt1" horiz-adv-x="651" 
d="M56 0h-24l273 586q-19 6 -31 22.5t-12 36.5q0 25 18.5 43.5t44.5 18.5t44.5 -18.5t18.5 -43.5q0 -19 -12 -35.5t-31 -23.5l274 -586h-24l-93 199h-353zM295 615q13 -12 30 -12t29 12q13 13 13 30t-13 29q-12 13 -29 13t-30 -13q-12 -12 -12 -29t12 -30zM325 580
l-167 -361h335z" />
    <glyph glyph-name="Aringacute.alt1" horiz-adv-x="643" 
d="M56 0h-24l272 527q-19 6 -30.5 21.5t-11.5 34.5q0 23 18 41t42 18q13 0 25 -6l28 61h28l-41 -71q20 -18 20 -43q0 -19 -12 -34.5t-30 -21.5l272 -527h-24l-103 199h-326zM295 555q27 -25 54 0q12 12 12 28t-12 27q-15 18 -37 10.5t-27.5 -27.5t10.5 -38zM322 515
l-153 -296h306z" />
    <glyph glyph-name="Aogonek.alt1" horiz-adv-x="625" 
d="M55 0h-23l285 709l224 -558q-73 -42 -73 -97q0 -20 14.5 -32t36.5 -12q35 0 60 15l-5 -22q-25 -13 -58 -13q-30 0 -49.5 17t-19.5 44q0 31 19.5 59t50.5 43l-23 58h-354zM317 653l-169 -422h338z" />
    <glyph glyph-name="AEacute.alt1" horiz-adv-x="975" 
d="M586 600h-19l45 97h28zM56 0h-27l536 583h344v-20h-330v-244h311v-20h-311v-279h337v-20h-358v196h-321zM558 545l-302 -329h302v329z" />
    <glyph glyph-name="Cacute.alt1" horiz-adv-x="627" 
d="M362 600h-19l45 97h28zM361 580q115 0 198 -74v-26q-83 80 -198 80q-121 0 -203 -79t-82 -196t82 -196t203 -79q115 0 198 80v-26q-83 -74 -198 -74q-130 0 -218 85t-88 210t88 210t218 85z" />
    <glyph glyph-name="Ccircumflex.alt1" horiz-adv-x="627" 
d="M258 600h-27l129 112l129 -112h-27l-102 87zM361 580q115 0 198 -74v-26q-83 80 -198 80q-121 0 -203 -79t-82 -196t82 -196t203 -79q115 0 198 80v-26q-83 -74 -198 -74q-130 0 -218 85t-88 210t88 210t218 85z" />
    <glyph glyph-name="Ccaron.alt1" horiz-adv-x="627" 
d="M489 697l-129 -103l-129 103h28l101 -80l101 80h28zM361 580q115 0 198 -74v-26q-83 80 -198 80q-121 0 -203 -79t-82 -196t82 -196t203 -79q115 0 198 80v-26q-83 -74 -198 -74q-130 0 -218 85t-88 210t88 210t218 85z" />
    <glyph glyph-name="Cdotaccent.alt1" horiz-adv-x="627" 
d="M356 628q-19 0 -19 19t19 18.5t19 -18.5q0 -19 -19 -19zM361 580q115 0 198 -74v-26q-83 80 -198 80q-121 0 -203 -79t-82 -196t82 -196t203 -79q115 0 198 80v-26q-83 -74 -198 -74q-130 0 -218 85t-88 210t88 210t218 85z" />
    <glyph glyph-name="Ccedilla.alt1" horiz-adv-x="627" 
d="M283 8l10 14q20 -16 42 -16q15 0 24.5 7.5t9.5 20.5q0 27 -41 27l-22 -2l24 59q-117 10 -197 93q-78 83 -78 201q0 125 88 210t218 85q115 0 198 -74v-26q-83 80 -198 80q-121 0 -203 -79t-82 -196t82 -196t203 -79q115 0 198 80v-26q-83 -74 -198 -74h-11l-18 -41
q2 1 10 1q20 0 34 -12t14 -31q0 -21 -15 -34t-39 -13q-30 0 -53 21z" />
    <glyph glyph-name="Dcaron.alt1" horiz-adv-x="682" 
d="M470 697l-129 -103l-129 103h28l101 -80l101 80h28zM304 0h-204v583h203q145 0 233 -80q87 -79 87 -212q0 -132 -86 -212q-85 -79 -233 -79zM121 563v-543h182q138 0 218 74q81 74 81 197t-81 197q-81 75 -219 75h-181z" />
    <glyph glyph-name="Egrave.alt1" horiz-adv-x="521" 
d="M303 600h-19l-54 97h28zM457 0h-357v583h350v-20h-329v-244h310v-20h-310v-279h336v-20z" />
    <glyph glyph-name="Eacute.alt1" horiz-adv-x="521" 
d="M280 600h-19l45 97h28zM457 0h-357v583h350v-20h-329v-244h310v-20h-310v-279h336v-20z" />
    <glyph glyph-name="Ecircumflex.alt1" horiz-adv-x="521" 
d="M177 600h-27l129 112l129 -112h-27l-102 87zM457 0h-357v583h350v-20h-329v-244h310v-20h-310v-279h336v-20z" />
    <glyph glyph-name="Ecaron.alt1" horiz-adv-x="521" 
d="M408 697l-129 -103l-129 103h28l101 -80l101 80h28zM457 0h-357v583h350v-20h-329v-244h310v-20h-310v-279h336v-20z" />
    <glyph glyph-name="Edieresis.alt1" horiz-adv-x="521" 
d="M368 628q-19 0 -19 19t19 18.5t19 -18.5q0 -19 -19 -19zM186 628q-19 0 -19 19t19 18.5t19 -18.5q0 -19 -19 -19zM457 0h-357v583h350v-20h-329v-244h310v-20h-310v-279h336v-20z" />
    <glyph glyph-name="Emacron.alt1" horiz-adv-x="521" 
d="M423 677h-294v20h294v-20zM457 0h-357v583h350v-20h-329v-244h310v-20h-310v-279h336v-20z" />
    <glyph glyph-name="Ebreve.alt1" horiz-adv-x="521" 
d="M181 697h21q14 -63 79 -63t79 63h21q-6 -38 -33.5 -60.5t-66.5 -22.5t-66.5 22.5t-33.5 60.5zM457 0h-357v583h350v-20h-329v-244h310v-20h-310v-279h336v-20z" />
    <glyph glyph-name="Edotaccent.alt1" horiz-adv-x="521" 
d="M283 628q-19 0 -19 19t19 19q7 0 13 -6t6 -13q0 -19 -19 -19zM457 0h-357v583h350v-20h-329v-244h310v-20h-310v-279h336v-20z" />
    <glyph glyph-name="Eogonek.alt1" horiz-adv-x="521" 
d="M431 114h-331v583h350v-20h-329v-244h310v-20h-310v-279h336v-20q-71 -33 -71 -77q0 -26 33 -26q25 0 43 15l-5 -22q-19 -13 -43 -13q-23 0 -36 11t-13 30q0 25 19.5 48.5t46.5 33.5z" />
    <glyph glyph-name="Gcircumflex.alt1" horiz-adv-x="658" 
d="M253 600h-27l129 112l129 -112h-27l-102 87zM357 580q95 0 179 -51v-22q-86 53 -179 53q-120 0 -200 -79q-81 -78 -81 -196q0 -117 81 -197q81 -78 200 -78q125 0 211 83v186h-224v20h245v-214q-95 -95 -232 -95q-128 0 -215 84q-87 86 -87 211q0 126 87 210
q88 85 215 85z" />
    <glyph glyph-name="Gbreve.alt1" horiz-adv-x="658" 
d="M255 697h21q14 -63 79 -63t79 63h21q-6 -38 -33.5 -60.5t-66.5 -22.5t-66.5 22.5t-33.5 60.5zM357 580q95 0 179 -51v-22q-86 53 -179 53q-120 0 -200 -79q-81 -78 -81 -196q0 -117 81 -197q81 -78 200 -78q125 0 211 83v186h-224v20h245v-214q-95 -95 -232 -95
q-128 0 -215 84q-87 86 -87 211q0 126 87 210q88 85 215 85z" />
    <glyph glyph-name="Gdotaccent.alt1" horiz-adv-x="658" 
d="M357 628q-19 0 -19 19t19 19q7 0 13 -6t6 -13q0 -19 -19 -19zM357 580q95 0 179 -51v-22q-86 53 -179 53q-120 0 -200 -79q-81 -78 -81 -196q0 -117 81 -197q81 -78 200 -78q125 0 211 83v186h-224v20h245v-214q-95 -95 -232 -95q-128 0 -215 84q-87 86 -87 211
q0 126 87 210q88 85 215 85z" />
    <glyph glyph-name="Gcommaaccent.alt1" horiz-adv-x="658" 
d="M357 117q-128 0 -215 84q-87 85 -87 211t87 210q88 85 215 85q95 0 179 -51v-22q-86 53 -179 53q-120 0 -200 -79q-81 -78 -81 -196t81 -197q81 -78 200 -78q125 0 211 83v186h-224v20h245v-214q-95 -95 -232 -95zM315 0h-19l45 97h28z" />
    <glyph glyph-name="Hcircumflex.alt1" horiz-adv-x="687" 
d="M241 600h-27l129 112l129 -112h-27l-102 87zM122 0h-22v697h22v-317h443v317h22v-697h-22v360h-443v-360z" />
    <glyph glyph-name="Igrave.alt1" horiz-adv-x="229" 
d="M124 600h-19l-54 97h28zM125 0h-21v583h21v-583z" />
    <glyph glyph-name="Iacute.alt1" horiz-adv-x="229" 
d="M123 600h-19l45 97h28zM125 0h-21v583h21v-583z" />
    <glyph glyph-name="Icircumflex.alt1" horiz-adv-x="229" 
d="M27 600h-26l113 112l113 -112h-26l-87 85zM125 0h-21v583h21v-583z" />
    <glyph glyph-name="Itilde.alt1" horiz-adv-x="229" 
d="M1 638l-15 1q4 28 22 45.5t43 17.5q28 0 65 -25q38 -24 59 -24q43 0 52 53l15 -1q-4 -33 -21.5 -52t-44.5 -19q-28 0 -66 24q-35 25 -58 25q-40 0 -51 -45zM125 0h-21v583h21v-583z" />
    <glyph glyph-name="Idieresis.alt1" horiz-adv-x="229" 
d="M185 628q-19 0 -19 19t19 19q7 0 13 -6t6 -13q0 -19 -19 -19zM44 628q-19 0 -19 19t19 18.5t19 -18.5q0 -19 -19 -19zM125 0h-21v583h21v-583z" />
    <glyph glyph-name="Imacron.alt1" horiz-adv-x="229" 
d="M228 677h-227v20h227v-20zM125 0h-21v583h21v-583z" />
    <glyph glyph-name="Ibreve.alt1" horiz-adv-x="229" 
d="M15 697h21q14 -63 79 -63t79 63h21q-6 -38 -33.5 -60.5t-66.5 -22.5t-66.5 22.5t-33.5 60.5zM125 0h-21v583h21v-583z" />
    <glyph glyph-name="Idotaccent.alt1" horiz-adv-x="229" 
d="M114 628q-19 0 -19 19t19 18.5t19 -18.5q0 -19 -19 -19zM125 0h-21v583h21v-583z" />
    <glyph glyph-name="Iogonek.alt1" horiz-adv-x="229" 
d="M44 31q0 26 17.5 50t42.5 36v1v579h21v-583q-60 -34 -60 -78q0 -26 33 -26q25 0 43 15l-5 -22q-19 -13 -43 -13q-23 0 -36 11t-13 30z" />
    <glyph glyph-name="Jcircumflex.alt1" horiz-adv-x="331" 
d="M137 600h-26l113 112l113 -112h-26l-87 85zM30 0v22q23 -10 62 -10q68 0 95 37.5t27 123.5v410h21v-409q0 -98 -31 -140.5t-112 -42.5q-31 0 -62 9z" />
    <glyph glyph-name="Kcommaaccent.alt1" horiz-adv-x="559" 
d="M121 0h-21v697h21v-328l360 328h30l-368 -335l377 -362h-31l-368 354v-354zM245 0h-19l45 97h28z" />
    <glyph glyph-name="Lacute.alt1" horiz-adv-x="483" 
d="M119 600h-19l45 97h28zM437 0h-337v583h21v-563h316v-20z" />
    <glyph glyph-name="Lcommaaccent.alt1" horiz-adv-x="483" 
d="M437 114h-337v583h21v-563h316v-20zM241 0h-19l45 97h28z" />
    <glyph glyph-name="Nacute.alt1" horiz-adv-x="710" 
d="M121 0h-21v709l490 -658v646h21v-709l-490 658v-646zM342 600h-19l45 97h28z" />
    <glyph glyph-name="Ncaron.alt1" horiz-adv-x="710" 
d="M121 0h-21v709l490 -658v646h21v-709l-490 658v-646zM482 697l-129 -103l-129 103h28l101 -80l101 80h28z" />
    <glyph glyph-name="Ntilde.alt1" horiz-adv-x="710" 
d="M121 0h-21v709l490 -658v646h21v-709l-490 658v-646zM235 638l-15 1q4 28 23 45.5t47 17.5q30 0 70 -25q40 -24 64 -24q48 0 57 53l15 -1q-4 -33 -23 -52t-48 -19q-31 0 -71 24q-38 25 -63 25q-45 0 -56 -45z" />
    <glyph glyph-name="Ncommaaccent.alt1" horiz-adv-x="710" 
d="M121 0h-21v709l490 -658v646h21v-709l-490 658v-646zM315 0h-19l45 97h28z" />
    <glyph glyph-name="Ograve.alt1" horiz-adv-x="722" 
d="M376 600h-19l-54 97h28zM55 285q0 124 89 210q88 85 217 85t217 -85q89 -86 89 -210q0 -125 -89 -211q-88 -84 -217 -84t-217 84q-89 86 -89 211zM76 285q0 -117 82 -196t203 -79q122 0 203 78q82 79 82 197q0 115 -83 195t-202 80t-202 -80t-83 -195z" />
    <glyph glyph-name="Oacute.alt1" horiz-adv-x="722" 
d="M366 600h-19l45 97h28zM55 285q0 124 89 210q88 85 217 85t217 -85q89 -86 89 -210q0 -125 -89 -211q-88 -84 -217 -84t-217 84q-89 86 -89 211zM76 285q0 -117 82 -196t203 -79q122 0 203 78q82 79 82 197q0 115 -83 195t-202 80t-202 -80t-83 -195z" />
    <glyph glyph-name="Ocircumflex.alt1" horiz-adv-x="722" 
d="M259 600h-27l129 112l129 -112h-27l-102 87zM55 285q0 124 89 210q88 85 217 85t217 -85q89 -86 89 -210q0 -125 -89 -211q-88 -84 -217 -84t-217 84q-89 86 -89 211zM76 285q0 -117 82 -196t203 -79q122 0 203 78q82 79 82 197q0 115 -83 195t-202 80t-202 -80t-83 -195
z" />
    <glyph glyph-name="Otilde.alt1" horiz-adv-x="722" 
d="M240 638l-15 1q4 28 23 45.5t47 17.5q30 0 70 -25q41 -24 64 -24q48 0 57 53l15 -1q-4 -33 -23 -52t-48 -19q-30 0 -71 24q-38 25 -63 25q-46 0 -56 -45zM55 285q0 124 89 210q88 85 217 85t217 -85q89 -86 89 -210q0 -125 -89 -211q-88 -84 -217 -84t-217 84
q-89 86 -89 211zM76 285q0 -117 82 -196t203 -79q122 0 203 78q82 79 82 197q0 115 -83 195t-202 80t-202 -80t-83 -195z" />
    <glyph glyph-name="Odieresis.alt1" horiz-adv-x="823" 
d="M644 673q-19 0 -19 19q0 12 12 17.5t20 -4.5q10 -8 4.5 -20t-17.5 -12zM178 673q-19 0 -19 19q0 12 12 17.5t20 -4.5q10 -8 4.5 -20t-17.5 -12zM55 348q0 152 103 255q104 104 254 104q149 0 253 -104q103 -103 103 -255q0 -153 -103 -256q-103 -102 -253 -102t-254 102
q-103 103 -103 256zM76 348q0 -144 96 -242q96 -96 240 -96t239 96q96 97 96 242q0 144 -97 241q-96 98 -238 98q-141 0 -239 -98q-97 -97 -97 -241z" />
    <glyph glyph-name="Omacron.alt1" horiz-adv-x="722" 
d="M508 677h-294v20h294v-20zM55 285q0 124 89 210q88 85 217 85t217 -85q89 -86 89 -210q0 -125 -89 -211q-88 -84 -217 -84t-217 84q-89 86 -89 211zM76 285q0 -117 82 -196t203 -79q122 0 203 78q82 79 82 197q0 115 -83 195t-202 80t-202 -80t-83 -195z" />
    <glyph glyph-name="Obreve.alt1" horiz-adv-x="722" 
d="M261 697h21q14 -63 79 -63t79 63h21q-6 -38 -33.5 -60.5t-66.5 -22.5t-66.5 22.5t-33.5 60.5zM55 285q0 124 89 210q88 85 217 85t217 -85q89 -86 89 -210q0 -125 -89 -211q-88 -84 -217 -84t-217 84q-89 86 -89 211zM76 285q0 -117 82 -196t203 -79q122 0 203 78
q82 79 82 197q0 115 -83 195t-202 80t-202 -80t-83 -195z" />
    <glyph glyph-name="Ohungarumlaut.alt1" horiz-adv-x="722" 
d="M439 600h-19l55 97h28zM288 600h-19l55 97h28zM55 285q0 124 89 210q88 85 217 85t217 -85q89 -86 89 -210q0 -125 -89 -211q-88 -84 -217 -84t-217 84q-89 86 -89 211zM76 285q0 -117 82 -196t203 -79q122 0 203 78q82 79 82 197q0 115 -83 195t-202 80t-202 -80
t-83 -195z" />
    <glyph glyph-name="Oslashacute.alt1" horiz-adv-x="722" 
d="M368 600h-19l45 97h28zM144 -25l-17 12l48 62q-57 42 -88.5 103t-31.5 133q0 124 89 210q88 85 217 85q97 0 177 -54l53 69l17 -11l-53 -70q112 -88 112 -229q0 -125 -89 -211q-88 -84 -217 -84q-97 0 -170 48zM186 66l339 443q-74 51 -164 51q-119 0 -202 -80t-83 -195
q0 -67 29 -124.5t81 -94.5zM542 497l-339 -442q72 -45 158 -45q122 0 203 78q82 79 82 197q0 132 -104 212z" />
    <glyph glyph-name="Racute.alt1" horiz-adv-x="538" 
d="M278 600h-19l45 97h28zM121 0h-21v583h186q78 0 130 -46q54 -47 54 -116q0 -57 -35.5 -100t-94.5 -57l158 -264h-24l-155 259q-22 -2 -50 -2h-148v-257zM121 563v-286h164q70 0 117 41t47 103q0 60 -47 101t-116 41h-165z" />
    <glyph glyph-name="Rcaron.alt1" horiz-adv-x="538" 
d="M399 697l-129 -103l-129 103h28l101 -80l101 80h28zM121 0h-21v583h186q78 0 130 -46q54 -47 54 -116q0 -57 -35.5 -100t-94.5 -57l158 -264h-24l-155 259q-22 -2 -50 -2h-148v-257zM121 563v-286h164q70 0 117 41t47 103q0 60 -47 101t-116 41h-165z" />
    <glyph glyph-name="Rcommaaccent.alt1" horiz-adv-x="573" 
d="M121 0h-21v697h206q85 0 141 -55q57 -56 57 -138q0 -68 -39 -119t-105 -68l172 -317h-24l-169 312q-22 -2 -50 -2h-168v-310zM121 677v-347h184q78 0 127 49q51 49 51 125q0 74 -51 123q-50 50 -126 50h-185zM259 0h-19l45 97h28z" />
    <glyph glyph-name="Sacute.alt1" horiz-adv-x="469" 
d="M240 600h-19l45 97h28zM54 66v30q62 -86 175 -86q80 0 124.5 33t44.5 90q0 60 -36 93q-34 34 -134 84q-75 38 -105.5 69.5t-30.5 74.5q0 58 39.5 92t107.5 34q65 0 111 -42v-28q-44 50 -113 50q-57 0 -90.5 -29t-33.5 -77q0 -35 28.5 -63t95.5 -62q103 -51 142 -91
q40 -40 40 -105q0 -66 -50.5 -104.5t-138.5 -38.5q-113 0 -176 76z" />
    <glyph glyph-name="Scircumflex.alt1" horiz-adv-x="469" 
d="M137 600h-27l129 112l129 -112h-27l-102 87zM54 66v30q62 -86 175 -86q80 0 124.5 33t44.5 90q0 60 -36 93q-34 34 -134 84q-75 38 -105.5 69.5t-30.5 74.5q0 58 39.5 92t107.5 34q65 0 111 -42v-28q-44 50 -113 50q-57 0 -90.5 -29t-33.5 -77q0 -35 28.5 -63t95.5 -62
q103 -51 142 -91q40 -40 40 -105q0 -66 -50.5 -104.5t-138.5 -38.5q-113 0 -176 76z" />
    <glyph glyph-name="Scaron.alt1" horiz-adv-x="469" 
d="M370 697l-129 -103l-129 103h28l101 -80l101 80h28zM54 66v30q62 -86 175 -86q80 0 124.5 33t44.5 90q0 60 -36 93q-34 34 -134 84q-75 38 -105.5 69.5t-30.5 74.5q0 58 39.5 92t107.5 34q65 0 111 -42v-28q-44 50 -113 50q-57 0 -90.5 -29t-33.5 -77q0 -35 28.5 -63
t95.5 -62q103 -51 142 -91q40 -40 40 -105q0 -66 -50.5 -104.5t-138.5 -38.5q-113 0 -176 76z" />
    <glyph glyph-name="Scommaaccent.alt1" horiz-adv-x="469" 
d="M54 193v30q62 -86 175 -86q80 0 124.5 33t44.5 90q0 60 -36 93q-34 34 -134 84q-75 38 -105.5 69.5t-30.5 74.5q0 58 39.5 92t107.5 34q65 0 111 -42v-28q-44 50 -113 50q-57 0 -90.5 -29t-33.5 -77q0 -35 28.5 -63t95.5 -62q103 -51 142 -91q40 -40 40 -105
q0 -66 -50.5 -104.5t-138.5 -38.5q-113 0 -176 76zM191 0h-19l45 97h28z" />
    <glyph glyph-name="Scedilla.alt1" horiz-adv-x="469" 
d="M175 8l10 14q20 -16 42 -16q15 0 24.5 7.5t9.5 20.5q0 27 -41 27l-22 -2l24 58q-108 3 -168 76v30q62 -86 175 -86q80 0 124.5 33t44.5 90q0 60 -36 93q-34 34 -134 84q-75 38 -105.5 69.5t-30.5 74.5q0 58 39.5 92t107.5 34q65 0 111 -42v-28q-44 50 -113 50
q-57 0 -90.5 -29t-33.5 -77q0 -35 28.5 -63t95.5 -62q103 -51 142 -91q40 -40 40 -105q0 -63 -47 -102t-130 -41l-18 -41q2 1 10 1q20 0 34 -12t14 -31q0 -21 -15 -34t-39 -13q-30 0 -53 21z" />
    <glyph glyph-name="Tcaron.alt1" horiz-adv-x="534" 
d="M395 697l-129 -103l-129 103h28l101 -80l101 80h28zM277 0h-21v563h-218v20h457v-20h-218v-563z" />
    <glyph glyph-name="Tcommaaccent.alt1" horiz-adv-x="534" 
d="M277 114h-21v563h-218v20h457v-20h-218v-563zM226 0h-19l45 97h28z" />
    <glyph glyph-name="Ugrave.alt1" horiz-adv-x="656" 
d="M95 220v477h21v-475q0 -99 56.5 -154.5t155.5 -55.5t155.5 55.5t56.5 154.5v475h21v-475q0 -108 -64 -169t-170 -61t-169 61t-63 167zM362 600h-19l-54 97h28z" />
    <glyph glyph-name="Uacute.alt1" horiz-adv-x="656" 
d="M95 220v477h21v-475q0 -99 56.5 -154.5t155.5 -55.5t155.5 55.5t56.5 154.5v475h21v-475q0 -108 -64 -169t-170 -61t-169 61t-63 167zM309 600h-19l45 97h28z" />
    <glyph glyph-name="Ucircumflex.alt1" horiz-adv-x="656" 
d="M226 600h-27l129 112l129 -112h-27l-102 87zM95 220v477h21v-475q0 -99 56.5 -154.5t155.5 -55.5t155.5 55.5t56.5 154.5v475h21v-475q0 -108 -64 -169t-170 -61t-169 61t-63 167z" />
    <glyph glyph-name="Utilde.alt1" horiz-adv-x="656" 
d="M205 638l-15 1q4 28 23 45.5t47 17.5q30 0 70 -25q40 -24 64 -24q48 0 57 53l15 -1q-4 -33 -23 -52t-48 -19q-31 0 -71 24q-38 25 -63 25q-45 0 -56 -45zM95 220v477h21v-475q0 -99 56.5 -154.5t155.5 -55.5t155.5 55.5t56.5 154.5v475h21v-475q0 -108 -64 -169t-170 -61
t-169 61t-63 167z" />
    <glyph glyph-name="Udieresis.alt1" horiz-adv-x="656" 
d="M425 691q-19 0 -19 19t19 19q18 0 18.5 -19t-18.5 -19zM231 691q-19 0 -19 19t19 19q18 0 18.5 -19t-18.5 -19zM95 220v477h21v-475q0 -99 56.5 -154.5t155.5 -55.5t155.5 55.5t56.5 154.5v475h21v-475q0 -108 -64 -169t-170 -61t-169 61t-63 167z" />
    <glyph glyph-name="Umacron.alt1" horiz-adv-x="656" 
d="M95 220v477h21v-475q0 -99 56.5 -154.5t155.5 -55.5t155.5 55.5t56.5 154.5v475h21v-475q0 -108 -64 -169t-170 -61t-169 61t-63 167zM473 677h-290v20h290v-20z" />
    <glyph glyph-name="Ubreve.alt1" horiz-adv-x="656" 
d="M95 220v477h21v-475q0 -99 56.5 -154.5t155.5 -55.5t155.5 55.5t56.5 154.5v475h21v-475q0 -108 -64 -169t-170 -61t-169 61t-63 167zM228 697h21q13 -63 79 -63t79 63h21q-6 -38 -33.5 -60.5t-66.5 -22.5t-66.5 22.5t-33.5 60.5z" />
    <glyph glyph-name="Uring.alt1" horiz-adv-x="656" 
d="M95 220v477h21v-475q0 -99 56.5 -154.5t155.5 -55.5t155.5 55.5t56.5 154.5v475h21v-475q0 -108 -64 -169t-170 -61t-169 61t-63 167zM372 605q-18 -18 -44 -18t-45 18q-18 19 -18 44t18 43q19 19 45 19t44 -19q19 -18 19 -43t-19 -44zM298 619q13 -12 30 -12t29 12
q13 13 13 30t-13 29q-12 13 -29 13t-30 -13q-12 -12 -12 -29t12 -30z" />
    <glyph glyph-name="Uhungarumlaut.alt1" horiz-adv-x="656" 
d="M95 220v477h21v-475q0 -99 56.5 -154.5t155.5 -55.5t155.5 55.5t56.5 154.5v475h21v-475q0 -108 -64 -169t-170 -61t-169 61t-63 167zM384 600h-19l55 97h28zM233 600h-19l55 97h28z" />
    <glyph glyph-name="Uogonek.alt1" horiz-adv-x="656" 
d="M325 43q0 47 54 76q-23 -5 -52 -5q-106 0 -169 61t-63 167v355h21v-353q0 -99 56.5 -154.5t155.5 -55.5t155.5 55.5t56.5 154.5v353h21v-353q0 -63 -24.5 -113.5t-67.5 -77.5q-20 -13 -39 -22q-32 -16 -42 -22q-42 -23 -42 -61q0 -31 36 -31q25 0 43 15l-5 -22
q-19 -13 -43 -13q-25 0 -38.5 12.5t-13.5 33.5z" />
    <glyph glyph-name="Wgrave.alt1" horiz-adv-x="934" 
d="M467 524l-188 -537l-245 710h22l224 -641l187 531l187 -531l224 641h22l-245 -710zM492 600h-19l-54 97h28z" />
    <glyph glyph-name="Wacute.alt1" horiz-adv-x="934" 
d="M467 524l-188 -537l-245 710h22l224 -641l187 531l187 -531l224 641h22l-245 -710zM461 600h-19l45 97h28z" />
    <glyph glyph-name="Wcircumflex.alt1" horiz-adv-x="934" 
d="M365 600h-27l129 112l129 -112h-27l-102 87zM467 524l-188 -537l-245 710h22l224 -641l187 531l187 -531l224 641h22l-245 -710z" />
    <glyph glyph-name="Wdieresis.alt1" horiz-adv-x="934" 
d="M467 524l-188 -537l-245 710h22l224 -641l187 531l187 -531l224 641h22l-245 -710zM558 628q-19 0 -19 19t19 18.5t19 -18.5q0 -19 -19 -19zM376 628q-19 0 -19 19t19 18.5t19 -18.5q0 -19 -19 -19z" />
    <glyph glyph-name="Ygrave.alt1" horiz-adv-x="568" 
d="M295 0h-21v303l-242 394h24l229 -372l228 372h24l-242 -394v-303zM318 600h-19l-54 97h28z" />
    <glyph glyph-name="Yacute.alt1" horiz-adv-x="568" 
d="M295 0h-21v303l-242 394h24l229 -372l228 372h24l-242 -394v-303zM278 600h-19l45 97h28z" />
    <glyph glyph-name="Ycircumflex.alt1" horiz-adv-x="568" 
d="M183 600h-27l129 112l129 -112h-27l-102 87zM295 0h-21v303l-242 394h24l229 -372l228 372h24l-242 -394v-303z" />
    <glyph glyph-name="Ydieresis.alt1" horiz-adv-x="568" 
d="M295 0h-21v303l-242 394h24l229 -372l228 372h24l-242 -394v-303zM361 628q-19 0 -19 19t19 19q7 0 13 -6t6 -13q0 -19 -19 -19zM209 628q-19 0 -19 19t19 19q7 0 13 -6t6 -13q0 -19 -19 -19z" />
    <glyph glyph-name="Zacute.alt1" horiz-adv-x="597" 
d="M311 600h-19l45 97h28zM547 0h-526l496 563h-433v20h477l-494 -563h480v-20z" />
    <glyph glyph-name="Zcaron.alt1" horiz-adv-x="597" 
d="M450 697l-129 -103l-129 103h28l101 -80l101 80h28zM547 0h-526l496 563h-433v20h477l-494 -563h480v-20z" />
    <glyph glyph-name="Zdotaccent.alt1" horiz-adv-x="597" 
d="M323 628q-19 0 -19 19t19 19q7 0 13 -6t6 -13q0 -19 -19 -19zM547 0h-526l496 563h-433v20h477l-494 -563h480v-20z" />
    <glyph glyph-name="Eng.alt1" horiz-adv-x="710" 
d="M121 0h-21v709l454 -665q35 37 35 135v518h21v-517q0 -102 -34 -145t-127 -43q-40 0 -61 10v21q24 -11 69 -11q54 0 80 19l-416 611v-642z" />
    <glyph glyph-name="Cacute.alt2" horiz-adv-x="648" 
d="M362 600h-19l45 97h28zM55 285q0 123 89 209t217 86q66 0 128 -30.5t110 -85.5l-14 -13q-90 109 -224 109q-121 0 -203 -79t-82 -196t82 -196t203 -79q134 0 224 109l14 -13q-46 -55 -108.5 -85.5t-129.5 -30.5q-128 0 -217 85q-89 86 -89 210z" />
    <glyph glyph-name="Ccircumflex.alt2" horiz-adv-x="648" 
d="M262 600h-27l129 112l129 -112h-27l-102 87zM55 285q0 123 89 209t217 86q66 0 128 -30.5t110 -85.5l-14 -13q-90 109 -224 109q-121 0 -203 -79t-82 -196t82 -196t203 -79q134 0 224 109l14 -13q-46 -55 -108.5 -85.5t-129.5 -30.5q-128 0 -217 85q-89 86 -89 210z" />
    <glyph glyph-name="Ccaron.alt2" horiz-adv-x="648" 
d="M492 697l-129 -103l-129 103h28l101 -80l101 80h28zM55 285q0 123 89 209t217 86q66 0 128 -30.5t110 -85.5l-14 -13q-90 109 -224 109q-121 0 -203 -79t-82 -196t82 -196t203 -79q134 0 224 109l14 -13q-46 -55 -108.5 -85.5t-129.5 -30.5q-128 0 -217 85
q-89 86 -89 210z" />
    <glyph glyph-name="Cdotaccent.alt2" horiz-adv-x="648" 
d="M360 628q-19 0 -19 19t19 18.5t19 -18.5q0 -19 -19 -19zM55 285q0 123 89 209t217 86q66 0 128 -30.5t110 -85.5l-14 -13q-90 109 -224 109q-121 0 -203 -79t-82 -196t82 -196t203 -79q134 0 224 109l14 -13q-46 -55 -108.5 -85.5t-129.5 -30.5q-128 0 -217 85
q-89 86 -89 210z" />
    <glyph glyph-name="Ccedilla.alt2" horiz-adv-x="691" 
d="M283 8l10 14q20 -16 42 -16q15 0 24.5 7.5t9.5 20.5q0 27 -41 27l-22 -2l25 59q-116 10 -197 94q-79 82 -79 200q0 123 89 209t217 86q66 0 128 -30.5t110 -85.5l-14 -13q-90 109 -224 109q-121 0 -203 -79t-82 -196t82 -196t203 -79q134 0 224 109l14 -13
q-46 -55 -108.5 -85.5t-129.5 -30.5h-11l-18 -41q2 1 10 1q19 0 33.5 -12.5t14.5 -30.5q0 -21 -15 -34t-39 -13q-30 0 -53 21z" />
    <glyph glyph-name="Gcircumflex.alt2" horiz-adv-x="657" 
d="M255 600h-27l129 112l129 -112h-27l-102 87zM356 579q106 0 188 -62l-11 -15q-77 57 -177 57q-120 0 -200 -79q-81 -78 -81 -196t81 -197q81 -78 200 -78q125 0 211 83v186h-224v20h245v-214q-95 -95 -232 -95q-128 0 -215 84q-87 85 -87 211t87 210q88 85 215 85z" />
    <glyph glyph-name="Gbreve.alt2" horiz-adv-x="657" 
d="M254 697h21q13 -63 79 -63t79 63h21q-6 -38 -33.5 -60.5t-66.5 -22.5t-66.5 22.5t-33.5 60.5zM356 579q106 0 188 -62l-11 -15q-77 57 -177 57q-120 0 -200 -79q-81 -78 -81 -196t81 -197q81 -78 200 -78q125 0 211 83v186h-224v20h245v-214q-95 -95 -232 -95
q-128 0 -215 84q-87 85 -87 211t87 210q88 85 215 85z" />
    <glyph glyph-name="Gdotaccent.alt2" horiz-adv-x="657" 
d="M356 628q-19 0 -19 19t19 18.5t19 -18.5q0 -19 -19 -19zM356 579q106 0 188 -62l-11 -15q-77 57 -177 57q-120 0 -200 -79q-81 -78 -81 -196t81 -197q81 -78 200 -78q125 0 211 83v186h-224v20h245v-214q-95 -95 -232 -95q-128 0 -215 84q-87 85 -87 211t87 210
q88 85 215 85z" />
    <glyph glyph-name="Gcommaaccent.alt2" horiz-adv-x="657" 
d="M356 117q-128 0 -215 84q-87 85 -87 211t87 210q88 85 215 85q106 0 188 -62l-11 -15q-77 57 -177 57q-120 0 -200 -79q-81 -78 -81 -196t81 -197q81 -78 200 -78q125 0 211 83v186h-224v20h245v-214q-95 -95 -232 -95zM310 0h-19l45 97h28z" />
    <glyph glyph-name="Kcommaaccent.alt2" horiz-adv-x="604" 
d="M121 0h-21v697h21v-440l403 440h28l-283 -309l298 -388h-28l-285 372l-133 -145v-227zM277 0h-19l45 97h28z" />
    <glyph glyph-name="Sacute.alt2" horiz-adv-x="467" 
d="M237 600h-19l45 97h28zM46 120l18 7q20 -55 67 -86t112 -31q72 0 113 34.5t41 90.5q0 59 -36 94q-34 34 -121 69q-82 33 -117 64q-36 32 -36 91q0 55 40.5 91t101.5 36q98 0 140 -91l-17 -9q-38 80 -123 80q-53 0 -87 -29.5t-34 -77.5q0 -51 32 -78q31 -26 110 -58
q90 -37 129 -75q39 -37 39 -106q0 -67 -47.5 -106.5t-128.5 -39.5q-71 0 -122.5 34t-73.5 96z" />
    <glyph glyph-name="Scircumflex.alt2" horiz-adv-x="468" 
d="M130 600h-27l129 112l129 -112h-27l-102 87zM46 120l18 7q20 -55 67 -86t112 -31q72 0 113 34.5t41 90.5q0 59 -36 94q-34 34 -121 69q-82 33 -117 64q-36 32 -36 91q0 55 40.5 91t101.5 36q98 0 140 -91l-17 -9q-38 80 -123 80q-53 0 -87 -29.5t-34 -77.5q0 -51 32 -78
q31 -26 110 -58q90 -37 129 -75q39 -37 39 -106q0 -67 -47.5 -106.5t-128.5 -39.5q-71 0 -122.5 34t-73.5 96z" />
    <glyph glyph-name="Scaron.alt2" horiz-adv-x="468" 
d="M364 697l-129 -103l-129 103h28l101 -80l101 80h28zM46 120l18 7q20 -55 67 -86t112 -31q72 0 113 34.5t41 90.5q0 59 -36 94q-34 34 -121 69q-82 33 -117 64q-36 32 -36 91q0 55 40.5 91t101.5 36q98 0 140 -91l-17 -9q-38 80 -123 80q-53 0 -87 -29.5t-34 -77.5
q0 -51 32 -78q31 -26 110 -58q90 -37 129 -75q39 -37 39 -106q0 -67 -47.5 -106.5t-128.5 -39.5q-71 0 -122.5 34t-73.5 96z" />
    <glyph glyph-name="Scommaaccent.alt2" horiz-adv-x="468" 
d="M46 247l18 7q20 -55 67 -86t112 -31q72 0 113 34.5t41 90.5q0 60 -36 94q-34 34 -121 69q-82 33 -117 64q-36 31 -36 91q0 55 40.5 91t101.5 36q98 0 140 -91l-17 -9q-38 80 -123 80q-53 0 -87 -29.5t-34 -77.5q0 -51 32 -78q31 -26 110 -58q90 -38 129 -75t39 -106
q0 -67 -47.5 -106.5t-128.5 -39.5q-71 0 -122.5 34t-73.5 96zM197 0h-19l45 97h28z" />
    <glyph glyph-name="Scedilla.alt2" horiz-adv-x="468" 
d="M181 8l10 14q20 -16 42 -16q15 0 24.5 7.5t9.5 20.5q0 27 -41 27l-22 -2l24 58q-66 3 -113.5 36.5t-68.5 93.5l18 7q20 -55 67 -86t112 -31q72 0 113 34.5t41 90.5q0 60 -36 94q-34 34 -121 69q-82 33 -117 64q-36 31 -36 91q0 55 40.5 91t101.5 36q98 0 140 -91l-17 -9
q-38 80 -123 80q-53 0 -87 -29.5t-34 -77.5q0 -51 32 -78q31 -26 110 -58q90 -38 129 -75t39 -106q0 -66 -45.5 -105.5t-124.5 -40.5l-18 -41q2 1 10 1q20 0 34 -12t14 -31q0 -21 -15 -34t-39 -13q-30 0 -53 21z" />
    <glyph glyph-name="Wgrave.alt2" horiz-adv-x="889" 
d="M461 600h-19l-54 97h28zM444 335l-156 -347l-263 595h23l241 -544l142 319l-100 225h24l89 -202l89 202h24l-100 -225l142 -319l241 544h23l-263 -595z" />
    <glyph glyph-name="Wacute.alt2" horiz-adv-x="889" 
d="M439 600h-19l45 97h28zM444 335l-156 -347l-263 595h23l241 -544l142 319l-100 225h24l89 -202l89 202h24l-100 -225l142 -319l241 544h23l-263 -595z" />
    <glyph glyph-name="Wcircumflex.alt2" horiz-adv-x="889" 
d="M342 600h-27l129 112l129 -112h-27l-102 87zM444 335l-156 -347l-263 595h23l241 -544l142 319l-100 225h24l89 -202l89 202h24l-100 -225l142 -319l241 544h23l-263 -595z" />
    <glyph glyph-name="Wdieresis.alt2" horiz-adv-x="889" 
d="M535 628q-19 0 -19 19t19 19q7 0 13 -6t6 -13q0 -19 -19 -19zM353 628q-19 0 -19 19t19 19q7 0 13 -6t6 -13q0 -19 -19 -19zM444 335l-156 -347l-263 595h23l241 -544l142 319l-100 225h24l89 -202l89 202h24l-100 -225l142 -319l241 544h23l-263 -595z" />
    <glyph glyph-name="A.smcp" horiz-adv-x="553" 
d="M54 0h-22l245 569l245 -569h-22l-71 165h-304zM277 520l-143 -335h286z" />
    <glyph glyph-name="B.smcp" horiz-adv-x="488" 
d="M282 0h-194v558h173q63 0 101.5 -37t38.5 -97q0 -43 -23.5 -75.5t-63.5 -45.5q58 -5 93 -47q37 -43 37 -103q0 -65 -47 -109t-115 -44zM109 538v-228h150q52 0 86.5 32.5t34.5 80.5q0 51 -34 83t-87 32h-150zM109 290v-270h172q60 0 101 38q41 39 41 95q0 60 -41 98.5
t-106 38.5h-167z" />
    <glyph glyph-name="C.smcp" horiz-adv-x="573" 
d="M335 567q101 0 177 -61v-24q-77 65 -177 65q-114 0 -191 -77q-76 -76 -76 -191t76 -191t191 -76q100 0 177 65v-25q-78 -60 -177 -60q-123 0 -205 82q-83 83 -83 205t83 205t205 83z" />
    <glyph glyph-name="D.smcp" horiz-adv-x="615" 
d="M258 0h-170v558h169q140 0 223 -77q84 -76 84 -202t-83 -203q-82 -76 -223 -76zM109 538v-518h148q133 0 209 70q77 71 77 189q0 117 -77 188t-210 71h-147z" />
    <glyph glyph-name="E.smcp" horiz-adv-x="447" 
d="M391 0h-303v558h297v-20h-276v-233h260v-20h-260v-265h282v-20z" />
    <glyph glyph-name="F.smcp" horiz-adv-x="409" 
d="M109 0h-21v558h271v-20h-250v-233h229v-20h-229v-285z" />
    <glyph glyph-name="G.smcp" horiz-adv-x="595" 
d="M332 567q90 0 157 -43v-23q-73 46 -157 46q-112 0 -189 -77q-75 -76 -75 -191t75 -191q76 -76 189 -76q107 0 184 65v194h-195v20h216v-222q-83 -77 -205 -77q-121 0 -203 82t-82 205t82 205q83 83 203 83z" />
    <glyph glyph-name="H.smcp" horiz-adv-x="593" 
d="M109 0h-21v558h21v-251h376v251h21v-558h-21v287h-376v-287z" />
    <glyph glyph-name="I.smcp" horiz-adv-x="202" 
d="M112 0h-21v558h21v-558z" />
    <glyph glyph-name="J.smcp" horiz-adv-x="291" 
d="M30 0v20q18 -7 53 -7q58 0 80.5 29t22.5 97v419h21v-418q0 -78 -27 -112.5t-97 -34.5q-33 0 -53 7z" />
    <glyph glyph-name="K.smcp" horiz-adv-x="487" 
d="M109 0h-21v558h21v-262l304 262h31l-313 -270l320 -288h-31l-311 280v-280z" />
    <glyph glyph-name="L.smcp" horiz-adv-x="417" 
d="M376 0h-288v558h21v-538h267v-20z" />
    <glyph glyph-name="M.smcp" horiz-adv-x="705" 
d="M109 0h-21v568l265 -439l265 439v-568h-21v492l-244 -403l-244 403v-492z" />
    <glyph glyph-name="N.smcp" horiz-adv-x="613" 
d="M109 0h-21v568l417 -519v509h21v-568l-417 520v-510z" />
    <glyph glyph-name="O.smcp" horiz-adv-x="663" 
d="M47 279q0 123 83 204q82 82 202 82t202 -82q83 -81 83 -204t-83 -206q-83 -81 -202 -81q-120 0 -202 81q-83 83 -83 206zM144 469q-76 -75 -76 -190t76 -191t188 -76t188 76t76 191t-76 190q-76 76 -188 76t-188 -76z" />
    <glyph glyph-name="P.smcp" horiz-adv-x="464" 
d="M109 0h-21v558h153q82 0 129 -47q48 -47 48 -114q0 -69 -49 -115t-128 -46h-132v-236zM109 538v-282h132q72 0 114 40.5t42 100.5q0 58 -41 99q-40 42 -115 42h-132z" />
    <glyph glyph-name="Q.smcp" horiz-adv-x="662" 
d="M47 278q0 123 83 204q82 82 201 82t201 -81q83 -81 83 -205q0 -120 -82 -202l70 -76h-26l-60 63q-77 -71 -186 -71q-119 0 -201 82q-83 83 -83 204zM68 278q0 -113 76 -189q77 -77 187 -77q103 0 173 66l-148 162h26l138 -149q74 77 74 187q0 114 -76 190t-187 76
t-187 -76t-76 -190z" />
    <glyph glyph-name="R.smcp" horiz-adv-x="495" 
d="M109 0h-21v558h177q71 0 121 -45q50 -44 50 -110q0 -55 -33.5 -96t-89.5 -55l147 -252h-25l-143 247q-24 -2 -31 -2h-152v-245zM109 538v-273h155q64 0 108 39q43 39 43 99q0 57 -43 96q-44 39 -107 39h-156z" />
    <glyph glyph-name="S.smcp" horiz-adv-x="456" 
d="M48 68v29q66 -85 180 -85q76 0 118.5 33t42.5 91q0 55 -34 83q-34 31 -128 77q-76 38 -107 69t-31 77q0 57 39 91t108 34q72 0 115 -40v-24q-44 44 -116 44q-58 0 -91.5 -28.5t-33.5 -76.5q0 -38 29 -67t97 -60q97 -46 137 -83q37 -34 37 -95q0 -66 -48.5 -105.5
t-132.5 -39.5q-114 0 -181 76z" />
    <glyph glyph-name="T.smcp" horiz-adv-x="459" 
d="M240 0h-21v538h-185v20h391v-20h-185v-538z" />
    <glyph glyph-name="U.smcp" horiz-adv-x="565" 
d="M83 178v380h21v-378q0 -77 48.5 -121.5t130.5 -44.5q83 0 131 44t48 122v378h21v-378q0 -86 -54.5 -136t-146.5 -50q-90 0 -144.5 49.5t-54.5 134.5z" />
    <glyph glyph-name="V.smcp" horiz-adv-x="540" 
d="M502 558l-232 -568l-231 568h22l209 -513l209 513h23z" />
    <glyph glyph-name="W.smcp" horiz-adv-x="802" 
d="M401 505l-164 -516l-205 569h22l182 -506l165 518l165 -518l182 506h22l-205 -569z" />
    <glyph glyph-name="X.smcp" horiz-adv-x="537" 
d="M70 0h-25l211 289l-200 269h24l189 -253l189 253h24l-200 -269l211 -289h-25l-199 273z" />
    <glyph glyph-name="Y.smcp" horiz-adv-x="491" 
d="M257 0h-21v242l-207 316h24l193 -294l194 294h24l-207 -316v-242z" />
    <glyph glyph-name="Z.smcp" horiz-adv-x="528" 
d="M484 0h-463l433 538h-368v20h411l-434 -538h421v-20z" />
    <glyph glyph-name="Agrave.smcp" horiz-adv-x="553" 
d="M295 596h-18l-66 116h25zM54 0h-22l245 569l245 -569h-22l-71 165h-304zM277 520l-143 -335h286z" />
    <glyph glyph-name="Aacute.smcp" horiz-adv-x="553" 
d="M276 596h-18l59 116h25zM54 0h-22l245 569l245 -569h-22l-71 165h-304zM277 520l-143 -335h286z" />
    <glyph glyph-name="Acircumflex.smcp" horiz-adv-x="553" 
d="M193 615h-27l111 103l111 -103h-27l-84 77zM54 0h-22l245 569l245 -569h-22l-71 165h-304zM277 520l-143 -335h286z" />
    <glyph glyph-name="Atilde.smcp" horiz-adv-x="553" 
d="M179 619l-15 1q3 23 19 37.5t38 14.5q26 0 57 -19q33 -18 53 -18q37 0 44 40l15 -1q-3 -27 -18.5 -42.5t-39.5 -15.5q-26 0 -58 18q-31 19 -52 19q-36 0 -43 -34zM54 0h-22l245 569l245 -569h-22l-71 165h-304zM277 520l-143 -335h286z" />
    <glyph glyph-name="Adieresis.smcp" horiz-adv-x="553" 
d="M377 619q-7 -7 -17 -3.5t-12.5 12t4.5 17.5q8 8 18 4.5t12.5 -12.5t-5.5 -18zM203 619q-13 -13 -26 0t0 26t26 0t0 -26zM54 0h-22l245 569l245 -569h-22l-71 165h-304zM277 520l-143 -335h286z" />
    <glyph glyph-name="Amacron.smcp" horiz-adv-x="553" 
d="M403 615h-251v20h251v-20zM54 0h-22l245 569l245 -569h-22l-71 165h-304zM277 520l-143 -335h286z" />
    <glyph glyph-name="Abreve.smcp" horiz-adv-x="553" 
d="M277 601q-37 0 -63 21t-31 57h20q15 -58 74 -58q58 0 74 58h20q-6 -36 -31.5 -57t-62.5 -21zM54 0h-22l245 569l245 -569h-22l-71 165h-304zM277 520l-143 -335h286z" />
    <glyph glyph-name="Aring.smcp" horiz-adv-x="553" 
d="M54 0h-22l238 553q-20 3 -33.5 18t-13.5 34q0 22 16 38t38 16q23 0 39 -16t16 -38q0 -19 -14 -34t-34 -18l238 -553h-22l-71 165h-304zM311 605q1 21 -16.5 29.5t-35 0t-16.5 -29.5q-1 -20 16.5 -28t35 0t16.5 28zM277 520l-143 -335h286z" />
    <glyph glyph-name="Aringacute.smcp" horiz-adv-x="553" 
d="M288 677h-18l49 98h25zM54 0h-22l238 553q-20 3 -33.5 18t-13.5 34q0 22 16 38t38 16q23 0 39 -16t16 -38q0 -19 -14 -34t-34 -18l238 -553h-22l-71 165h-304zM311 605q1 21 -16.5 29.5t-35 0t-16.5 -29.5q-1 -20 16.5 -28t35 0t16.5 28zM277 520l-143 -335h286z" />
    <glyph glyph-name="Aogonek.smcp" horiz-adv-x="553" 
d="M54 0h-22l245 569l245 -569q-73 -37 -73 -87q0 -18 13 -29.5t33 -11.5q33 0 53 13l-5 -22q-22 -11 -51 -11q-28 0 -46 16.5t-18 41.5q0 29 20 53.5t50 36.5l1 1l-70 164h-304zM277 520l-143 -335h286z" />
    <glyph glyph-name="AE.smcp" horiz-adv-x="823" 
d="M51 0h-28l457 558h281v-20h-266v-233h250v-20h-250v-265h272v-20h-293v155h-296zM474 517l-280 -342h280v342z" />
    <glyph glyph-name="AEacute.smcp" horiz-adv-x="823" 
d="M494 596h-18l59 116h25zM51 0h-28l457 558h281v-20h-266v-233h250v-20h-250v-265h272v-20h-293v155h-296zM474 517l-280 -342h280v342z" />
    <glyph glyph-name="Cacute.smcp" horiz-adv-x="573" 
d="M333 596h-18l59 116h25zM335 567q101 0 177 -61v-24q-77 65 -177 65q-114 0 -191 -77q-76 -76 -76 -191t76 -191t191 -76q100 0 177 65v-25q-78 -60 -177 -60q-123 0 -205 82q-83 83 -83 205t83 205t205 83z" />
    <glyph glyph-name="Ccircumflex.smcp" horiz-adv-x="573" 
d="M254 615h-27l111 103l111 -103h-27l-84 77zM335 567q101 0 177 -61v-24q-77 65 -177 65q-114 0 -191 -77q-76 -76 -76 -191t76 -191t191 -76q100 0 177 65v-25q-78 -60 -177 -60q-123 0 -205 82q-83 83 -83 205t83 205t205 83z" />
    <glyph glyph-name="Ccaron.smcp" horiz-adv-x="573" 
d="M444 712l-111 -103l-111 103h27l84 -77l84 77h27zM335 567q101 0 177 -61v-24q-77 65 -177 65q-114 0 -191 -77q-76 -76 -76 -191t76 -191t191 -76q100 0 177 65v-25q-78 -60 -177 -60q-123 0 -205 82q-83 83 -83 205t83 205t205 83z" />
    <glyph glyph-name="Cdotaccent.smcp" horiz-adv-x="573" 
d="M347 623q-13 -13 -26 0t0 26t26 0t0 -26zM335 567q101 0 177 -61v-24q-77 65 -177 65q-114 0 -191 -77q-76 -76 -76 -191t76 -191t191 -76q100 0 177 65v-25q-78 -60 -177 -60q-123 0 -205 82q-83 83 -83 205t83 205t205 83z" />
    <glyph glyph-name="Ccedilla.smcp" horiz-adv-x="574" 
d="M257 -116l10 14q17 -16 41 -16q14 0 23.5 7t9.5 18q0 30 -41 30q-2 0 -20 -2l26 59q-112 10 -186 90q-73 79 -73 195q0 122 83 205t205 83q101 0 177 -61v-24q-77 65 -177 65q-114 0 -191 -77q-76 -76 -76 -191t76 -191t191 -76q100 0 177 65v-25q-78 -60 -177 -60h-10
l-18 -40q2 1 9 1q19 0 32.5 -12t13.5 -32q0 -21 -15 -33.5t-38 -12.5q-33 0 -52 21z" />
    <glyph glyph-name="Dcaron.smcp" horiz-adv-x="615" 
d="M407 712l-111 -103l-111 103h27l84 -77l84 77h27zM258 0h-170v558h169q140 0 223 -77q84 -76 84 -202t-83 -203q-82 -76 -223 -76zM109 538v-518h148q133 0 209 70q77 71 77 189q0 117 -77 188t-210 71h-147z" />
    <glyph glyph-name="Dcroat.smcp" horiz-adv-x="615" 
d="M258 0h-170v277h-57v20h57v261h169q140 0 223 -77q84 -76 84 -202t-83 -203q-82 -76 -223 -76zM109 277v-257h148q133 0 209 70q77 71 77 189q0 117 -77 188t-210 71h-147v-241h124v-20h-124z" />
    <glyph glyph-name="Egrave.smcp" horiz-adv-x="447" 
d="M262 596h-18l-66 116h25zM391 0h-303v558h297v-20h-276v-233h260v-20h-260v-265h282v-20z" />
    <glyph glyph-name="Eacute.smcp" horiz-adv-x="447" 
d="M228 596h-18l59 116h25zM391 0h-303v558h297v-20h-276v-233h260v-20h-260v-265h282v-20z" />
    <glyph glyph-name="Ecircumflex.smcp" horiz-adv-x="447" 
d="M153 615h-27l111 103l111 -103h-27l-84 77zM391 0h-303v558h297v-20h-276v-233h260v-20h-260v-265h282v-20z" />
    <glyph glyph-name="Ecaron.smcp" horiz-adv-x="447" 
d="M353 712l-111 -103l-111 103h27l84 -77l84 77h27zM391 0h-303v558h297v-20h-276v-233h260v-20h-260v-265h282v-20z" />
    <glyph glyph-name="Edieresis.smcp" horiz-adv-x="447" 
d="M333 623q-7 -7 -17 -3.5t-12.5 12t4.5 17.5q8 8 18 4.5t12.5 -12.5t-5.5 -18zM169 623q-13 -13 -26 0t0 26t26 0t0 -26zM391 0h-303v558h297v-20h-276v-233h260v-20h-260v-265h282v-20z" />
    <glyph glyph-name="Emacron.smcp" horiz-adv-x="447" 
d="M364 615h-251v20h251v-20zM391 0h-303v558h297v-20h-276v-233h260v-20h-260v-265h282v-20z" />
    <glyph glyph-name="Ebreve.smcp" horiz-adv-x="447" 
d="M240 601q-37 0 -63 21t-31 57h20q13 -58 74 -58q58 0 74 58h20q-6 -36 -31.5 -57t-62.5 -21zM391 0h-303v558h297v-20h-276v-233h260v-20h-260v-265h282v-20z" />
    <glyph glyph-name="Edotaccent.smcp" horiz-adv-x="447" 
d="M253 623q-7 -7 -17 -3.5t-12.5 12t4.5 17.5q8 8 18 4.5t12.5 -12.5t-5.5 -18zM391 0h-303v558h297v-20h-276v-233h260v-20h-260v-265h282v-20z" />
    <glyph glyph-name="Eogonek.smcp" horiz-adv-x="447" 
d="M365 0h-277v558h297v-20h-276v-233h260v-20h-260v-265h282v-20q-73 -37 -73 -87q0 -18 13 -29.5t33 -11.5q33 0 53 13l-5 -22q-22 -11 -51 -11q-28 0 -46 16.5t-18 41.5q0 28 19.5 53t48.5 37z" />
    <glyph glyph-name="Gcircumflex.smcp" horiz-adv-x="595" 
d="M251 615h-27l111 103l111 -103h-27l-84 77zM332 567q90 0 157 -43v-23q-73 46 -157 46q-112 0 -189 -77q-75 -76 -75 -191t75 -191q76 -76 189 -76q107 0 184 65v194h-195v20h216v-222q-83 -77 -205 -77q-121 0 -203 82t-82 205t82 205q83 83 203 83z" />
    <glyph glyph-name="Gbreve.smcp" horiz-adv-x="595" 
d="M333 601q-37 0 -63 21t-31 57h20q15 -58 74 -58q58 0 74 58h20q-6 -36 -31.5 -57t-62.5 -21zM332 567q90 0 157 -43v-23q-73 46 -157 46q-112 0 -189 -77q-75 -76 -75 -191t75 -191q76 -76 189 -76q107 0 184 65v194h-195v20h216v-222q-83 -77 -205 -77q-121 0 -203 82
t-82 205t82 205q83 83 203 83z" />
    <glyph glyph-name="Gdotaccent.smcp" horiz-adv-x="595" 
d="M345 623q-13 -13 -26 0t0 26t26 0t0 -26zM332 567q90 0 157 -43v-23q-73 46 -157 46q-112 0 -189 -77q-75 -76 -75 -191t75 -191q76 -76 189 -76q107 0 184 65v194h-195v20h216v-222q-83 -77 -205 -77q-121 0 -203 82t-82 205t82 205q83 83 203 83z" />
    <glyph glyph-name="Gcommaaccent.smcp" horiz-adv-x="595" 
d="M332 567q90 0 157 -43v-23q-73 46 -157 46q-112 0 -189 -77q-75 -76 -75 -191t75 -191q76 -76 189 -76q107 0 184 65v194h-195v20h216v-222q-83 -77 -205 -77q-121 0 -203 82t-82 205t82 205q83 83 203 83zM275 -154h-18l59 116h25z" />
    <glyph glyph-name="Hcircumflex.smcp" horiz-adv-x="594" 
d="M213 615h-27l111 103l111 -103h-27l-84 77zM109 0h-21v558h21v-251h376v251h21v-558h-21v287h-376v-287z" />
    <glyph glyph-name="Hbar.smcp" horiz-adv-x="594" 
d="M109 0h-21v421h-52v20h52v117h21v-117h376v117h21v-117h49v-20h-49v-421h-21v287h-376v-287zM109 421v-114h376v114h-376z" />
    <glyph glyph-name="Igrave.smcp" horiz-adv-x="203" 
d="M111 596h-18l-66 116h25zM112 0h-21v558h21v-558z" />
    <glyph glyph-name="Iacute.smcp" horiz-adv-x="203" 
d="M111 596h-18l59 116h25zM112 0h-21v558h21v-558z" />
    <glyph glyph-name="Icircumflex.smcp" horiz-adv-x="203" 
d="M21 615h-27l107 103l107 -103h-27l-80 77zM112 0h-21v558h21v-558z" />
    <glyph glyph-name="Itilde.smcp" horiz-adv-x="203" 
d="M3 619l-15 1q3 23 19 37.5t38 14.5q26 0 57 -19q33 -18 53 -18q37 0 44 40l15 -1q-3 -27 -18.5 -42.5t-39.5 -15.5q-25 0 -58 18q-31 19 -52 19q-36 0 -43 -34zM112 0h-21v558h21v-558z" />
    <glyph glyph-name="Idieresis.smcp" horiz-adv-x="203" 
d="M177 623q-7 -7 -17 -3.5t-12.5 12t4.5 17.5q8 8 18 4.5t12.5 -12.5t-5.5 -18zM51 623q-13 -13 -26 0t0 26t26 0t0 -26zM112 0h-21v558h21v-558z" />
    <glyph glyph-name="Imacron.smcp" horiz-adv-x="203" 
d="M203 615h-204v20h204v-20zM112 0h-21v558h21v-558z" />
    <glyph glyph-name="Ibreve.smcp" horiz-adv-x="202" 
d="M101 601q-37 0 -63 21t-31 57h20q15 -58 74 -58q58 0 74 58h20q-6 -36 -31.5 -57t-62.5 -21zM112 0h-21v558h21v-558z" />
    <glyph glyph-name="Idotaccent.smcp" horiz-adv-x="203" 
d="M113 623q-7 -7 -17 -3.5t-12.5 12t4.5 17.5q8 8 18 4.5t12.5 -12.5t-5.5 -18zM112 0h-21v558h21v-558z" />
    <glyph glyph-name="Iogonek.smcp" horiz-adv-x="203" 
d="M91 2v1v555h21v-558q-73 -37 -73 -87q0 -18 13 -29.5t33 -11.5q33 0 53 13l-5 -22q-22 -11 -51 -11q-28 0 -46 16.5t-18 41.5q0 27 20 52.5t53 39.5z" />
    <glyph glyph-name="IJ.smcp" horiz-adv-x="380" 
d="M94 1v20q30 -8 67 -8q64 0 88.5 31.5t24.5 105.5v408h21v-405q0 -84 -29.5 -122t-103.5 -38q-31 0 -68 8zM115 119h-21v439h21v-439z" />
    <glyph glyph-name="Jcircumflex.smcp" horiz-adv-x="291" 
d="M112 615h-27l111 103l111 -103h-27l-84 77zM30 0v20q18 -7 53 -7q58 0 80.5 29t22.5 97v419h21v-418q0 -78 -27 -112.5t-97 -34.5q-33 0 -53 7z" />
    <glyph glyph-name="Kcommaaccent.smcp" horiz-adv-x="487" 
d="M109 0h-21v558h21v-262l304 262h31l-313 -270l320 -288h-31l-311 280v-280zM209 -154h-18l59 116h25z" />
    <glyph glyph-name="Lacute.smcp" horiz-adv-x="417" 
d="M106 596h-18l59 116h25zM376 0h-288v558h21v-538h267v-20z" />
    <glyph glyph-name="Lcaron.smcp" horiz-adv-x="417" 
d="M376 0h-288v558h21v-538h267v-20zM238 442h-18l59 116h25z" />
    <glyph glyph-name="Lcommaaccent.smcp" horiz-adv-x="417" 
d="M376 0h-288v558h21v-538h267v-20zM162 -154l59 116h25l-66 -116h-18z" />
    <glyph glyph-name="Ldot.smcp" horiz-adv-x="417" 
d="M376 0h-288v558h21v-538h267v-20zM267 293q-13 -13 -26 0t0 26t26 0t0 -26z" />
    <glyph glyph-name="Lslash.smcp" horiz-adv-x="417" 
d="M376 0h-288v253l-58 -32v21l58 32v284h21v-272l122 68v-21l-122 -68v-245h267v-20z" />
    <glyph glyph-name="Nacute.smcp" horiz-adv-x="613" 
d="M298 596h-18l59 116h25zM109 0h-21v568l417 -519v509h21v-568l-417 520v-510z" />
    <glyph glyph-name="Ncaron.smcp" horiz-adv-x="613" 
d="M420 712l-111 -103l-111 103h27l84 -77l84 77h27zM109 0h-21v568l417 -519v509h21v-568l-417 520v-510z" />
    <glyph glyph-name="Ntilde.smcp" horiz-adv-x="613" 
d="M211 619l-15 1q3 23 19 37.5t38 14.5q26 0 57 -19q33 -18 53 -18q37 0 44 40l15 -1q-3 -27 -18.5 -42.5t-39.5 -15.5q-26 0 -58 18q-31 19 -52 19q-36 0 -43 -34zM109 0h-21v568l417 -519v509h21v-568l-417 520v-510z" />
    <glyph glyph-name="Ncommaaccent.smcp" horiz-adv-x="613" 
d="M109 0h-21v568l417 -519v509h21v-568l-417 520v-510zM255 -154h-18l59 116h25z" />
    <glyph glyph-name="Ograve.smcp" horiz-adv-x="664" 
d="M348 596h-18l-66 116h25zM47 279q0 123 83 204q82 82 202 82t202 -82q83 -81 83 -204t-83 -206q-83 -81 -202 -81q-120 0 -202 81q-83 83 -83 206zM144 469q-76 -75 -76 -190t76 -191t188 -76t188 76t76 191t-76 190q-76 76 -188 76t-188 -76z" />
    <glyph glyph-name="Oacute.smcp" horiz-adv-x="664" 
d="M324 596h-18l59 116h25zM47 279q0 123 83 204q82 82 202 82t202 -82q83 -81 83 -204t-83 -206q-83 -81 -202 -81q-120 0 -202 81q-83 83 -83 206zM144 469q-76 -75 -76 -190t76 -191t188 -76t188 76t76 191t-76 190q-76 76 -188 76t-188 -76z" />
    <glyph glyph-name="Ocircumflex.smcp" horiz-adv-x="664" 
d="M248 615h-27l111 103l111 -103h-27l-84 77zM47 279q0 123 83 204q82 82 202 82t202 -82q83 -81 83 -204t-83 -206q-83 -81 -202 -81q-120 0 -202 81q-83 83 -83 206zM144 469q-76 -75 -76 -190t76 -191t188 -76t188 76t76 191t-76 190q-76 76 -188 76t-188 -76z" />
    <glyph glyph-name="Otilde.smcp" horiz-adv-x="664" 
d="M234 619l-15 1q3 23 19 37.5t38 14.5q26 0 57 -19q33 -18 53 -18q37 0 44 40l15 -1q-3 -27 -18.5 -42.5t-39.5 -15.5q-25 0 -58 18q-32 19 -52 19q-36 0 -43 -34zM47 279q0 123 83 204q82 82 202 82t202 -82q83 -81 83 -204t-83 -206q-83 -81 -202 -81q-120 0 -202 81
q-83 83 -83 206zM144 469q-76 -75 -76 -190t76 -191t188 -76t188 76t76 191t-76 190q-76 76 -188 76t-188 -76z" />
    <glyph glyph-name="Odieresis.smcp" horiz-adv-x="664" 
d="M431 619q-7 -7 -17 -3.5t-12.5 12t4.5 17.5q8 8 18 4.5t12.5 -12.5t-5.5 -18zM259 619q-13 -13 -26 0t0 26t26 0t0 -26zM47 279q0 123 83 204q82 82 202 82t202 -82q83 -81 83 -204t-83 -206q-83 -81 -202 -81q-120 0 -202 81q-83 83 -83 206zM144 469q-76 -75 -76 -190
t76 -191t188 -76t188 76t76 191t-76 190q-76 76 -188 76t-188 -76z" />
    <glyph glyph-name="Omacron.smcp" horiz-adv-x="664" 
d="M456 615h-247v20h247v-20zM47 279q0 123 83 204q82 82 202 82t202 -82q83 -81 83 -204t-83 -206q-83 -81 -202 -81q-120 0 -202 81q-83 83 -83 206zM144 469q-76 -75 -76 -190t76 -191t188 -76t188 76t76 191t-76 190q-76 76 -188 76t-188 -76z" />
    <glyph glyph-name="Obreve.smcp" horiz-adv-x="664" 
d="M332 601q-37 0 -63 21t-31 57h20q13 -58 74 -58q58 0 74 58h20q-6 -36 -31.5 -57t-62.5 -21zM47 279q0 123 83 204q82 82 202 82t202 -82q83 -81 83 -204t-83 -206q-83 -81 -202 -81q-120 0 -202 81q-83 83 -83 206zM144 469q-76 -75 -76 -190t76 -191t188 -76t188 76
t76 191t-76 190q-76 76 -188 76t-188 -76z" />
    <glyph glyph-name="Ohungarumlaut.smcp" horiz-adv-x="664" 
d="M399 596h-16l62 116h25zM276 596h-16l62 116h25zM47 279q0 123 83 204q82 82 202 82t202 -82q83 -81 83 -204t-83 -206q-83 -81 -202 -81q-120 0 -202 81q-83 83 -83 206zM144 469q-76 -75 -76 -190t76 -191t188 -76t188 76t76 191t-76 190q-76 76 -188 76t-188 -76z" />
    <glyph glyph-name="Oslash.smcp" horiz-adv-x="664" 
d="M116 -22l-16 12l49 66q-102 84 -102 223q0 123 83 204q82 82 202 82q89 0 162 -49l46 62l16 -12l-46 -62q107 -84 107 -225q0 -123 -83 -206q-83 -81 -202 -81q-94 0 -167 52zM161 72l321 428q-68 45 -150 45q-112 0 -188 -76q-76 -75 -76 -190q0 -131 93 -207zM498 488
l-321 -428q67 -48 155 -48q112 0 188 76t76 191q0 132 -98 209z" />
    <glyph glyph-name="Oslashacute.smcp" horiz-adv-x="664" 
d="M340 596h-18l59 116h25zM116 -22l-16 12l49 66q-102 84 -102 223q0 123 83 204q82 82 202 82q89 0 162 -49l46 62l16 -12l-46 -62q107 -84 107 -225q0 -123 -83 -206q-83 -81 -202 -81q-94 0 -167 52zM161 72l321 428q-68 45 -150 45q-112 0 -188 -76q-76 -75 -76 -190
q0 -131 93 -207zM498 488l-321 -428q67 -48 155 -48q112 0 188 76t76 191q0 132 -98 209z" />
    <glyph glyph-name="OE.smcp" horiz-adv-x="927" 
d="M47 279q0 122 83 205q85 83 204 83q93 0 163 -52q72 -53 96 -133v176h273v-20h-252v-233h236v-20h-236v-265h258v-20h-279v177q-24 -80 -96 -133q-70 -52 -163 -52q-122 0 -205 81q-82 82 -82 206zM68 279q0 -115 76 -191t190 -76q112 0 185 76q75 76 75 191
q0 114 -76 190q-75 78 -184 78q-112 0 -189 -78q-77 -77 -77 -190z" />
    <glyph glyph-name="Racute.smcp" horiz-adv-x="495" 
d="M241 596h-18l59 116h25zM109 0h-21v558h177q71 0 121 -45q50 -44 50 -110q0 -55 -33.5 -96t-89.5 -55l147 -252h-25l-143 247q-24 -2 -31 -2h-152v-245zM109 538v-273h155q64 0 108 39q43 39 43 99q0 57 -43 96q-44 39 -107 39h-156z" />
    <glyph glyph-name="Rcaron.smcp" horiz-adv-x="495" 
d="M359 712l-111 -103l-111 103h27l84 -77l84 77h27zM109 0h-21v558h177q71 0 121 -45q50 -44 50 -110q0 -55 -33.5 -96t-89.5 -55l147 -252h-25l-143 247q-24 -2 -31 -2h-152v-245zM109 538v-273h155q64 0 108 39q43 39 43 99q0 57 -43 96q-44 39 -107 39h-156z" />
    <glyph glyph-name="Rcommaaccent.smcp" horiz-adv-x="495" 
d="M109 0h-21v558h177q71 0 121 -45q50 -44 50 -110q0 -55 -33.5 -96t-89.5 -55l147 -252h-25l-143 247q-24 -2 -31 -2h-152v-245zM109 538v-273h155q64 0 108 39q43 39 43 99q0 57 -43 96q-44 39 -107 39h-156zM210 -154h-18l59 116h25z" />
    <glyph glyph-name="Sacute.smcp" horiz-adv-x="456" 
d="M228 596h-18l59 116h25zM48 68v29q66 -85 180 -85q76 0 118.5 33t42.5 91q0 55 -34 83q-34 31 -128 77q-76 38 -107 69t-31 77q0 57 39 91t108 34q72 0 115 -40v-24q-44 44 -116 44q-58 0 -91.5 -28.5t-33.5 -76.5q0 -38 29 -67t97 -60q97 -46 137 -83q37 -34 37 -95
q0 -66 -48.5 -105.5t-132.5 -39.5q-114 0 -181 76z" />
    <glyph glyph-name="Scircumflex.smcp" horiz-adv-x="456" 
d="M154 615h-27l111 103l111 -103h-27l-84 77zM48 68v29q66 -85 180 -85q76 0 118.5 33t42.5 91q0 55 -34 83q-34 31 -128 77q-76 38 -107 69t-31 77q0 57 39 91t108 34q72 0 115 -40v-24q-44 44 -116 44q-58 0 -91.5 -28.5t-33.5 -76.5q0 -38 29 -67t97 -60q97 -46 137 -83
q37 -34 37 -95q0 -66 -48.5 -105.5t-132.5 -39.5q-114 0 -181 76z" />
    <glyph glyph-name="Scaron.smcp" horiz-adv-x="456" 
d="M349 712l-111 -103l-111 103h27l84 -77l84 77h27zM48 68v29q66 -85 180 -85q76 0 118.5 33t42.5 91q0 55 -34 83q-34 31 -128 77q-76 38 -107 69t-31 77q0 57 39 91t108 34q72 0 115 -40v-24q-44 44 -116 44q-58 0 -91.5 -28.5t-33.5 -76.5q0 -38 29 -67t97 -60
q97 -46 137 -83q37 -34 37 -95q0 -66 -48.5 -105.5t-132.5 -39.5q-114 0 -181 76z" />
    <glyph glyph-name="Scommaaccent.smcp" horiz-adv-x="456" 
d="M48 68v29q66 -85 180 -85q76 0 118.5 33t42.5 91q0 55 -34 83q-34 31 -128 77q-76 38 -107 69t-31 77q0 57 39 91t108 34q72 0 115 -40v-24q-44 44 -116 44q-58 0 -91.5 -28.5t-33.5 -76.5q0 -38 29 -67t97 -60q97 -46 137 -83q37 -34 37 -95q0 -66 -48.5 -105.5
t-132.5 -39.5q-114 0 -181 76zM159 -154l59 116h25l-66 -116h-18z" />
    </font>
</defs>
</svg>
